<svg xmlns="http://www.w3.org/2000/svg" xmlns:xlink="http://www.w3.org/1999/xlink" width="108.914" height="108.914" viewBox="0 0 108.914 108.914">
  <defs>
    <filter id="Path_874925" x="0" y="0" width="108.914" height="108.914" filterUnits="userSpaceOnUse">
      <feOffset dy="3" input="SourceAlpha"/>
      <feGaussianBlur stdDeviation="3" result="blur"/>
      <feFlood flood-opacity="0.161"/>
      <feComposite operator="in" in2="blur"/>
      <feComposite in="SourceGraphic"/>
    </filter>
  </defs>
  <g id="Group_1177864" data-name="Group 1177864" transform="translate(-903 -636)">
    <g id="Group_1177857" data-name="Group 1177857" transform="translate(103.5 -1898.157)">
      <g id="Group_1111316" data-name="Group 1111316" transform="translate(0 587.946)">
        <g id="Group_1109835" data-name="Group 1109835">
          <g id="Group_1107913" data-name="Group 1107913" transform="translate(808.5 1952.211)">
            <g transform="matrix(1, 0, 0, 1, -9, -6)" filter="url(#Path_874925)">
              <g id="Path_874925-2" data-name="Path 874925" transform="translate(9 6)" fill="#d8cabd" opacity="0.859">
                <path d="M 45.45676803588867 89.41407012939453 C 39.52198028564453 89.41407012939453 33.76551818847656 88.25206756591797 28.34726715087891 85.96034240722656 C 23.11311721801758 83.74648284912109 18.41204261779785 80.57682800292969 14.37464332580566 76.5394287109375 C 10.33724308013916 72.50202941894531 7.167593002319336 67.80095672607422 4.953730583190918 62.56679534912109 C 2.662005424499512 57.14855575561523 1.500005483627319 51.39208221435547 1.500005483627319 45.45729446411133 C 1.500005483627319 39.52198028564453 2.662005424499512 33.76551818847656 4.953730583190918 28.34726905822754 C 7.167593002319336 23.11310577392578 10.33724308013916 18.41203117370605 14.37464332580566 14.37464332580566 C 18.41204261779785 10.33724403381348 23.11311721801758 7.167593955993652 28.34726715087891 4.953731060028076 C 33.76551818847656 2.662006139755249 39.52198028564453 1.500006198883057 45.45676803588867 1.500006198883057 C 51.39155578613281 1.500006198883057 57.14802932739258 2.662006139755249 62.56626892089844 4.953731060028076 C 67.80043029785156 7.167593955993652 72.50150299072266 10.33724403381348 76.53890228271484 14.37464332580566 C 80.57630920410156 18.41203117370605 83.74595642089844 23.11310577392578 85.95981597900391 28.34726905822754 C 88.25154113769531 33.76551818847656 89.41354370117188 39.52198028564453 89.41354370117188 45.45676803588867 C 89.41354370117188 51.39208221435547 88.25154113769531 57.14855575561523 85.95981597900391 62.56679534912109 C 83.74595642089844 67.80095672607422 80.57630920410156 72.50202941894531 76.53890228271484 76.5394287109375 C 72.50150299072266 80.57682800292969 67.80043029785156 83.74648284912109 62.56626892089844 85.96034240722656 C 57.14802932739258 88.25206756591797 51.39155578613281 89.41407012939453 45.45676803588867 89.41407012939453 Z" stroke="none"/>
                <path d="M 45.45676803588867 3 C 39.72381210327148 3 34.1639404296875 4.12213134765625 28.93159484863281 6.335227966308594 C 23.87622833251953 8.473472595214844 19.33542633056641 11.53517150878906 15.43529510498047 15.435302734375 C 11.53517150878906 19.33543395996094 8.473464965820312 23.87622833251953 6.335227966308594 28.93160247802734 C 4.122123718261719 34.16394424438477 3 39.72381591796875 3 45.4572868347168 C 3 51.19024658203125 4.122123718261719 56.75011825561523 6.335227966308594 61.98246002197266 C 8.473464965820312 67.03782653808594 11.53517150878906 71.57862854003906 15.43529510498047 75.478759765625 C 19.33542633056641 79.37889099121094 23.87622833251953 82.44058990478516 28.93159484863281 84.57883453369141 C 34.1639404296875 86.79193115234375 39.72381210327148 87.9140625 45.45676803588867 87.9140625 C 51.18972396850586 87.9140625 56.74959564208984 86.79193115234375 61.98194122314453 84.57883453369141 C 67.03730773925781 82.44058990478516 71.57810974121094 79.37889099121094 75.47824096679688 75.478759765625 C 79.37837219238281 71.57862854003906 82.44007110595703 67.03782653808594 84.57830810546875 61.98246002197266 C 86.79141235351562 56.75011825561523 87.91353607177734 51.19024658203125 87.91353607177734 45.4567756652832 C 87.91353607177734 39.72381591796875 86.79141235351562 34.16394424438477 84.57830810546875 28.93160247802734 C 82.44007110595703 23.87622833251953 79.37837219238281 19.33543395996094 75.47824096679688 15.435302734375 C 71.57810974121094 11.53517150878906 67.03730773925781 8.473472595214844 61.98194122314453 6.335227966308594 C 56.74959564208984 4.12213134765625 51.18972396850586 3 45.45676803588867 3 M 45.45676803588867 0 C 70.56185150146484 0 90.91353607177734 20.35169219970703 90.91353607177734 45.4567756652832 L 90.91353607177734 45.4572868347168 C 90.91353607177734 70.5623779296875 70.56185150146484 90.9140625 45.45676803588867 90.9140625 C 20.3516845703125 90.9140625 0 70.5623779296875 0 45.4572868347168 L 0 45.4567756652832 C 0 20.35169219970703 20.3516845703125 0 45.45676803588867 0 Z" stroke="none" fill="#fff"/>
              </g>
            </g>
            <g id="Path_874923" data-name="Path 874923" transform="translate(0 0)" fill="none">
              <path d="M45.457,0A45.457,45.457,0,0,1,90.914,45.457h0A45.457,45.457,0,0,1,0,45.457H0A45.457,45.457,0,0,1,45.457,0Z" stroke="none"/>
              <path d="M 45.45676803588867 3 C 39.72381210327148 3 34.1639404296875 4.12213134765625 28.93159484863281 6.335227966308594 C 23.87622833251953 8.473472595214844 19.33542633056641 11.53517150878906 15.43529510498047 15.435302734375 C 11.53517150878906 19.33543395996094 8.473464965820312 23.87622833251953 6.335227966308594 28.93160247802734 C 4.122123718261719 34.16394424438477 3 39.72381591796875 3 45.4572868347168 C 3 51.19024658203125 4.122123718261719 56.75011825561523 6.335227966308594 61.98246002197266 C 8.473464965820312 67.03782653808594 11.53517150878906 71.57862854003906 15.43529510498047 75.478759765625 C 19.33542633056641 79.37889099121094 23.87622833251953 82.44058990478516 28.93159484863281 84.57883453369141 C 34.1639404296875 86.79193115234375 39.72381210327148 87.9140625 45.45676803588867 87.9140625 C 51.18972396850586 87.9140625 56.74959564208984 86.79193115234375 61.98194122314453 84.57883453369141 C 67.03730773925781 82.44058990478516 71.57810974121094 79.37889099121094 75.47824096679688 75.478759765625 C 79.37837219238281 71.57862854003906 82.44007110595703 67.03782653808594 84.57830810546875 61.98246002197266 C 86.79141235351562 56.75011825561523 87.91353607177734 51.19024658203125 87.91353607177734 45.4567756652832 C 87.91353607177734 39.72381591796875 86.79141235351562 34.16394424438477 84.57830810546875 28.93160247802734 C 82.44007110595703 23.87622833251953 79.37837219238281 19.33543395996094 75.47824096679688 15.435302734375 C 71.57810974121094 11.53517150878906 67.03730773925781 8.473472595214844 61.98194122314453 6.335227966308594 C 56.74959564208984 4.12213134765625 51.18972396850586 3 45.45676803588867 3 M 45.45676803588867 0 C 70.56185150146484 0 90.91353607177734 20.35169219970703 90.91353607177734 45.4567756652832 L 90.91353607177734 45.4572868347168 C 90.91353607177734 70.5623779296875 70.56185150146484 90.9140625 45.45676803588867 90.9140625 C 20.3516845703125 90.9140625 0 70.5623779296875 0 45.4572868347168 L 0 45.4567756652832 C 0 20.35169219970703 20.3516845703125 0 45.45676803588867 0 Z" stroke="none" fill="#fff"/>
            </g>
          </g>
        </g>
      </g>
    </g>
    <g id="costura" transform="translate(920.979 632.995)">
      <g id="Group_1177861" data-name="Group 1177861" transform="translate(11.884 32.113)">
        <path id="Path_1034309" data-name="Path 1034309" d="M63.781,75.279H15.022V59.629a24.379,24.379,0,1,1,48.759,0Z" transform="translate(-15.022 -35.25)" fill="#b76c6c"/>
        <path id="Path_1034310" data-name="Path 1034310" d="M41.018,35.306A24.375,24.375,0,0,0,18.257,59.63V75.279H15.02V59.63A24.379,24.379,0,0,1,39.4,35.25c.544,0,1.083.017,1.618.056Z" transform="translate(-15.02 -35.25)" fill="#c98585"/>
        <path id="Path_1034311" data-name="Path 1034311" d="M146.5,59.63V75.279h-3.237V59.63A24.374,24.374,0,0,0,120.5,35.306c.535-.039,1.075-.056,1.618-.056A24.379,24.379,0,0,1,146.5,59.63Z" transform="translate(-97.739 -35.25)" fill="#965959"/>
      </g>
      <g id="Group_1177862" data-name="Group 1177862" transform="translate(11.021 31.25)">
        <path id="Path_1034312" data-name="Path 1034312" d="M36.264,31.25A25.271,25.271,0,0,0,11.021,56.493V72.142a.863.863,0,0,0,.863.863H60.643a.863.863,0,0,0,.863-.863V56.493A25.271,25.271,0,0,0,36.264,31.25ZM59.78,71.279H12.747V56.493a23.516,23.516,0,0,1,47.033,0Z" transform="translate(-11.021 -31.25)" fill="#5f266d"/>
        <path id="Path_1034313" data-name="Path 1034313" d="M33.287,191.653h-.539v-.539a.863.863,0,1,0-1.726,0v1.4a.863.863,0,0,0,.863.863h1.4a.863.863,0,0,0,0-1.726Z" transform="translate(-26.705 -155.94)" fill="#5f266d"/>
        <path id="Path_1034314" data-name="Path 1034314" d="M121.931,52.222a.863.863,0,0,0-.8-.921,21.179,21.179,0,0,0-2.961,0,.863.863,0,0,0,.122,1.722,19.439,19.439,0,0,1,2.719,0A.862.862,0,0,0,121.931,52.222Z" transform="translate(-94.419 -46.934)" fill="#5f266d"/>
        <path id="Path_1034315" data-name="Path 1034315" d="M31.883,138.089a.863.863,0,0,0,.863-.863,21.441,21.441,0,0,1,.126-2.738.863.863,0,1,0-1.715-.2,23.081,23.081,0,0,0-.138,2.936A.863.863,0,0,0,31.883,138.089Z" transform="translate(-26.704 -111.456)" fill="#5f266d"/>
        <path id="Path_1034316" data-name="Path 1034316" d="M66.859,67.653a19.345,19.345,0,0,1,2.224-1.561.863.863,0,1,0-.89-1.479,21.088,21.088,0,0,0-2.423,1.7.863.863,0,1,0,1.089,1.34Z" transform="translate(-53.706 -57.316)" fill="#5f266d"/>
        <path id="Path_1034317" data-name="Path 1034317" d="M36.793,106.348a.863.863,0,0,0-1.141.434,20.825,20.825,0,0,0-1.018,2.784.863.863,0,1,0,1.659.476,19.111,19.111,0,0,1,.934-2.553A.863.863,0,0,0,36.793,106.348Z" transform="translate(-29.512 -90.083)" fill="#5f266d"/>
        <path id="Path_1034318" data-name="Path 1034318" d="M48.04,86.137A19.34,19.34,0,0,1,49.7,83.982a.863.863,0,1,0-1.29-1.147A21.1,21.1,0,0,0,46.6,85.183a.863.863,0,1,0,1.438.954Z" transform="translate(-38.81 -71.477)" fill="#5f266d"/>
        <path id="Path_1034319" data-name="Path 1034319" d="M31.884,166.444a.863.863,0,0,0,.863-.863v-2.843a.863.863,0,1,0-1.726,0v2.843A.863.863,0,0,0,31.884,166.444Z" transform="translate(-26.705 -133.688)" fill="#5f266d"/>
        <path id="Path_1034320" data-name="Path 1034320" d="M146.194,55.467a19.11,19.11,0,0,1,2.593.817.863.863,0,1,0,.635-1.605,20.837,20.837,0,0,0-2.828-.891.863.863,0,0,0-.4,1.679Z" transform="translate(-116.505 -48.906)" fill="#5f266d"/>
        <path id="Path_1034321" data-name="Path 1034321" d="M208.914,107.408a19.09,19.09,0,0,1,.936,2.55.863.863,0,0,0,1.659-.478,20.853,20.853,0,0,0-1.02-2.782.863.863,0,0,0-1.574.709Z" transform="translate(-166.151 -90.019)" fill="#5f266d"/>
        <path id="Path_1034322" data-name="Path 1034322" d="M217.118,133.431a.863.863,0,0,0-.758.957,21.3,21.3,0,0,1,.129,2.737.863.863,0,0,0,1.726,0,22.92,22.92,0,0,0-.14-2.936A.861.861,0,0,0,217.118,133.431Z" transform="translate(-172.045 -111.377)" fill="#5f266d"/>
        <path id="Path_1034323" data-name="Path 1034323" d="M91,56.313a19.1,19.1,0,0,1,2.59-.819.863.863,0,1,0-.4-1.679,20.86,20.86,0,0,0-2.825.893.863.863,0,1,0,.637,1.6Z" transform="translate(-72.813 -48.927)" fill="#5f266d"/>
        <path id="Path_1034324" data-name="Path 1034324" d="M193.755,82.707a.863.863,0,0,0-.071,1.219,19.375,19.375,0,0,1,1.659,2.152.863.863,0,1,0,1.438-.955,21.108,21.108,0,0,0-1.808-2.345A.863.863,0,0,0,193.755,82.707Z" transform="translate(-154.096 -71.432)" fill="#5f266d"/>
        <path id="Path_1034325" data-name="Path 1034325" d="M217.842,161.774a.863.863,0,0,0-.863.863v2.843a.863.863,0,0,0,1.726,0v-2.843A.863.863,0,0,0,217.842,161.774Z" transform="translate(-172.536 -133.608)" fill="#5f266d"/>
        <path id="Path_1034326" data-name="Path 1034326" d="M175.568,67.484a.863.863,0,0,0-.126-1.214,21.137,21.137,0,0,0-2.426-1.7.863.863,0,1,0-.888,1.48,19.365,19.365,0,0,1,2.227,1.56A.863.863,0,0,0,175.568,67.484Z" transform="translate(-137.034 -57.283)" fill="#5f266d"/>
        <path id="Path_1034327" data-name="Path 1034327" d="M212.745,190.25a.863.863,0,0,0-.863.863v.539h-.539a.863.863,0,1,0,0,1.726h1.4a.863.863,0,0,0,.863-.863v-1.4A.863.863,0,0,0,212.745,190.25Z" transform="translate(-167.438 -155.94)" fill="#5f266d"/>
        <path id="Path_1034328" data-name="Path 1034328" d="M108.14,196.75h-2.651a.863.863,0,0,0,0,1.726h2.651a.863.863,0,0,0,0-1.726Z" transform="translate(-84.426 -161.037)" fill="#5f266d"/>
        <path id="Path_1034329" data-name="Path 1034329" d="M187.53,196.75h-2.651a.863.863,0,1,0,0,1.726h2.651a.863.863,0,0,0,0-1.726Z" transform="translate(-146.685 -161.037)" fill="#5f266d"/>
        <path id="Path_1034330" data-name="Path 1034330" d="M161.066,196.75h-2.651a.863.863,0,1,0,0,1.726h2.651a.863.863,0,1,0,0-1.726Z" transform="translate(-125.931 -161.037)" fill="#5f266d"/>
        <path id="Path_1034331" data-name="Path 1034331" d="M81.676,196.75H79.025a.863.863,0,0,0,0,1.726h2.651a.863.863,0,1,0,0-1.726Z" transform="translate(-63.674 -161.037)" fill="#5f266d"/>
        <path id="Path_1034332" data-name="Path 1034332" d="M55.213,196.75H52.561a.863.863,0,0,0,0,1.726h2.651a.863.863,0,0,0,0-1.726Z" transform="translate(-42.92 -161.037)" fill="#5f266d"/>
        <path id="Path_1034333" data-name="Path 1034333" d="M134.6,196.75h-2.651a.863.863,0,0,0,0,1.726H134.6a.863.863,0,0,0,0-1.726Z" transform="translate(-105.179 -161.037)" fill="#5f266d"/>
      </g>
    </g>
  </g>
</svg>
