<svg xmlns="http://www.w3.org/2000/svg" xmlns:xlink="http://www.w3.org/1999/xlink" width="108.914" height="108.914" viewBox="0 0 108.914 108.914">
  <defs>
    <filter id="Path_874925" x="0" y="0" width="108.914" height="108.914" filterUnits="userSpaceOnUse">
      <feOffset dy="3" input="SourceAlpha"/>
      <feGaussianBlur stdDeviation="3" result="blur"/>
      <feFlood flood-opacity="0.161"/>
      <feComposite operator="in" in2="blur"/>
      <feComposite in="SourceGraphic"/>
    </filter>
  </defs>
  <g id="Group_1177860" data-name="Group 1177860" transform="translate(-588 -636.086)">
    <g id="Group_1177856" data-name="Group 1177856" transform="translate(-211.5 -1898.071)">
      <g id="Group_1111316" data-name="Group 1111316" transform="translate(0 587.946)">
        <g id="Group_1109835" data-name="Group 1109835">
          <g id="Group_1107913" data-name="Group 1107913" transform="translate(808.5 1952.211)">
            <g transform="matrix(1, 0, 0, 1, -9, -6)" filter="url(#Path_874925)">
              <g id="Path_874925-2" data-name="Path 874925" transform="translate(9 6)" fill="#d8cabd" opacity="0.859">
                <path d="M 45.45676803588867 89.41407012939453 C 39.52198028564453 89.41407012939453 33.76551818847656 88.25206756591797 28.34726715087891 85.96034240722656 C 23.11311721801758 83.74648284912109 18.41204261779785 80.57682800292969 14.37464332580566 76.5394287109375 C 10.33724308013916 72.50202941894531 7.167593002319336 67.80095672607422 4.953730583190918 62.56679534912109 C 2.662005424499512 57.14855575561523 1.500005483627319 51.39208221435547 1.500005483627319 45.45729446411133 C 1.500005483627319 39.52198028564453 2.662005424499512 33.76551818847656 4.953730583190918 28.34726905822754 C 7.167593002319336 23.11310577392578 10.33724308013916 18.41203117370605 14.37464332580566 14.37464332580566 C 18.41204261779785 10.33724403381348 23.11311721801758 7.167593955993652 28.34726715087891 4.953731060028076 C 33.76551818847656 2.662006139755249 39.52198028564453 1.500006198883057 45.45676803588867 1.500006198883057 C 51.39155578613281 1.500006198883057 57.14802932739258 2.662006139755249 62.56626892089844 4.953731060028076 C 67.80043029785156 7.167593955993652 72.50150299072266 10.33724403381348 76.53890228271484 14.37464332580566 C 80.57630920410156 18.41203117370605 83.74595642089844 23.11310577392578 85.95981597900391 28.34726905822754 C 88.25154113769531 33.76551818847656 89.41354370117188 39.52198028564453 89.41354370117188 45.45676803588867 C 89.41354370117188 51.39208221435547 88.25154113769531 57.14855575561523 85.95981597900391 62.56679534912109 C 83.74595642089844 67.80095672607422 80.57630920410156 72.50202941894531 76.53890228271484 76.5394287109375 C 72.50150299072266 80.57682800292969 67.80043029785156 83.74648284912109 62.56626892089844 85.96034240722656 C 57.14802932739258 88.25206756591797 51.39155578613281 89.41407012939453 45.45676803588867 89.41407012939453 Z" stroke="none"/>
                <path d="M 45.45676803588867 3 C 39.72381210327148 3 34.1639404296875 4.12213134765625 28.93159484863281 6.335227966308594 C 23.87622833251953 8.473472595214844 19.33542633056641 11.53517150878906 15.43529510498047 15.435302734375 C 11.53517150878906 19.33543395996094 8.473464965820312 23.87622833251953 6.335227966308594 28.93160247802734 C 4.122123718261719 34.16394424438477 3 39.72381591796875 3 45.4572868347168 C 3 51.19024658203125 4.122123718261719 56.75011825561523 6.335227966308594 61.98246002197266 C 8.473464965820312 67.03782653808594 11.53517150878906 71.57862854003906 15.43529510498047 75.478759765625 C 19.33542633056641 79.37889099121094 23.87622833251953 82.44058990478516 28.93159484863281 84.57883453369141 C 34.1639404296875 86.79193115234375 39.72381210327148 87.9140625 45.45676803588867 87.9140625 C 51.18972396850586 87.9140625 56.74959564208984 86.79193115234375 61.98194122314453 84.57883453369141 C 67.03730773925781 82.44058990478516 71.57810974121094 79.37889099121094 75.47824096679688 75.478759765625 C 79.37837219238281 71.57862854003906 82.44007110595703 67.03782653808594 84.57830810546875 61.98246002197266 C 86.79141235351562 56.75011825561523 87.91353607177734 51.19024658203125 87.91353607177734 45.4567756652832 C 87.91353607177734 39.72381591796875 86.79141235351562 34.16394424438477 84.57830810546875 28.93160247802734 C 82.44007110595703 23.87622833251953 79.37837219238281 19.33543395996094 75.47824096679688 15.435302734375 C 71.57810974121094 11.53517150878906 67.03730773925781 8.473472595214844 61.98194122314453 6.335227966308594 C 56.74959564208984 4.12213134765625 51.18972396850586 3 45.45676803588867 3 M 45.45676803588867 0 C 70.56185150146484 0 90.91353607177734 20.35169219970703 90.91353607177734 45.4567756652832 L 90.91353607177734 45.4572868347168 C 90.91353607177734 70.5623779296875 70.56185150146484 90.9140625 45.45676803588867 90.9140625 C 20.3516845703125 90.9140625 0 70.5623779296875 0 45.4572868347168 L 0 45.4567756652832 C 0 20.35169219970703 20.3516845703125 0 45.45676803588867 0 Z" stroke="none" fill="#fff"/>
              </g>
            </g>
            <g id="Path_874923" data-name="Path 874923" transform="translate(0 0)" fill="none">
              <path d="M45.457,0A45.457,45.457,0,0,1,90.914,45.457h0A45.457,45.457,0,0,1,0,45.457H0A45.457,45.457,0,0,1,45.457,0Z" stroke="none"/>
              <path d="M 45.45676803588867 3 C 39.72381210327148 3 34.1639404296875 4.12213134765625 28.93159484863281 6.335227966308594 C 23.87622833251953 8.473472595214844 19.33542633056641 11.53517150878906 15.43529510498047 15.435302734375 C 11.53517150878906 19.33543395996094 8.473464965820312 23.87622833251953 6.335227966308594 28.93160247802734 C 4.122123718261719 34.16394424438477 3 39.72381591796875 3 45.4572868347168 C 3 51.19024658203125 4.122123718261719 56.75011825561523 6.335227966308594 61.98246002197266 C 8.473464965820312 67.03782653808594 11.53517150878906 71.57862854003906 15.43529510498047 75.478759765625 C 19.33542633056641 79.37889099121094 23.87622833251953 82.44058990478516 28.93159484863281 84.57883453369141 C 34.1639404296875 86.79193115234375 39.72381210327148 87.9140625 45.45676803588867 87.9140625 C 51.18972396850586 87.9140625 56.74959564208984 86.79193115234375 61.98194122314453 84.57883453369141 C 67.03730773925781 82.44058990478516 71.57810974121094 79.37889099121094 75.47824096679688 75.478759765625 C 79.37837219238281 71.57862854003906 82.44007110595703 67.03782653808594 84.57830810546875 61.98246002197266 C 86.79141235351562 56.75011825561523 87.91353607177734 51.19024658203125 87.91353607177734 45.4567756652832 C 87.91353607177734 39.72381591796875 86.79141235351562 34.16394424438477 84.57830810546875 28.93160247802734 C 82.44007110595703 23.87622833251953 79.37837219238281 19.33543395996094 75.47824096679688 15.435302734375 C 71.57810974121094 11.53517150878906 67.03730773925781 8.473472595214844 61.98194122314453 6.335227966308594 C 56.74959564208984 4.12213134765625 51.18972396850586 3 45.45676803588867 3 M 45.45676803588867 0 C 70.56185150146484 0 90.91353607177734 20.35169219970703 90.91353607177734 45.4567756652832 L 90.91353607177734 45.4572868347168 C 90.91353607177734 70.5623779296875 70.56185150146484 90.9140625 45.45676803588867 90.9140625 C 20.3516845703125 90.9140625 0 70.5623779296875 0 45.4572868347168 L 0 45.4567756652832 C 0 20.35169219970703 20.3516845703125 0 45.45676803588867 0 Z" stroke="none" fill="#fff"/>
            </g>
          </g>
        </g>
      </g>
    </g>
    <g id="zapato_1_" data-name="zapato (1)" transform="translate(614.209 626.832)">
      <path id="Path_1034301" data-name="Path 1034301" d="M145.551,105.046a1.176,1.176,0,0,0-1.717.483l-6.916,14.845,11.965-13.122Z" transform="translate(-121.811 -57.126)" fill="#873921"/>
      <path id="Path_1034302" data-name="Path 1034302" d="M8.994,92.335l28.873-16.67,7.217-7.4,14.381-8.3-.279-.484s-3.043-8.327-8.255-11.052a2.321,2.321,0,0,0-2.721.426c-2.3,2.314-8.258,7.49-15.664,7.506a2.544,2.544,0,0,0-2.056,1.071c-1.578,2.2-5.312,7.378-9.523,12.961h0l-.375.819a16.656,16.656,0,0,1-6,6.983c-3.888,2.555-5.963,3.589-6.976,5.816a7.305,7.305,0,0,0,.7,7.27Z" transform="translate(-6.195 -6.698)" fill="#93482b"/>
      <path id="Path_1034303" data-name="Path 1034303" d="M9.458,151.418c1.08-2.374,3.292-3.476,7.437-6.2a17.755,17.755,0,0,0,6.391-7.445l.4-.873h0c4.49-5.951,10.015-14.447,11.7-16.8l.01-.013a16.518,16.518,0,0,1-2.85.258,2.544,2.544,0,0,0-2.056,1.071c-1.578,2.2-5.312,7.378-9.523,12.961h0l-.375.819a16.656,16.656,0,0,1-6,6.983c-3.888,2.555-5.963,3.589-6.976,5.816a7.305,7.305,0,0,0,.7,7.27l.6.93A7.816,7.816,0,0,1,9.458,151.418Z" transform="translate(-6.193 -70.686)" fill="#873921"/>
      <path id="Path_1034304" data-name="Path 1034304" d="M51.039,166.092l-29.2,16.859.985,1.535a1.844,1.844,0,0,0,2.424.527C54.471,168.1,53,169.1,53.475,168.591l5.909-6.359a.557.557,0,0,1,.891.1l.69,1.2a.747.747,0,0,0,1.021.273l12.458-7.192a1.2,1.2,0,0,0,.439-1.639l-2.462-4.265-14.587,8.422Z" transform="translate(-19.43 -97.922)" fill="#666"/>
      <path id="Path_1034305" data-name="Path 1034305" d="M172.064,79.362a7.8,7.8,0,0,1-10.994-2.744h0c-8.961,7.048-13.208,3.675-14.964,6.127-2.807,3.919-6.121,8.442-9.186,12.514l1.308,2.266a1.342,1.342,0,0,0,1.819.5c2.765-1.55,10.124-4.919,16.863-1.42l3.306-3.389L174.8,84.794A31.371,31.371,0,0,0,172.064,79.362Z" transform="translate(-121.811 -32.01)" fill="#873921"/>
      <path id="Path_1034306" data-name="Path 1034306" d="M145.512,122.249l-.342.475-.377.522-.023.032c-.728,1.008-1.479,2.043-2.243,3.089l-.211.289-.23.315-.431.588-.1.141c-.885,1.207-1.847,2.508-2.857,3.864l-.049.066-.534.716L138,132.5l-.377.5-.2.27-.392.521-.1.136,1.308,2.266a1.34,1.34,0,0,0,1.1.669c4.486-5.949,9.994-14.42,11.674-16.765l.01-.013a16.607,16.607,0,0,1-2.565.254,3.091,3.091,0,0,0-2.256.963c-.029.037-.058.074-.086.112l-.5.7Z" transform="translate(-121.814 -70.682)" fill="#702c1a"/>
      <path id="Path_1034307" data-name="Path 1034307" d="M372.417,143.627l4.784-2.762a.828.828,0,1,0-.828-1.434l-4.784,2.762a.828.828,0,1,0,.828,1.434Z" transform="translate(-330.217 -87.794)"/>
      <path id="Path_1034308" data-name="Path 1034308" d="M56.226,56.635,53.8,52.43c-.331-.882-3.388-8.694-8.623-11.432a3.133,3.133,0,0,0-3.693.576c-3.913,3.944-9.279,7.149-14.817,7.257l-2.411-1.6a2,2,0,0,0-2.924.823l-.846,1.815a.828.828,0,0,0-.685,1.47L18.512,54.1l-.128-.074a.828.828,0,1,0-.828,1.434l.254.146-1.286,2.76-.051-.03a.828.828,0,1,0-.828,1.434l.177.1-1.371,2.943a4.044,4.044,0,0,0-.751,1.35c-2.045,4.466-5.047,6.215-7.707,7.954A.828.828,0,0,0,6.9,73.509c2.738-1.79,6.02-3.712,8.276-8.587l.581,1.006a2.178,2.178,0,0,0,2.94.808,23.348,23.348,0,0,1,7.089-2.586.828.828,0,0,0-.287-1.63,25.043,25.043,0,0,0-7.611,2.773.516.516,0,0,1-.7-.191l-1.034-1.792q.864-1.15,1.692-2.264c1.142.623,1.244.8,1.613.8a.828.828,0,0,0,.414-1.545l-1.035-.6c.632-.855,1.239-1.679,1.81-2.457,1.147.626,1.248.806,1.618.806a.828.828,0,0,0,.414-1.545L21.633,55.9c.636-.871,1.28-1.76,1.792-2.467,1.181.645,1.279.824,1.649.824a.828.828,0,0,0,.414-1.545L24.4,52.088A9.182,9.182,0,0,1,25.212,51c.694-.69,1.255-.426,2.911-.6A22.668,22.668,0,0,0,39.1,45.812a8.636,8.636,0,0,0,10.92,2.658,32.581,32.581,0,0,1,1.99,3.955c-14.862,8.593-13.993,8.047-14.145,8.2l-2.887,2.959a14.636,14.636,0,0,0-5.434-1.331.828.828,0,1,0-.087,1.653,13.087,13.087,0,0,1,4.285.945L31.153,67.51,2.729,83.921a6.281,6.281,0,0,1,.891-8.1.828.828,0,1,0-1.089-1.247A7.945,7.945,0,0,0,1.494,85.047C3,87.4,2.734,86.983,2.769,87.033a2.662,2.662,0,0,0,3.519.774C35.642,70.836,33.982,71.877,34.429,71.5c.308-.262.011.011,5.94-6.355l.507.878a1.577,1.577,0,0,0,2.151.576l7.5-4.331a.828.828,0,0,0-.828-1.434l-7.432,4.291L41.619,64a1.387,1.387,0,0,0-2.214-.25c-6.434,6.915-5.976,6.479-6.284,6.657L5.461,86.374a1.011,1.011,0,0,1-.935.043,1.288,1.288,0,0,1-.56-.583l-.334-.521C33.874,67.838,32.106,68.9,32.258,68.748l6.715-6.883,13.771-7.951A38.356,38.356,0,0,1,54.839,57.6a.373.373,0,0,1-.18.369l-1.6.924a.828.828,0,1,0,.828,1.434,13.443,13.443,0,0,0,1.929-1.161A2.028,2.028,0,0,0,56.226,56.635Zm-33.4-7.882a.348.348,0,0,1,.508-.143l1.207.8a6.427,6.427,0,0,0-1.588,1.846l-1.019-.588Zm-1.594,3.422.747.431c-.588.812-1.151,1.588-1.793,2.467l-.24-.139Zm19.172-7.384c.909-.751,1.666-1.462,2.25-2.051a1.485,1.485,0,0,1,1.75-.275,14.049,14.049,0,0,1,4.718,4.6A6.97,6.97,0,0,1,40.409,44.791Z" transform="translate(0)"/>
    </g>
  </g>
</svg>
