<svg xmlns="http://www.w3.org/2000/svg" xmlns:xlink="http://www.w3.org/1999/xlink" width="108.914" height="108.914" viewBox="0 0 108.914 108.914">
  <defs>
    <filter id="Path_874925" x="0" y="0" width="108.914" height="108.914" filterUnits="userSpaceOnUse">
      <feOffset dy="3" input="SourceAlpha"/>
      <feGaussianBlur stdDeviation="3" result="blur"/>
      <feFlood flood-opacity="0.161"/>
      <feComposite operator="in" in2="blur"/>
      <feComposite in="SourceGraphic"/>
    </filter>
  </defs>
  <g id="Group_1177863" data-name="Group 1177863" transform="translate(-1218 -636.086)">
    <g id="Group_1177858" data-name="Group 1177858" transform="translate(418.5 -1898.071)">
      <g id="Group_1111316" data-name="Group 1111316" transform="translate(0 587.946)">
        <g id="Group_1109835" data-name="Group 1109835">
          <g id="Group_1107913" data-name="Group 1107913" transform="translate(808.5 1952.211)">
            <g transform="matrix(1, 0, 0, 1, -9, -6)" filter="url(#Path_874925)">
              <g id="Path_874925-2" data-name="Path 874925" transform="translate(9 6)" fill="#d8cabd" opacity="0.859">
                <path d="M 45.45676803588867 89.41407012939453 C 39.52198028564453 89.41407012939453 33.76551818847656 88.25206756591797 28.34726715087891 85.96034240722656 C 23.11311721801758 83.74648284912109 18.41204261779785 80.57682800292969 14.37464332580566 76.5394287109375 C 10.33724308013916 72.50202941894531 7.167593002319336 67.80095672607422 4.953730583190918 62.56679534912109 C 2.662005424499512 57.14855575561523 1.500005483627319 51.39208221435547 1.500005483627319 45.45729446411133 C 1.500005483627319 39.52198028564453 2.662005424499512 33.76551818847656 4.953730583190918 28.34726905822754 C 7.167593002319336 23.11310577392578 10.33724308013916 18.41203117370605 14.37464332580566 14.37464332580566 C 18.41204261779785 10.33724403381348 23.11311721801758 7.167593955993652 28.34726715087891 4.953731060028076 C 33.76551818847656 2.662006139755249 39.52198028564453 1.500006198883057 45.45676803588867 1.500006198883057 C 51.39155578613281 1.500006198883057 57.14802932739258 2.662006139755249 62.56626892089844 4.953731060028076 C 67.80043029785156 7.167593955993652 72.50150299072266 10.33724403381348 76.53890228271484 14.37464332580566 C 80.57630920410156 18.41203117370605 83.74595642089844 23.11310577392578 85.95981597900391 28.34726905822754 C 88.25154113769531 33.76551818847656 89.41354370117188 39.52198028564453 89.41354370117188 45.45676803588867 C 89.41354370117188 51.39208221435547 88.25154113769531 57.14855575561523 85.95981597900391 62.56679534912109 C 83.74595642089844 67.80095672607422 80.57630920410156 72.50202941894531 76.53890228271484 76.5394287109375 C 72.50150299072266 80.57682800292969 67.80043029785156 83.74648284912109 62.56626892089844 85.96034240722656 C 57.14802932739258 88.25206756591797 51.39155578613281 89.41407012939453 45.45676803588867 89.41407012939453 Z" stroke="none"/>
                <path d="M 45.45676803588867 3 C 39.72381210327148 3 34.1639404296875 4.12213134765625 28.93159484863281 6.335227966308594 C 23.87622833251953 8.473472595214844 19.33542633056641 11.53517150878906 15.43529510498047 15.435302734375 C 11.53517150878906 19.33543395996094 8.473464965820312 23.87622833251953 6.335227966308594 28.93160247802734 C 4.122123718261719 34.16394424438477 3 39.72381591796875 3 45.4572868347168 C 3 51.19024658203125 4.122123718261719 56.75011825561523 6.335227966308594 61.98246002197266 C 8.473464965820312 67.03782653808594 11.53517150878906 71.57862854003906 15.43529510498047 75.478759765625 C 19.33542633056641 79.37889099121094 23.87622833251953 82.44058990478516 28.93159484863281 84.57883453369141 C 34.1639404296875 86.79193115234375 39.72381210327148 87.9140625 45.45676803588867 87.9140625 C 51.18972396850586 87.9140625 56.74959564208984 86.79193115234375 61.98194122314453 84.57883453369141 C 67.03730773925781 82.44058990478516 71.57810974121094 79.37889099121094 75.47824096679688 75.478759765625 C 79.37837219238281 71.57862854003906 82.44007110595703 67.03782653808594 84.57830810546875 61.98246002197266 C 86.79141235351562 56.75011825561523 87.91353607177734 51.19024658203125 87.91353607177734 45.4567756652832 C 87.91353607177734 39.72381591796875 86.79141235351562 34.16394424438477 84.57830810546875 28.93160247802734 C 82.44007110595703 23.87622833251953 79.37837219238281 19.33543395996094 75.47824096679688 15.435302734375 C 71.57810974121094 11.53517150878906 67.03730773925781 8.473472595214844 61.98194122314453 6.335227966308594 C 56.74959564208984 4.12213134765625 51.18972396850586 3 45.45676803588867 3 M 45.45676803588867 0 C 70.56185150146484 0 90.91353607177734 20.35169219970703 90.91353607177734 45.4567756652832 L 90.91353607177734 45.4572868347168 C 90.91353607177734 70.5623779296875 70.56185150146484 90.9140625 45.45676803588867 90.9140625 C 20.3516845703125 90.9140625 0 70.5623779296875 0 45.4572868347168 L 0 45.4567756652832 C 0 20.35169219970703 20.3516845703125 0 45.45676803588867 0 Z" stroke="none" fill="#fff"/>
              </g>
            </g>
            <g id="Path_874923" data-name="Path 874923" transform="translate(0 0)" fill="none">
              <path d="M45.457,0A45.457,45.457,0,0,1,90.914,45.457h0A45.457,45.457,0,0,1,0,45.457H0A45.457,45.457,0,0,1,45.457,0Z" stroke="none"/>
              <path d="M 45.45676803588867 3 C 39.72381210327148 3 34.1639404296875 4.12213134765625 28.93159484863281 6.335227966308594 C 23.87622833251953 8.473472595214844 19.33542633056641 11.53517150878906 15.43529510498047 15.435302734375 C 11.53517150878906 19.33543395996094 8.473464965820312 23.87622833251953 6.335227966308594 28.93160247802734 C 4.122123718261719 34.16394424438477 3 39.72381591796875 3 45.4572868347168 C 3 51.19024658203125 4.122123718261719 56.75011825561523 6.335227966308594 61.98246002197266 C 8.473464965820312 67.03782653808594 11.53517150878906 71.57862854003906 15.43529510498047 75.478759765625 C 19.33542633056641 79.37889099121094 23.87622833251953 82.44058990478516 28.93159484863281 84.57883453369141 C 34.1639404296875 86.79193115234375 39.72381210327148 87.9140625 45.45676803588867 87.9140625 C 51.18972396850586 87.9140625 56.74959564208984 86.79193115234375 61.98194122314453 84.57883453369141 C 67.03730773925781 82.44058990478516 71.57810974121094 79.37889099121094 75.47824096679688 75.478759765625 C 79.37837219238281 71.57862854003906 82.44007110595703 67.03782653808594 84.57830810546875 61.98246002197266 C 86.79141235351562 56.75011825561523 87.91353607177734 51.19024658203125 87.91353607177734 45.4567756652832 C 87.91353607177734 39.72381591796875 86.79141235351562 34.16394424438477 84.57830810546875 28.93160247802734 C 82.44007110595703 23.87622833251953 79.37837219238281 19.33543395996094 75.47824096679688 15.435302734375 C 71.57810974121094 11.53517150878906 67.03730773925781 8.473472595214844 61.98194122314453 6.335227966308594 C 56.74959564208984 4.12213134765625 51.18972396850586 3 45.45676803588867 3 M 45.45676803588867 0 C 70.56185150146484 0 90.91353607177734 20.35169219970703 90.91353607177734 45.4567756652832 L 90.91353607177734 45.4572868347168 C 90.91353607177734 70.5623779296875 70.56185150146484 90.9140625 45.45676803588867 90.9140625 C 20.3516845703125 90.9140625 0 70.5623779296875 0 45.4572868347168 L 0 45.4567756652832 C 0 20.35169219970703 20.3516845703125 0 45.45676803588867 0 Z" stroke="none" fill="#fff"/>
            </g>
          </g>
        </g>
      </g>
    </g>
    <g id="desgarrador-de-costuras" transform="translate(1231.836 647.758)">
      <path id="Path_1034334" data-name="Path 1034334" d="M24,24H45.338V71.6H24Z" transform="translate(-7.179 -7.179)" fill="#0093b9"/>
      <path id="Path_1034335" data-name="Path 1034335" d="M144,24h9.028V71.6H144Z" transform="translate(-114.869 -7.179)" fill="#fdc01e"/>
      <path id="Path_1034336" data-name="Path 1034336" d="M280,24h21.338V71.6H280Z" transform="translate(-236.917 -7.179)" fill="#0093b9"/>
      <path id="Path_1034337" data-name="Path 1034337" d="M280,24h9.028V71.6H280Z" transform="translate(-236.917 -7.179)" fill="#fdc01e"/>
      <path id="Path_1034338" data-name="Path 1034338" d="M64.421,16H43.083a.821.821,0,0,0-.821.821V20.1H38.98V16.821A.821.821,0,0,0,38.159,16H16.821a.821.821,0,0,0-.821.821v47.6a.821.821,0,0,0,.821.821H38.159a.821.821,0,0,0,.821-.821V61.139h3.283v3.283a.821.821,0,0,0,.821.821H64.421a.821.821,0,0,0,.821-.821v-47.6A.821.821,0,0,0,64.421,16ZM42.263,21.745v3.914L38.98,24.252V21.745Zm0,8.207H38.98V26.038l3.283,1.407Zm1.641-1.8,3.29,1.41a.205.205,0,0,1-.081.394H43.9ZM42.263,39.8H38.98V35.886l3.283,1.407ZM43.9,38l3.29,1.41a.205.205,0,0,1-.081.394H43.9ZM42.263,49.649H38.98V45.735l3.283,1.407Zm1.641-1.8,3.29,1.41a.205.205,0,0,1-.081.394H43.9ZM38.98,51.29h3.283V55.2L38.98,53.8Zm-1.641,1.8-3.29-1.41a.205.205,0,0,1,.081-.394h3.209Zm1.641-9.145V41.442h3.283v3.914Zm-1.641-.7-3.29-1.41a.205.205,0,0,1,.081-.394h3.209ZM38.98,34.1V31.593h3.283v3.914Zm-1.641-.7-3.29-1.41a.205.205,0,0,1,.081-.394h3.209Zm0-9.848-3.29-1.41a.205.205,0,0,1,.081-.394h3.209Zm-19.7-5.907H28.311V63.6H17.641ZM37.338,63.6H29.952V17.641h7.386V20.1H34.129a1.847,1.847,0,0,0-.727,3.544l3.936,1.687v4.617H34.129A1.847,1.847,0,0,0,33.4,33.5l3.936,1.687V39.8H34.129a1.847,1.847,0,0,0-.727,3.544l3.936,1.687v4.617H34.129a1.847,1.847,0,0,0-.727,3.544l3.936,1.687V59.5H32.414v1.641h4.924Zm1.641-4.1V55.583l3.283,1.407V59.5Zm4.924-1.8,3.29,1.41a.205.205,0,0,1-.081.394H43.9Zm0,3.445h3.209a1.847,1.847,0,0,0,.727-3.544L43.9,55.908V51.29h3.209a1.847,1.847,0,0,0,.727-3.544L43.9,46.059V41.442h3.209A1.847,1.847,0,0,0,47.84,37.9L43.9,36.211V31.593h3.209a1.847,1.847,0,0,0,.727-3.544L43.9,26.362V21.745h4.924V20.1H43.9V17.641H51.29V63.6H43.9ZM63.6,63.6H52.932V17.641H63.6Z"/>
      <path id="Path_1034339" data-name="Path 1034339" d="M392,56h1.641v1.641H392Z" transform="translate(-337.427 -35.896)"/>
      <path id="Path_1034340" data-name="Path 1034340" d="M392,120h1.641v1.641H392Z" transform="translate(-337.427 -93.331)"/>
      <path id="Path_1034341" data-name="Path 1034341" d="M392,184h1.641v1.641H392Z" transform="translate(-337.427 -150.765)"/>
      <path id="Path_1034342" data-name="Path 1034342" d="M392,248h1.641v1.641H392Z" transform="translate(-337.427 -208.2)"/>
      <path id="Path_1034343" data-name="Path 1034343" d="M392,312h1.641v1.641H392Z" transform="translate(-337.427 -265.634)"/>
      <path id="Path_1034344" data-name="Path 1034344" d="M392,376h1.641v1.641H392Z" transform="translate(-337.427 -323.068)"/>
      <path id="Path_1034345" data-name="Path 1034345" d="M392,440h1.641v1.641H392Z" transform="translate(-337.427 -380.503)"/>
      <path id="Path_1034346" data-name="Path 1034346" d="M104,56h1.641v1.641H104Z" transform="translate(-78.972 -35.896)"/>
      <path id="Path_1034347" data-name="Path 1034347" d="M104,120h1.641v1.641H104Z" transform="translate(-78.972 -93.331)"/>
      <path id="Path_1034348" data-name="Path 1034348" d="M104,184h1.641v1.641H104Z" transform="translate(-78.972 -150.765)"/>
      <path id="Path_1034349" data-name="Path 1034349" d="M104,248h1.641v1.641H104Z" transform="translate(-78.972 -208.2)"/>
      <path id="Path_1034350" data-name="Path 1034350" d="M104,312h1.641v1.641H104Z" transform="translate(-78.972 -265.634)"/>
      <path id="Path_1034351" data-name="Path 1034351" d="M104,376h1.641v1.641H104Z" transform="translate(-78.972 -323.068)"/>
      <path id="Path_1034352" data-name="Path 1034352" d="M104,440h1.641v1.641H104Z" transform="translate(-78.972 -380.503)"/>
    </g>
  </g>
</svg>
