<svg xmlns="http://www.w3.org/2000/svg" xmlns:xlink="http://www.w3.org/1999/xlink" width="108.914" height="108.914" viewBox="0 0 108.914 108.914">
  <defs>
    <filter id="Path_874925" x="0" y="0" width="108.914" height="108.914" filterUnits="userSpaceOnUse">
      <feOffset dy="3" input="SourceAlpha"/>
      <feGaussianBlur stdDeviation="3" result="blur"/>
      <feFlood flood-opacity="0.161"/>
      <feComposite operator="in" in2="blur"/>
      <feComposite in="SourceGraphic"/>
    </filter>
  </defs>
  <g id="Group_1177859" data-name="Group 1177859" transform="translate(-273 -636)">
    <g id="Group_1177855" data-name="Group 1177855" transform="translate(-526.5 -1898.157)">
      <g id="Group_1111316" data-name="Group 1111316" transform="translate(0 587.946)">
        <g id="Group_1109835" data-name="Group 1109835">
          <g id="Group_1107913" data-name="Group 1107913" transform="translate(808.5 1952.211)">
            <g transform="matrix(1, 0, 0, 1, -9, -6)" filter="url(#Path_874925)">
              <g id="Path_874925-2" data-name="Path 874925" transform="translate(9 6)" fill="#d8cabd" opacity="0.859">
                <path d="M 45.45676803588867 89.41407012939453 C 39.52198028564453 89.41407012939453 33.76551818847656 88.25206756591797 28.34726715087891 85.96034240722656 C 23.11311721801758 83.74648284912109 18.41204261779785 80.57682800292969 14.37464332580566 76.5394287109375 C 10.33724308013916 72.50202941894531 7.167593002319336 67.80095672607422 4.953730583190918 62.56679534912109 C 2.662005424499512 57.14855575561523 1.500005483627319 51.39208221435547 1.500005483627319 45.45729446411133 C 1.500005483627319 39.52198028564453 2.662005424499512 33.76551818847656 4.953730583190918 28.34726905822754 C 7.167593002319336 23.11310577392578 10.33724308013916 18.41203117370605 14.37464332580566 14.37464332580566 C 18.41204261779785 10.33724403381348 23.11311721801758 7.167593955993652 28.34726715087891 4.953731060028076 C 33.76551818847656 2.662006139755249 39.52198028564453 1.500006198883057 45.45676803588867 1.500006198883057 C 51.39155578613281 1.500006198883057 57.14802932739258 2.662006139755249 62.56626892089844 4.953731060028076 C 67.80043029785156 7.167593955993652 72.50150299072266 10.33724403381348 76.53890228271484 14.37464332580566 C 80.57630920410156 18.41203117370605 83.74595642089844 23.11310577392578 85.95981597900391 28.34726905822754 C 88.25154113769531 33.76551818847656 89.41354370117188 39.52198028564453 89.41354370117188 45.45676803588867 C 89.41354370117188 51.39208221435547 88.25154113769531 57.14855575561523 85.95981597900391 62.56679534912109 C 83.74595642089844 67.80095672607422 80.57630920410156 72.50202941894531 76.53890228271484 76.5394287109375 C 72.50150299072266 80.57682800292969 67.80043029785156 83.74648284912109 62.56626892089844 85.96034240722656 C 57.14802932739258 88.25206756591797 51.39155578613281 89.41407012939453 45.45676803588867 89.41407012939453 Z" stroke="none"/>
                <path d="M 45.45676803588867 3 C 39.72381210327148 3 34.1639404296875 4.12213134765625 28.93159484863281 6.335227966308594 C 23.87622833251953 8.473472595214844 19.33542633056641 11.53517150878906 15.43529510498047 15.435302734375 C 11.53517150878906 19.33543395996094 8.473464965820312 23.87622833251953 6.335227966308594 28.93160247802734 C 4.122123718261719 34.16394424438477 3 39.72381591796875 3 45.4572868347168 C 3 51.19024658203125 4.122123718261719 56.75011825561523 6.335227966308594 61.98246002197266 C 8.473464965820312 67.03782653808594 11.53517150878906 71.57862854003906 15.43529510498047 75.478759765625 C 19.33542633056641 79.37889099121094 23.87622833251953 82.44058990478516 28.93159484863281 84.57883453369141 C 34.1639404296875 86.79193115234375 39.72381210327148 87.9140625 45.45676803588867 87.9140625 C 51.18972396850586 87.9140625 56.74959564208984 86.79193115234375 61.98194122314453 84.57883453369141 C 67.03730773925781 82.44058990478516 71.57810974121094 79.37889099121094 75.47824096679688 75.478759765625 C 79.37837219238281 71.57862854003906 82.44007110595703 67.03782653808594 84.57830810546875 61.98246002197266 C 86.79141235351562 56.75011825561523 87.91353607177734 51.19024658203125 87.91353607177734 45.4567756652832 C 87.91353607177734 39.72381591796875 86.79141235351562 34.16394424438477 84.57830810546875 28.93160247802734 C 82.44007110595703 23.87622833251953 79.37837219238281 19.33543395996094 75.47824096679688 15.435302734375 C 71.57810974121094 11.53517150878906 67.03730773925781 8.473472595214844 61.98194122314453 6.335227966308594 C 56.74959564208984 4.12213134765625 51.18972396850586 3 45.45676803588867 3 M 45.45676803588867 0 C 70.56185150146484 0 90.91353607177734 20.35169219970703 90.91353607177734 45.4567756652832 L 90.91353607177734 45.4572868347168 C 90.91353607177734 70.5623779296875 70.56185150146484 90.9140625 45.45676803588867 90.9140625 C 20.3516845703125 90.9140625 0 70.5623779296875 0 45.4572868347168 L 0 45.4567756652832 C 0 20.35169219970703 20.3516845703125 0 45.45676803588867 0 Z" stroke="none" fill="#fff"/>
              </g>
            </g>
            <g id="Path_874923" data-name="Path 874923" transform="translate(0 0)" fill="none">
              <path d="M45.457,0A45.457,45.457,0,0,1,90.914,45.457h0A45.457,45.457,0,0,1,0,45.457H0A45.457,45.457,0,0,1,45.457,0Z" stroke="none"/>
              <path d="M 45.45676803588867 3 C 39.72381210327148 3 34.1639404296875 4.12213134765625 28.93159484863281 6.335227966308594 C 23.87622833251953 8.473472595214844 19.33542633056641 11.53517150878906 15.43529510498047 15.435302734375 C 11.53517150878906 19.33543395996094 8.473464965820312 23.87622833251953 6.335227966308594 28.93160247802734 C 4.122123718261719 34.16394424438477 3 39.72381591796875 3 45.4572868347168 C 3 51.19024658203125 4.122123718261719 56.75011825561523 6.335227966308594 61.98246002197266 C 8.473464965820312 67.03782653808594 11.53517150878906 71.57862854003906 15.43529510498047 75.478759765625 C 19.33542633056641 79.37889099121094 23.87622833251953 82.44058990478516 28.93159484863281 84.57883453369141 C 34.1639404296875 86.79193115234375 39.72381210327148 87.9140625 45.45676803588867 87.9140625 C 51.18972396850586 87.9140625 56.74959564208984 86.79193115234375 61.98194122314453 84.57883453369141 C 67.03730773925781 82.44058990478516 71.57810974121094 79.37889099121094 75.47824096679688 75.478759765625 C 79.37837219238281 71.57862854003906 82.44007110595703 67.03782653808594 84.57830810546875 61.98246002197266 C 86.79141235351562 56.75011825561523 87.91353607177734 51.19024658203125 87.91353607177734 45.4567756652832 C 87.91353607177734 39.72381591796875 86.79141235351562 34.16394424438477 84.57830810546875 28.93160247802734 C 82.44007110595703 23.87622833251953 79.37837219238281 19.33543395996094 75.47824096679688 15.435302734375 C 71.57810974121094 11.53517150878906 67.03730773925781 8.473472595214844 61.98194122314453 6.335227966308594 C 56.74959564208984 4.12213134765625 51.18972396850586 3 45.45676803588867 3 M 45.45676803588867 0 C 70.56185150146484 0 90.91353607177734 20.35169219970703 90.91353607177734 45.4567756652832 L 90.91353607177734 45.4572868347168 C 90.91353607177734 70.5623779296875 70.56185150146484 90.9140625 45.45676803588867 90.9140625 C 20.3516845703125 90.9140625 0 70.5623779296875 0 45.4572868347168 L 0 45.4567756652832 C 0 20.35169219970703 20.3516845703125 0 45.45676803588867 0 Z" stroke="none" fill="#fff"/>
            </g>
          </g>
        </g>
      </g>
    </g>
    <g id="zapato" transform="translate(303.961 660.001)">
      <path id="Path_1034289" data-name="Path 1034289" d="M27.976,28.341c-.026.284-.061.542-.086.774-.095.86-.181,1.36-.181,1.36C26.943,33.8,27.3,50.815,27.3,50.815s1.291,10.119-6.169,10.4A7.3,7.3,0,0,1,13.1,54.653L9.812,39.234a27.48,27.48,0,0,1-1.755-8.871A24.72,24.72,0,0,1,8.186,26.8a47.151,47.151,0,0,1,1.351-7.443C12.358,9.006,18.166,5.5,23.312,9.419c2.565,1.953,3.846,5.24,4.432,8.656.026.138.052.267.069.4.146.9.249,1.815.31,2.7A44.186,44.186,0,0,1,27.976,28.341Zm0,0" transform="translate(-7.141 -7.011)" fill="#ab947f"/>
      <path id="Path_1034290" data-name="Path 1034290" d="M40.217,18.428c-1.79,1.178-10.377,6.273-18.267.929C24.771,9.006,30.579,5.5,35.725,9.419,38.375,11.442,39.657,14.892,40.217,18.428Zm0,0" transform="translate(-19.554 -7.011)" fill="#715b47"/>
      <path id="Path_1034291" data-name="Path 1034291" d="M21.481,15.606a14.462,14.462,0,0,1-8.26-2.533l-.509-.344.162-.593C14.613,5.757,17.554,1.575,21.155.355A7.174,7.174,0,0,1,28,1.738c2.5,1.9,4.117,5.12,4.818,9.558l.086.548-.464.305A21.294,21.294,0,0,1,21.481,15.606Zm-6.775-3.625c6.752,4.143,14.025.43,16.322-.972-.67-3.7-2.037-6.353-4.07-7.9A5.457,5.457,0,0,0,21.71,1.988C18.816,2.964,16.282,6.593,14.705,11.982Zm0,0" transform="translate(-11.309 -0.014)"/>
      <path id="Path_1034292" data-name="Path 1034292" d="M257.83,30.393a27.192,27.192,0,0,1-1.755,8.854l-3.287,15.419a7.29,7.29,0,0,1-8.019,6.566c-7.46-.284-6.178-10.4-6.178-10.4s.361-17.019-.413-20.341c0,0-.095-.525-.2-1.42a41.079,41.079,0,0,1,.1-10.626c.017-.138.043-.267.068-.4.594-3.39,1.876-6.66,4.423-8.6,5.042-3.846,10.738-.542,13.613,9.353.051.2.112.4.163.594a47.083,47.083,0,0,1,1.351,7.434A24.961,24.961,0,0,1,257.83,30.393Zm0,0" transform="translate(-212.085 -7.025)" fill="#ab947f"/>
      <path id="Path_1034293" data-name="Path 1034293" d="M275.469,349.233v7.252a4.312,4.312,0,0,0,8.594.5l.931-8.026Zm0,0" transform="translate(-245.806 -311.426)" fill="#c6c5ca"/>
      <path id="Path_1034294" data-name="Path 1034294" d="M259.658,19.368c-7.9,5.335-16.5.232-18.267-.938.559-3.537,1.841-6.987,4.491-9.009C251.027,5.5,256.844,9.008,259.658,19.368Zm0,0" transform="translate(-215.393 -7.013)" fill="#715b47"/>
      <path id="Path_1034295" data-name="Path 1034295" d="M244.1,15.6a21.15,21.15,0,0,1-10.954-3.47l-.46-.305.086-.547c.7-4.438,2.323-7.654,4.819-9.558A7.163,7.163,0,0,1,244.442.342c3.6,1.222,6.54,5.409,8.276,11.788l.161.594-.509.344A14.517,14.517,0,0,1,244.1,15.6ZM234.566,11c2.291,1.4,9.542,5.134,16.324.979-1.575-5.393-4.105-9.026-7-10.005a5.532,5.532,0,0,0-5.256,1.118C236.6,4.643,235.234,7.3,234.566,11Zm0,0" transform="translate(-207.622 0)"/>
      <path id="Path_1034296" data-name="Path 1034296" d="M250.619,128.048a2.153,2.153,0,0,1,.654.869l-.477.35c-3.416,1.549-7.572.374-9.048-.074l-.06-.086a2.31,2.31,0,0,1,.74-1.661l1.351-1.247a3.529,3.529,0,0,0,1.119-2.341l.516-7.417a1.4,1.4,0,0,0-.9-1.394l-6.531-1.618a41.079,41.079,0,0,1,.1-10.626c.017-.138.043-.267.068-.4,3.115,1.618,11.255,4.741,18.035.749.051.2.112.4.163.594a47.084,47.084,0,0,1,1.351,7.434,24.961,24.961,0,0,1,.129,3.579l-8.14.671a1.392,1.392,0,0,0-1.273,1.334l-.284,7.452a3.528,3.528,0,0,0,1.3,2.874Zm0,0" transform="translate(-212.085 -91.386)" fill="#96795f"/>
      <path id="Path_1034297" data-name="Path 1034297" d="M78.787,349.715v7.252a4.311,4.311,0,0,1-8.594.5l-.931-8.026Zm0,0" transform="translate(-61.778 -311.855)" fill="#c6c5ca"/>
      <path id="Path_1034298" data-name="Path 1034298" d="M28.048,113.144c-.026.284-.061.542-.086.774l-6.505,1.609a1.4,1.4,0,0,0-.9,1.394l.516,7.417a3.529,3.529,0,0,0,1.119,2.341l1.351,1.247a2.31,2.31,0,0,1,.74,1.661l-.06.086c-1.48.447-5.627,1.626-9.043.077l-.482-.353a2.153,2.153,0,0,1,.654-.869l1.187-.964a3.528,3.528,0,0,0,1.3-2.874l-.284-7.452a1.392,1.392,0,0,0-1.273-1.334l-8.14-.671a24.959,24.959,0,0,1,.129-3.579,47.083,47.083,0,0,1,1.351-7.434c.052-.2.112-.4.164-.594,6.78,3.992,14.92.869,18.035-.749.026.138.052.267.069.4.146.9.249,1.815.31,2.7A44.186,44.186,0,0,1,28.048,113.144Zm0,0" transform="translate(-7.213 -91.815)" fill="#96795f"/>
      <path id="Path_1034299" data-name="Path 1034299" d="M251.593,23.429c.019-.531.013-1.066,0-1.6-.018-.7-.058-1.4-.132-2.1a50.032,50.032,0,0,0-1.056-6.277c-.1-.43-.2-.867-.317-1.283l-.163-.594,0-.008v-.017C248.154,5.481,245.253,1.5,241.747.35a7.186,7.186,0,0,0-6.792,1.4c-2.409,1.841-4.009,4.916-4.762,9.211v.016c-.023.116-.04.237-.057.328-.151.936-.25,1.878-.316,2.808a45.335,45.335,0,0,0,.21,8.055c.106.93.206,1.474.214,1.517.592,2.537.516,14.222.392,20.085-.069.6-.595,5.91,2.076,9.057a6.5,6.5,0,0,0,4.93,2.266c.164.007.326.009.485.009a8.132,8.132,0,0,0,8.418-7.295l3.264-15.316a27.971,27.971,0,0,0,1.786-9.054Zm-11.1,1.67a9.876,9.876,0,0,0-1.319-.033,2.266,2.266,0,0,0-1.462-2.187l-.095-.026-5.942-1.47c-.011-.115-.024-.224-.035-.344-.007-.08-.014-.16-.021-.242-.021-.25-.041-.516-.06-.774-.01-.134-.02-.268-.029-.4-.014-.231-.026-.471-.037-.71-.008-.166-.016-.329-.023-.5-.009-.242-.013-.493-.017-.742s-.009-.516-.009-.785c0-.307,0-.617.008-.932,0-.186.014-.375.021-.563.009-.252.019-.5.034-.76.011-.191.026-.384.041-.576q.029-.389.068-.78c.019-.187.04-.374.063-.561.016-.127.034-.254.052-.381,2.982,1.334,10.277,3.925,16.8.738.029.111.056.225.086.337.1.388.193.774.281,1.181.036.166.068.338.1.507.082.4.163.8.237,1.209.034.188.062.384.093.575.066.393.132.785.189,1.19q.128.908.228,1.847c.057.526.091,1.054.114,1.582.006.144.007.287.01.43.006.229,0,.456,0,.684l-7.358.6a2.264,2.264,0,0,0-2.02,1.889Zm1.3,11.3.439.353.68.551a12.056,12.056,0,0,1-7.34-.095,1.363,1.363,0,0,1,.155-.267,1.192,1.192,0,0,1,.189-.224l1.351-1.247a4.357,4.357,0,0,0,1.358-2.687,8.438,8.438,0,0,1,1.549.019v.018A4.418,4.418,0,0,0,241.793,36.4Zm-6.282,2.564a17.474,17.474,0,0,0,4.268.585,10.7,10.7,0,0,0,3.356-.5l-.748,6.437a3.449,3.449,0,0,1-6.875-.4Zm3.255-7.916.086-1.253a8.286,8.286,0,0,1,1.436.026l-.047,1.251a10.046,10.046,0,0,0-1.475-.026Zm.207-2.988.086-1.255a8.327,8.327,0,0,1,1.342.03l-.047,1.253a9.839,9.839,0,0,0-1.381-.03ZM236,3.118a6.019,6.019,0,0,1,3.653-1.389,4.976,4.976,0,0,1,1.557.254c2.788.919,5.264,4.326,6.847,9.369-6.282,3.257-13.577.371-16.023-.794C232.734,7.107,234.061,4.6,236,3.118Zm8.85,44.371-.016.11c-.019.245-.581,6.012-7.129,5.775a4.783,4.783,0,0,1-3.679-1.656c-2.283-2.686-1.684-7.729-1.677-7.78l.006-.086c.015-.7.355-17.167-.43-20.513,0,0-.009-.053-.021-.127l5.24,1.3a.536.536,0,0,1,.31.516l-.016.235a13.88,13.88,0,0,0-2.958.882l.708,1.568a12.53,12.53,0,0,1,2.125-.662l-.086,1.212a13.755,13.755,0,0,0-2.865.867l.709,1.568a12.5,12.5,0,0,1,2.031-.64l-.086,1.21a13.817,13.817,0,0,0-2.77.847l.708,1.569a12.153,12.153,0,0,1,1.849-.6,2.646,2.646,0,0,1-.705,1.135l-1.351,1.247a3.142,3.142,0,0,0-1.015,2.281.809.809,0,0,0,.06.318v7.03a5.171,5.171,0,0,0,10.308.594l.929-8.02a.825.825,0,0,0-.06-.43.9.9,0,0,0-.061-.129,2.96,2.96,0,0,0-.843-1.084l-1.187-.964a2.657,2.657,0,0,1-.952-1.807,4.775,4.775,0,0,1,1.093.657l1.086-1.336a6.613,6.613,0,0,0-2.151-1.151L242,30.242a4.786,4.786,0,0,1,1.136.676l1.086-1.335a6.6,6.6,0,0,0-2.151-1.152l.045-1.174a4.747,4.747,0,0,1,1.138.678l1.085-1.336a6.6,6.6,0,0,0-2.151-1.152v-.012a.522.522,0,0,1,.482-.508l7.142-.589a26.225,26.225,0,0,1-1.635,7.606Zm0,0" transform="translate(-204.988 -0.026)"/>
      <path id="Path_1034300" data-name="Path 1034300" d="M21.842,14.125c-.044-.674-.123-1.352-.216-2.021-.033-.243-.062-.49-.1-.73a.49.49,0,0,0-.012-.072c-.013-.1-.031-.2-.052-.31,0-.02-.006-.037-.011-.057-.727-4.251-2.328-7.346-4.757-9.2A7.174,7.174,0,0,0,9.846.355c-3.6,1.22-6.539,5.4-8.281,11.779A48.25,48.25,0,0,0,.188,19.712,25.729,25.729,0,0,0,.055,23.39a28.265,28.265,0,0,0,1.787,9.088L5.107,47.794a8.141,8.141,0,0,0,8.426,7.295c.159,0,.321,0,.486-.009a6.491,6.491,0,0,0,4.928-2.266c2.667-3.146,2.139-8.455,2.065-9.057-.121-5.864-.192-17.553.4-20.134,0,0,.09-.516.188-1.41l.024-.21c.008-.063.015-.137.022-.2.015-.125.029-.245.045-.379A45.787,45.787,0,0,0,21.842,14.125Zm-7.9,8.794a2.266,2.266,0,0,0-1.463,2.136,9.87,9.87,0,0,0-1.328.034,2.267,2.267,0,0,0-2.019-1.843l-7.358-.6v-.331c.009-.787.046-1.579.129-2.372A48.152,48.152,0,0,1,3.117,13.1c6.526,3.19,13.825.6,16.806-.737.008.065.018.129.026.193.072.563.131,1.126.172,1.689.034.478.053.946.066,1.415.028,1.01.016,1.979-.02,2.866-.042,1.04-.115,1.979-.192,2.731v.064c0,.039-.009.071-.012.109l-5.927,1.462Zm.447,12.589,1.351,1.247a2.509,2.509,0,0,1,.2.224,1.168,1.168,0,0,1,.146.267,12.054,12.054,0,0,1-7.34.095l.68-.551.439-.352a4.42,4.42,0,0,0,1.618-3.58v-.07a8.355,8.355,0,0,1,1.544-.019A4.357,4.357,0,0,0,14.39,35.507Zm-2.521,4.078A17.6,17.6,0,0,0,16.145,39v6.126a3.449,3.449,0,0,1-6.875.4l-.749-6.436A10.628,10.628,0,0,0,11.869,39.585Zm-.456-8.531L11.37,29.8a8.387,8.387,0,0,1,1.434-.025l.086,1.254A9.966,9.966,0,0,0,11.413,31.054ZM11.3,28.069l-.047-1.253a8.2,8.2,0,0,1,1.34-.03l.086,1.256A9.868,9.868,0,0,0,11.3,28.069ZM10.4,1.985a4.921,4.921,0,0,1,1.6-.268,6.021,6.021,0,0,1,3.655,1.391c1.948,1.484,3.278,4,3.979,7.486-2.448,1.165-9.757,4.059-16.046.783C5.166,6.325,7.616,2.927,10.4,1.985Zm8.9,41.851.006.091c.007.051.618,5.077-1.668,7.775a4.78,4.78,0,0,1-3.682,1.66c-6.525.231-7.117-5.534-7.142-5.777l-3.3-15.527-.036-.123a26.616,26.616,0,0,1-1.629-7.558l7.142.589a.516.516,0,0,1,.483.471,6.591,6.591,0,0,0-2.151,1.15L8.4,27.924a4.777,4.777,0,0,1,1.14-.68l.045,1.176a6.6,6.6,0,0,0-2.151,1.152l1.084,1.335a4.78,4.78,0,0,1,1.139-.679L9.707,31.4a6.613,6.613,0,0,0-2.151,1.151L8.64,33.893a4.752,4.752,0,0,1,1.1-.661,2.659,2.659,0,0,1-.962,1.862L7.6,36.057a2.948,2.948,0,0,0-.912,1.213.821.821,0,0,0-.061.43l.929,8.028a5.171,5.171,0,0,0,10.308-.6V38.105a.847.847,0,0,0,.06-.327,3.141,3.141,0,0,0-1.015-2.28L15.56,34.251a2.709,2.709,0,0,1-.73-1.19,12.239,12.239,0,0,1,1.863.6l.708-1.569a13.751,13.751,0,0,0-2.77-.847l-.086-1.21a12.557,12.557,0,0,1,2.031.641l.709-1.568a13.8,13.8,0,0,0-2.865-.868l-.086-1.212a12.517,12.517,0,0,1,2.126.663l.708-1.568a13.876,13.876,0,0,0-2.959-.881l-.012-.172a.541.541,0,0,1,.31-.525l5.224-1.291-.005.032C18.949,26.675,19.28,43.137,19.295,43.836Zm0,0" transform="translate(0 -0.014)"/>
    </g>
  </g>
</svg>
