<svg xmlns="http://www.w3.org/2000/svg" xmlns:xlink="http://www.w3.org/1999/xlink" width="429" height="206" viewBox="0 0 429 206">
  <defs>
    <clipPath id="clip-path">
      <rect id="Rectangle_405468" data-name="Rectangle 405468" width="386.387" height="157.276" fill="none"/>
    </clipPath>
  </defs>
  <g id="Group_1177876" data-name="Group 1177876" transform="translate(4068 9727)">
    <g id="Group_1177873" data-name="Group 1177873" transform="translate(0 641)">
      <g id="Rectangle_405467" data-name="Rectangle 405467" transform="translate(-4068 -10368)" fill="none" stroke="#707070" stroke-width="1">
        <rect width="429" height="206" stroke="none"/>
        <rect x="0.5" y="0.5" width="428" height="205" fill="none"/>
      </g>
    </g>
    <g id="Group_1177875" data-name="Group 1177875" transform="translate(-4047 -9703)">
      <g id="Group_1177874" data-name="Group 1177874" transform="translate(0 0)" clip-path="url(#clip-path)">
        <path id="Path_1034365" data-name="Path 1034365" d="M25.064,137.378V39.469S110.9,25.387,146.443.574c0,0,40.411,18.688,57.671,24.813C266.482,47.517,328.462,9.63,357.684,46.847c0,0-28.836,50.295-144.85,69.741,0,0-43.305-12.067-55.377-9.386C157.457,107.2,44.512,141.4,25.064,137.378Z" transform="translate(19.582 0.448)" fill="none" stroke="#757474" stroke-miterlimit="10" stroke-width="1"/>
        <path id="Path_1034366" data-name="Path 1034366" d="M25.064,130.423C44.11,124.046,164.712,9.475,164.712,9.475l-53.291,109.8" transform="translate(19.582 7.402)" fill="none" stroke="#757474" stroke-miterlimit="10" stroke-width="1"/>
        <path id="Path_1034367" data-name="Path 1034367" d="M32.544,128.309C50.744,122.044,165.992,9.475,165.992,9.475L115.066,117.361" transform="translate(25.427 7.402)" fill="none" stroke="#d8006b" stroke-miterlimit="10" stroke-width="1"/>
        <path id="Path_1034368" data-name="Path 1034368" d="M25.064,57.114h198.5S306.94,87.387,344.383,21.9" transform="translate(19.582 17.11)" fill="none" stroke="#757474" stroke-miterlimit="10" stroke-width="1"/>
        <line id="Line_146" data-name="Line 146" y1="83.6" x2="23.531" transform="translate(232.415 33.437)" fill="none" stroke="#757474" stroke-miterlimit="10" stroke-width="1"/>
        <path id="Path_1034369" data-name="Path 1034369" d="M21.33,137.378V39.469S107.167,25.387,142.709.574c0,0,40.411,18.688,57.671,24.813,62.367,22.129,130.1-4.024,153.569,21.459,0,0-28.836,50.295-144.85,69.741,0,0-43.59-2.681-55.66,0C153.44,116.588,40.778,141.4,21.33,137.378Z" transform="translate(16.665 0.448)" fill="none" stroke="#d9000d" stroke-miterlimit="10" stroke-width="1"/>
        <path id="Path_1034370" data-name="Path 1034370" d="M25.064,60.114h198.5s84.111,9.977,120.82-35.213" transform="translate(19.582 19.454)" fill="none" stroke="#d8006b" stroke-miterlimit="10" stroke-width="1"/>
        <line id="Line_147" data-name="Line 147" x2="6.931" y2="76.897" transform="translate(255.947 33.437)" fill="none" stroke="#d8006b" stroke-miterlimit="10" stroke-width="1"/>
        <path id="Path_1034371" data-name="Path 1034371" d="M23.064,138.668V40.759S108.9,26.677,144.443,1.864c0,0,40.411,18.688,57.671,24.813C264.482,48.807,338.022,7.619,367.243,44.836c0,0-40.395,53.6-156.409,73.042,0,0-43.305-12.066-55.377-9.386C155.457,108.493,42.512,142.692,23.064,138.668Z" transform="translate(18.02 1.456)" fill="none" stroke="#0090df" stroke-miterlimit="10" stroke-width="1"/>
      </g>
    </g>
  </g>
</svg>
