<svg xmlns="http://www.w3.org/2000/svg" xmlns:xlink="http://www.w3.org/1999/xlink" width="429" height="206" viewBox="0 0 429 206">
  <defs>
    <clipPath id="clip-path">
      <rect id="Rectangle_405466" data-name="Rectangle 405466" width="362.313" height="147.755" fill="none"/>
    </clipPath>
  </defs>
  <g id="Group_1177872" data-name="Group 1177872" transform="translate(4068 10368)">
    <g id="Group_1177870" data-name="Group 1177870" transform="translate(-4030 -10340)" clip-path="url(#clip-path)">
      <path id="Path_1034359" data-name="Path 1034359" d="M4.234,145.829V41.871S95.374,26.92,133.11.574c0,0,42.909,19.842,61.234,26.346C260.565,50.416,326.374,10.19,357.4,49.705c0,0-30.617,53.4-153.8,74.05,0,0-45.982-12.812-58.8-9.965C144.8,113.79,24.884,150.1,4.234,145.829Z" transform="translate(3.774 0.512)" fill="none" stroke="#757474" stroke-miterlimit="10" stroke-width="1"/>
      <path id="Path_1034360" data-name="Path 1034360" d="M4.234,137.9C24.456,131.124,152.509,9.475,152.509,9.475L95.926,126.063" transform="translate(3.774 8.446)" fill="none" stroke="#757474" stroke-miterlimit="10" stroke-width="1"/>
      <path id="Path_1034361" data-name="Path 1034361" d="M11.714,135.65C31.038,129,153.406,9.475,153.406,9.475L99.334,124.026" transform="translate(10.441 8.446)" fill="none" stroke="#d8006b" stroke-miterlimit="10" stroke-width="1"/>
      <path id="Path_1034362" data-name="Path 1034362" d="M4.234,59.289H214.993S303.523,91.432,343.277,21.9" transform="translate(3.774 19.521)" fill="none" stroke="#757474" stroke-miterlimit="10" stroke-width="1"/>
      <line id="Line_144" data-name="Line 144" y1="88.764" x2="24.985" transform="translate(207.376 35.504)" fill="none" stroke="#757474" stroke-miterlimit="10" stroke-width="1"/>
      <path id="Path_1034363" data-name="Path 1034363" d="M.5,145.829V41.871S91.64,26.92,129.378.574c0,0,42.907,19.842,61.234,26.346,66.22,23.5,138.136-4.273,163.056,22.785,0,0-30.617,53.4-153.8,74.05,0,0-46.283-2.846-59.1,0C140.771,123.755,21.15,150.1.5,145.829Z" transform="translate(0.446 0.512)" fill="none" stroke="#d9000d" stroke-miterlimit="10" stroke-width="1"/>
      <path id="Path_1034364" data-name="Path 1034364" d="M4.234,62.289H214.993S304.3,72.882,343.277,24.9" transform="translate(3.774 22.195)" fill="none" stroke="#d8006b" stroke-miterlimit="10" stroke-width="1"/>
      <line id="Line_145" data-name="Line 145" x2="7.359" y2="81.647" transform="translate(232.362 35.504)" fill="none" stroke="#d8006b" stroke-miterlimit="10" stroke-width="1"/>
    </g>
    <g id="Rectangle_405467" data-name="Rectangle 405467" transform="translate(-4068 -10368)" fill="none" stroke="#707070" stroke-width="1">
      <rect width="429" height="206" stroke="none"/>
      <rect x="0.5" y="0.5" width="428" height="205" fill="none"/>
    </g>
  </g>
</svg>
