<svg xmlns="http://www.w3.org/2000/svg" xmlns:xlink="http://www.w3.org/1999/xlink" width="108.914" height="108.914" viewBox="0 0 108.914 108.914">
  <defs>
    <filter id="Path_874925" x="0" y="0" width="108.914" height="108.914" filterUnits="userSpaceOnUse">
      <feOffset dy="3" input="SourceAlpha"/>
      <feGaussianBlur stdDeviation="3" result="blur"/>
      <feFlood flood-opacity="0.161"/>
      <feComposite operator="in" in2="blur"/>
      <feComposite in="SourceGraphic"/>
    </filter>
  </defs>
  <g id="Group_1177847" data-name="Group 1177847" transform="translate(-799.5 -2534.157)">
    <g id="Group_1111316" data-name="Group 1111316" transform="translate(0 587.946)">
      <g id="Group_1109835" data-name="Group 1109835">
        <g id="Group_1107913" data-name="Group 1107913" transform="translate(808.5 1952.211)">
          <g transform="matrix(1, 0, 0, 1, -9, -6)" filter="url(#Path_874925)">
            <g id="Path_874925-2" data-name="Path 874925" transform="translate(9 6)" fill="#d8cabd" opacity="0.859">
              <path d="M 45.45676803588867 89.41407012939453 C 39.52198028564453 89.41407012939453 33.76551818847656 88.25206756591797 28.34726715087891 85.96034240722656 C 23.11311721801758 83.74648284912109 18.41204261779785 80.57682800292969 14.37464332580566 76.5394287109375 C 10.33724308013916 72.50202941894531 7.167593002319336 67.80095672607422 4.953730583190918 62.56679534912109 C 2.662005424499512 57.14855575561523 1.500005483627319 51.39208221435547 1.500005483627319 45.45729446411133 C 1.500005483627319 39.52198028564453 2.662005424499512 33.76551818847656 4.953730583190918 28.34726905822754 C 7.167593002319336 23.11310577392578 10.33724308013916 18.41203117370605 14.37464332580566 14.37464332580566 C 18.41204261779785 10.33724403381348 23.11311721801758 7.167593955993652 28.34726715087891 4.953731060028076 C 33.76551818847656 2.662006139755249 39.52198028564453 1.500006198883057 45.45676803588867 1.500006198883057 C 51.39155578613281 1.500006198883057 57.14802932739258 2.662006139755249 62.56626892089844 4.953731060028076 C 67.80043029785156 7.167593955993652 72.50150299072266 10.33724403381348 76.53890228271484 14.37464332580566 C 80.57630920410156 18.41203117370605 83.74595642089844 23.11310577392578 85.95981597900391 28.34726905822754 C 88.25154113769531 33.76551818847656 89.41354370117188 39.52198028564453 89.41354370117188 45.45676803588867 C 89.41354370117188 51.39208221435547 88.25154113769531 57.14855575561523 85.95981597900391 62.56679534912109 C 83.74595642089844 67.80095672607422 80.57630920410156 72.50202941894531 76.53890228271484 76.5394287109375 C 72.50150299072266 80.57682800292969 67.80043029785156 83.74648284912109 62.56626892089844 85.96034240722656 C 57.14802932739258 88.25206756591797 51.39155578613281 89.41407012939453 45.45676803588867 89.41407012939453 Z" stroke="none"/>
              <path d="M 45.45676803588867 3 C 39.72381210327148 3 34.1639404296875 4.12213134765625 28.93159484863281 6.335227966308594 C 23.87622833251953 8.473472595214844 19.33542633056641 11.53517150878906 15.43529510498047 15.435302734375 C 11.53517150878906 19.33543395996094 8.473464965820312 23.87622833251953 6.335227966308594 28.93160247802734 C 4.122123718261719 34.16394424438477 3 39.72381591796875 3 45.4572868347168 C 3 51.19024658203125 4.122123718261719 56.75011825561523 6.335227966308594 61.98246002197266 C 8.473464965820312 67.03782653808594 11.53517150878906 71.57862854003906 15.43529510498047 75.478759765625 C 19.33542633056641 79.37889099121094 23.87622833251953 82.44058990478516 28.93159484863281 84.57883453369141 C 34.1639404296875 86.79193115234375 39.72381210327148 87.9140625 45.45676803588867 87.9140625 C 51.18972396850586 87.9140625 56.74959564208984 86.79193115234375 61.98194122314453 84.57883453369141 C 67.03730773925781 82.44058990478516 71.57810974121094 79.37889099121094 75.47824096679688 75.478759765625 C 79.37837219238281 71.57862854003906 82.44007110595703 67.03782653808594 84.57830810546875 61.98246002197266 C 86.79141235351562 56.75011825561523 87.91353607177734 51.19024658203125 87.91353607177734 45.4567756652832 C 87.91353607177734 39.72381591796875 86.79141235351562 34.16394424438477 84.57830810546875 28.93160247802734 C 82.44007110595703 23.87622833251953 79.37837219238281 19.33543395996094 75.47824096679688 15.435302734375 C 71.57810974121094 11.53517150878906 67.03730773925781 8.473472595214844 61.98194122314453 6.335227966308594 C 56.74959564208984 4.12213134765625 51.18972396850586 3 45.45676803588867 3 M 45.45676803588867 0 C 70.56185150146484 0 90.91353607177734 20.35169219970703 90.91353607177734 45.4567756652832 L 90.91353607177734 45.4572868347168 C 90.91353607177734 70.5623779296875 70.56185150146484 90.9140625 45.45676803588867 90.9140625 C 20.3516845703125 90.9140625 0 70.5623779296875 0 45.4572868347168 L 0 45.4567756652832 C 0 20.35169219970703 20.3516845703125 0 45.45676803588867 0 Z" stroke="none" fill="#fff"/>
            </g>
          </g>
          <g id="Path_874923" data-name="Path 874923" transform="translate(0 0)" fill="none">
            <path d="M45.457,0A45.457,45.457,0,0,1,90.914,45.457h0A45.457,45.457,0,0,1,0,45.457H0A45.457,45.457,0,0,1,45.457,0Z" stroke="none"/>
            <path d="M 45.45676803588867 3 C 39.72381210327148 3 34.1639404296875 4.12213134765625 28.93159484863281 6.335227966308594 C 23.87622833251953 8.473472595214844 19.33542633056641 11.53517150878906 15.43529510498047 15.435302734375 C 11.53517150878906 19.33543395996094 8.473464965820312 23.87622833251953 6.335227966308594 28.93160247802734 C 4.122123718261719 34.16394424438477 3 39.72381591796875 3 45.4572868347168 C 3 51.19024658203125 4.122123718261719 56.75011825561523 6.335227966308594 61.98246002197266 C 8.473464965820312 67.03782653808594 11.53517150878906 71.57862854003906 15.43529510498047 75.478759765625 C 19.33542633056641 79.37889099121094 23.87622833251953 82.44058990478516 28.93159484863281 84.57883453369141 C 34.1639404296875 86.79193115234375 39.72381210327148 87.9140625 45.45676803588867 87.9140625 C 51.18972396850586 87.9140625 56.74959564208984 86.79193115234375 61.98194122314453 84.57883453369141 C 67.03730773925781 82.44058990478516 71.57810974121094 79.37889099121094 75.47824096679688 75.478759765625 C 79.37837219238281 71.57862854003906 82.44007110595703 67.03782653808594 84.57830810546875 61.98246002197266 C 86.79141235351562 56.75011825561523 87.91353607177734 51.19024658203125 87.91353607177734 45.4567756652832 C 87.91353607177734 39.72381591796875 86.79141235351562 34.16394424438477 84.57830810546875 28.93160247802734 C 82.44007110595703 23.87622833251953 79.37837219238281 19.33543395996094 75.47824096679688 15.435302734375 C 71.57810974121094 11.53517150878906 67.03730773925781 8.473472595214844 61.98194122314453 6.335227966308594 C 56.74959564208984 4.12213134765625 51.18972396850586 3 45.45676803588867 3 M 45.45676803588867 0 C 70.56185150146484 0 90.91353607177734 20.35169219970703 90.91353607177734 45.4567756652832 L 90.91353607177734 45.4572868347168 C 90.91353607177734 70.5623779296875 70.56185150146484 90.9140625 45.45676803588867 90.9140625 C 20.3516845703125 90.9140625 0 70.5623779296875 0 45.4572868347168 L 0 45.4567756652832 C 0 20.35169219970703 20.3516845703125 0 45.45676803588867 0 Z" stroke="none" fill="#fff"/>
          </g>
        </g>
      </g>
    </g>
    <g id="thread_7242211" transform="translate(827.538 2559.195)">
      <g id="Group_1111505" data-name="Group 1111505" transform="translate(0.852 1.159)">
        <g id="Group_1111486" data-name="Group 1111486" transform="translate(40.907 24.803)">
          <path id="Path_900438" data-name="Path 900438" d="M395.409,243.72V255.4c0,.184-.009.368-.027.55a5.816,5.816,0,0,1-1.678,3.566,5.818,5.818,0,0,1-1.691-3.718c-.01-.132-.014-.264-.014-.4V243.72a3.414,3.414,0,0,0,3.409,0Z" transform="translate(-392 -243.72)" fill="#e6e9ed"/>
        </g>
        <g id="Group_1111487" data-name="Group 1111487" transform="translate(18.449 15.885)">
          <path id="Path_900439" data-name="Path 900439" d="M181.18,167.118l.531.673h0a26.683,26.683,0,0,1,6.587,1.119h0V160Z" transform="translate(-181.18 -160)" fill="#e6e9ed"/>
        </g>
        <g id="Group_1111488" data-name="Group 1111488" transform="translate(5.113 6.975)">
          <path id="Path_900440" data-name="Path 900440" d="M74.641,76.855a37.117,37.117,0,0,1-5.8.682h0L56,90.383V92.3a26.332,26.332,0,0,1,3.409-.213v-.852a1.676,1.676,0,0,1,.151-.7,1.7,1.7,0,0,1,1.553-1h3.074a5.938,5.938,0,0,1,2.39.5l9.875-9.875v-3.8h0A14.468,14.468,0,0,1,74.641,76.855Z" transform="translate(-56 -76.36)" fill="#e6e9ed"/>
        </g>
        <g id="Group_1111489" data-name="Group 1111489" transform="translate(5.113 6.975)">
          <path id="Path_900441" data-name="Path 900441" d="M63.726,77.544,56,85.27V76.361h0A29.258,29.258,0,0,0,63.726,77.544Z" transform="translate(-56 -76.36)" fill="#e6e9ed"/>
        </g>
        <g id="Group_1111490" data-name="Group 1111490" transform="translate(15.692 14.181)">
          <path id="Path_900442" data-name="Path 900442" d="M164.323,146.557l-2.557,2.557-3.709,3.709-.464-.588a5.958,5.958,0,0,0-2.293-1.768l1.353-1.353,2.557-2.557L161.766,144Z" transform="translate(-155.3 -144)" fill="#ccd1d9"/>
        </g>
        <g id="Group_1111491" data-name="Group 1111491" transform="translate(22.158 10.772)">
          <path id="Path_900443" data-name="Path 900443" d="M219.409,112.852v4.261l-.852.852L216,115.409,219.409,112Z" transform="translate(-216 -112)" fill="#ccd1d9"/>
        </g>
        <g id="Group_1111492" data-name="Group 1111492" transform="translate(5.113 8.152)">
          <path id="Path_900444" data-name="Path 900444" d="M68.845,87.41h0l-.914.914-2.557,2.557-2.557,2.557L60.261,96,57.7,98.552l-1.7,1.7V95.143l7.726-7.726c.806.037,1.643.056,2.5.056C67.126,87.473,68,87.452,68.845,87.41Z" transform="translate(-56 -87.41)" fill="#ccd1d9"/>
        </g>
        <g id="Group_1111493" data-name="Group 1111493" transform="translate(34.941 42.304)">
          <path id="Path_900445" data-name="Path 900445" d="M351.694,408.5a1.7,1.7,0,0,1-1.206,2.91H336c5.746,0,9.252-1.922,11.1-3.409h3.383A1.7,1.7,0,0,1,351.694,408.5Z" transform="translate(-336 -408)" fill="#ccd1d9"/>
        </g>
        <g id="Group_1111494" data-name="Group 1111494" transform="translate(0 44.008)">
          <path id="Path_900446" data-name="Path 900446" d="M58.635,425.206a1.7,1.7,0,0,0,.5-1.206,6.817,6.817,0,0,1-6.818,6.818H26.749a2.554,2.554,0,0,1-1.534-.511l-2.727-2.045-.946,1.418a2.555,2.555,0,0,1-2.126,1.139H10.909A2.91,2.91,0,0,1,8,427.909v-2.2H57.429A1.7,1.7,0,0,0,58.635,425.206Z" transform="translate(-8 -424)" fill="#aab2bd"/>
        </g>
        <g id="Group_1111495" data-name="Group 1111495" transform="translate(0 25.259)">
          <path id="Path_900447" data-name="Path 900447" d="M54.046,265.044c-1.853,1.487-5.358,3.409-11.1,3.409H26.749l-3.208-6.415a6.9,6.9,0,0,0-6.167-3.812H8V248c0,1.411,3.816,2.557,8.522,2.557a39.117,39.117,0,0,0,6.854-.52l.39.52a21.306,21.306,0,0,0,17.044,8.522h2.434a21.3,21.3,0,0,0,3.455.442l2.221.1a5.818,5.818,0,0,0,1.691,3.718,5.816,5.816,0,0,0,1.678-3.565l.976.045a2.577,2.577,0,0,1,1.719,4.383,10.893,10.893,0,0,1-.939.843Z" transform="translate(-8 -248)" fill="#dfb28b"/>
        </g>
        <g id="Group_1111496" data-name="Group 1111496" transform="translate(39.202 18.442)">
          <path id="Path_900448" data-name="Path 900448" d="M381.113,190.362a3.409,3.409,0,1,1,1.7-2.953A3.4,3.4,0,0,1,381.113,190.362Z" transform="translate(-376 -184)" fill="#ff826e"/>
        </g>
        <g id="Group_1111497" data-name="Group 1111497" transform="translate(15.376 25.666)">
          <path id="Path_900449" data-name="Path 900449" d="M172.209,262.492h-2.434a21.306,21.306,0,0,1-17.044-8.522l-.39-.52a19.612,19.612,0,0,0,5.174-1.63l1.964,2.489.429.543a21.31,21.31,0,0,0,12.3,7.64Z" transform="translate(-152.34 -251.82)" fill="#ecc19c"/>
        </g>
        <g id="Group_1111498" data-name="Group 1111498" transform="translate(22.515 26.112)">
          <path id="Path_900450" data-name="Path 900450" d="M224.107,256v3.409c0,.553-.82,1.065-2.214,1.484a21.12,21.12,0,0,1-2.113-2.306l-.429-.543C222.239,257.577,224.107,256.835,224.107,256Z" transform="translate(-219.35 -256)" fill="#fcd770"/>
        </g>
        <g id="Group_1111499" data-name="Group 1111499" transform="translate(3.409 2.249)">
          <path id="Path_900451" data-name="Path 900451" d="M60.346,37.221a37.117,37.117,0,0,1-5.8.682c-.843.042-1.719.063-2.618.063-.858,0-1.694-.019-2.5-.056A29.259,29.259,0,0,1,41.7,36.726c-1.082-.385-1.7-.835-1.7-1.317V32c0,1.411,5.341,2.557,11.931,2.557S63.862,33.411,63.862,32v3.409c0,.482-.622.932-1.7,1.317A14.469,14.469,0,0,1,60.346,37.221Z" transform="translate(-40 -32)" fill="#fcd770"/>
        </g>
        <g id="Group_1111500" data-name="Group 1111500" transform="translate(18.98 23.676)">
          <path id="Path_900452" data-name="Path 900452" d="M194.461,235.575c0,.835-1.867,1.577-4.756,2.043l-1.964-2.489-1.57-1.99a26.683,26.683,0,0,1,6.587,1.119C193.839,234.643,194.461,235.094,194.461,235.575Z" transform="translate(-186.17 -233.14)" fill="#ffeaa7"/>
        </g>
        <g id="Group_1111501" data-name="Group 1111501" transform="translate(3.28 0)">
          <ellipse id="Ellipse_11602" data-name="Ellipse 11602" cx="11.886" cy="2.229" rx="11.886" ry="2.229" transform="translate(0)" fill="#ffeaa7"/>
        </g>
        <g id="Group_1111502" data-name="Group 1111502" transform="translate(8.522 20.146)">
          <path id="Path_900453" data-name="Path 900453" d="M98.458,203.53l1.57,1.99a19.614,19.614,0,0,1-5.174,1.63,39.118,39.118,0,0,1-6.854.52V201.7a1.676,1.676,0,0,1,.151-.7,1.7,1.7,0,0,1,1.553-1h3.074a5.974,5.974,0,0,1,4.683,2.269l.464.588.531.673Z" transform="translate(-88 -200)" fill="#d3a06c"/>
        </g>
        <g id="Group_1111503" data-name="Group 1111503" transform="translate(0 35.486)">
          <path id="Path_900454" data-name="Path 900454" d="M23.541,347.812l3.208,6.415H8V344h9.374A6.9,6.9,0,0,1,23.541,347.812Z" transform="translate(-8 -344)" fill="#e6e9ed"/>
        </g>
        <g id="Group_1111504" data-name="Group 1111504" transform="translate(0 22.703)">
          <path id="Path_900455" data-name="Path 900455" d="M16.522,224v5.113c-4.706,0-8.522-1.145-8.522-2.557,0-1.048,2.1-1.949,5.113-2.344A26.327,26.327,0,0,1,16.522,224Z" transform="translate(-8 -224)" fill="#cf9e76"/>
        </g>
      </g>
      <g id="Group_1111506" data-name="Group 1111506" transform="translate(0 0)">
        <path id="Path_900456" data-name="Path 900456" d="M50.281,42.611h-1.36a3.431,3.431,0,0,0-2.765-5.224l-.136-.006V26.417a4.26,4.26,0,0,0-1.7-7.582V17.9a.853.853,0,0,1,.852-.852h5.113a2.557,2.557,0,1,0,0-5.113H27.271V8.717c1.153-.508,1.7-1.13,1.7-1.9V3.409c0-1.192-1.324-2.032-4.168-2.641A43.142,43.142,0,0,0,16.192,0,43.142,43.142,0,0,0,7.577.768c-2.844.609-4.168,1.449-4.168,2.641V6.818c0,.769.551,1.391,1.7,1.9V23.34a16.408,16.408,0,0,0-2.01.455C1.044,24.413,0,25.3,0,26.419V49.076a3.762,3.762,0,0,0,3.762,3.762h8.505A3.4,3.4,0,0,0,15.1,51.32l.446-.669,2.006,1.5a3.432,3.432,0,0,0,2.045.682H45.168a7.679,7.679,0,0,0,7.67-7.67A2.56,2.56,0,0,0,50.281,42.611Zm.852,2.557a.853.853,0,0,1-.852.852H44.346a14.738,14.738,0,0,0,2.848-1.7h3.087A.853.853,0,0,1,51.133,45.168Zm-3.409-4.355a1.706,1.706,0,0,1-.494,1.209c-1.479,1.493-4.931,4-11.437,4H20.128l-2.972-5.944a7.7,7.7,0,0,0-6.929-4.282v1.7a6.01,6.01,0,0,1,5.4,3.34l2.591,5.182H1.7V37.5H5.113v-1.7H1.7V28.508a9.067,9.067,0,0,0,1.4.535,22.733,22.733,0,0,0,6.271.785,41.178,41.178,0,0,0,6.487-.442l.076.1A22.157,22.157,0,0,0,33.663,38.35h2.345a22.191,22.191,0,0,0,3.5.441l1.506.068a6.622,6.622,0,0,0,1.843,3.5l.6.6.6-.6a6.625,6.625,0,0,0,1.8-3.282l.214.01A1.722,1.722,0,0,1,47.725,40.812ZM6.818,17.4l7.213-7.213c.707.027,1.429.042,2.162.042l.5,0L6.818,20.1Zm8.522-3.409L19.248,17.9,17.9,19.248,13.989,15.34Zm8.382,14.4-1.995-2.527c3.363.383,5.02,1.03,5.465,1.406A8.653,8.653,0,0,1,23.722,28.389Zm-3.1-4.347,2.383-2.383,2.557,2.557v.593a30.746,30.746,0,0,0-4.94-.767Zm4.94-2.237-1.351-1.351L25.567,19.1Zm-6.2,1.082a6.832,6.832,0,0,0-1.422-1.28l5.061-5.061L24.361,17.9Zm-6.588-6.342,3.908,3.908-.357.357a6.839,6.839,0,0,0-2.181-.357h-.165L11.432,17.9Zm1.37,5.613A5.084,5.084,0,0,1,18.167,24.1l1.888,2.391c-1.984.817-4.814,1.548-9.828,1.623V23.01a.853.853,0,0,1,.852-.852Zm6.995,5.721,1.979,2.507a22.147,22.147,0,0,0,7.3,6,20.579,20.579,0,0,1-12.693-7.366,20.216,20.216,0,0,0,3.418-1.137Zm4.985,3.315q-.631-.624-1.21-1.307a12.291,12.291,0,0,0,2.347-.724V30.6A2.925,2.925,0,0,1,26.134,31.194Zm-.567-14.5L24.215,15.34l1.351-1.351Zm-5.113,0-3.908-3.908L17.9,11.432,21.8,15.34ZM19.1,10.227l.079-.079c1.034-.056,2.026-.142,2.957-.254l-1.685,1.685ZM10.227,19.1l1.351,1.351h-.5a2.545,2.545,0,0,0-1.622.582l-.582-.582ZM44.316,37.644a4.932,4.932,0,0,1-.852,2.785,4.932,4.932,0,0,1-.852-2.785V27.185a4.278,4.278,0,0,0,1.7,0Zm1.7-14.634a2.557,2.557,0,1,1-2.557-2.557A2.56,2.56,0,0,1,46.02,23.01Zm4.261-9.374a.852.852,0,1,1,0,1.7H45.168A2.56,2.56,0,0,0,42.611,17.9v.938a4.26,4.26,0,0,0-1.7,7.582V37.148l-1.317-.06a20.44,20.44,0,0,1-12.059-4.631,2.179,2.179,0,0,0,1.444-1.778V27.271c0-.93-.872-1.53-1.7-1.9V13.636ZM25.567,11.578,23.01,14.135l-1.351-1.351,3.374-3.374q.277-.062.534-.128ZM23.94,7.9a43.46,43.46,0,0,1-7.747.627A43.46,43.46,0,0,1,8.445,7.9C6.134,7.457,5.287,6.941,5.113,6.74V5.308a12.95,12.95,0,0,0,2.464.742,43.142,43.142,0,0,0,8.615.768,43.142,43.142,0,0,0,8.615-.768,12.965,12.965,0,0,0,2.464-.742V6.74C27.1,6.941,26.251,7.457,23.94,7.9ZM8.445,2.331A43.46,43.46,0,0,1,16.192,1.7a43.46,43.46,0,0,1,7.747.627,8.3,8.3,0,0,1,3.248,1.078A8.3,8.3,0,0,1,23.94,4.486a43.46,43.46,0,0,1-7.747.627,43.46,43.46,0,0,1-7.747-.627A8.3,8.3,0,0,1,5.2,3.409,8.3,8.3,0,0,1,8.445,2.331ZM7.577,9.459a33.9,33.9,0,0,0,4.181.588l-4.94,4.94V9.282q.36.092.759.177ZM6.818,22.511l.852-.852.894.894a2.558,2.558,0,0,0-.042.457v.012c-.582.017-1.152.051-1.7.1Zm1.7,2.216v3.383c-4.382-.13-6.653-1.238-6.815-1.692C1.869,25.965,4.14,24.857,8.522,24.727ZM45.168,51.133H19.6a1.715,1.715,0,0,1-1.023-.341l-3.448-2.586-1.445,2.168a1.7,1.7,0,0,1-1.418.759H3.762A2.057,2.057,0,0,1,1.7,49.076V47.725H50.281a2.581,2.581,0,0,0,.283-.016,5.973,5.973,0,0,1-5.4,3.425Z" transform="translate(0 0)"/>
        <path id="Path_900457" data-name="Path 900457" d="M64,336h1.7v1.7H64Z" transform="translate(-57.182 -300.207)"/>
      </g>
    </g>
  </g>
</svg>
