<svg xmlns="http://www.w3.org/2000/svg" xmlns:xlink="http://www.w3.org/1999/xlink" width="108.914" height="108.914" viewBox="0 0 108.914 108.914">
  <defs>
    <filter id="Path_874925" x="0" y="0" width="108.914" height="108.914" filterUnits="userSpaceOnUse">
      <feOffset dy="3" input="SourceAlpha"/>
      <feGaussianBlur stdDeviation="3" result="blur"/>
      <feFlood flood-opacity="0.161"/>
      <feComposite operator="in" in2="blur"/>
      <feComposite in="SourceGraphic"/>
    </filter>
  </defs>
  <g id="Group_1177837" data-name="Group 1177837" transform="translate(-2501 10808)">
    <g id="Group_1177834" data-name="Group 1177834" transform="translate(1701.5 -13342.157)">
      <g id="Group_1111316" data-name="Group 1111316" transform="translate(0 587.946)">
        <g id="Group_1109835" data-name="Group 1109835">
          <g id="Group_1107913" data-name="Group 1107913" transform="translate(808.5 1952.211)">
            <g transform="matrix(1, 0, 0, 1, -9, -6)" filter="url(#Path_874925)">
              <g id="Path_874925-2" data-name="Path 874925" transform="translate(9 6)" fill="#d8cabd" opacity="0.859">
                <path d="M 45.45676803588867 89.41407012939453 C 39.52198028564453 89.41407012939453 33.76551818847656 88.25206756591797 28.34726715087891 85.96034240722656 C 23.11311721801758 83.74648284912109 18.41204261779785 80.57682800292969 14.37464332580566 76.5394287109375 C 10.33724308013916 72.50202941894531 7.167593002319336 67.80095672607422 4.953730583190918 62.56679534912109 C 2.662005424499512 57.14855575561523 1.500005483627319 51.39208221435547 1.500005483627319 45.45729446411133 C 1.500005483627319 39.52198028564453 2.662005424499512 33.76551818847656 4.953730583190918 28.34726905822754 C 7.167593002319336 23.11310577392578 10.33724308013916 18.41203117370605 14.37464332580566 14.37464332580566 C 18.41204261779785 10.33724403381348 23.11311721801758 7.167593955993652 28.34726715087891 4.953731060028076 C 33.76551818847656 2.662006139755249 39.52198028564453 1.500006198883057 45.45676803588867 1.500006198883057 C 51.39155578613281 1.500006198883057 57.14802932739258 2.662006139755249 62.56626892089844 4.953731060028076 C 67.80043029785156 7.167593955993652 72.50150299072266 10.33724403381348 76.53890228271484 14.37464332580566 C 80.57630920410156 18.41203117370605 83.74595642089844 23.11310577392578 85.95981597900391 28.34726905822754 C 88.25154113769531 33.76551818847656 89.41354370117188 39.52198028564453 89.41354370117188 45.45676803588867 C 89.41354370117188 51.39208221435547 88.25154113769531 57.14855575561523 85.95981597900391 62.56679534912109 C 83.74595642089844 67.80095672607422 80.57630920410156 72.50202941894531 76.53890228271484 76.5394287109375 C 72.50150299072266 80.57682800292969 67.80043029785156 83.74648284912109 62.56626892089844 85.96034240722656 C 57.14802932739258 88.25206756591797 51.39155578613281 89.41407012939453 45.45676803588867 89.41407012939453 Z" stroke="none"/>
                <path d="M 45.45676803588867 3 C 39.72381210327148 3 34.1639404296875 4.12213134765625 28.93159484863281 6.335227966308594 C 23.87622833251953 8.473472595214844 19.33542633056641 11.53517150878906 15.43529510498047 15.435302734375 C 11.53517150878906 19.33543395996094 8.473464965820312 23.87622833251953 6.335227966308594 28.93160247802734 C 4.122123718261719 34.16394424438477 3 39.72381591796875 3 45.4572868347168 C 3 51.19024658203125 4.122123718261719 56.75011825561523 6.335227966308594 61.98246002197266 C 8.473464965820312 67.03782653808594 11.53517150878906 71.57862854003906 15.43529510498047 75.478759765625 C 19.33542633056641 79.37889099121094 23.87622833251953 82.44058990478516 28.93159484863281 84.57883453369141 C 34.1639404296875 86.79193115234375 39.72381210327148 87.9140625 45.45676803588867 87.9140625 C 51.18972396850586 87.9140625 56.74959564208984 86.79193115234375 61.98194122314453 84.57883453369141 C 67.03730773925781 82.44058990478516 71.57810974121094 79.37889099121094 75.47824096679688 75.478759765625 C 79.37837219238281 71.57862854003906 82.44007110595703 67.03782653808594 84.57830810546875 61.98246002197266 C 86.79141235351562 56.75011825561523 87.91353607177734 51.19024658203125 87.91353607177734 45.4567756652832 C 87.91353607177734 39.72381591796875 86.79141235351562 34.16394424438477 84.57830810546875 28.93160247802734 C 82.44007110595703 23.87622833251953 79.37837219238281 19.33543395996094 75.47824096679688 15.435302734375 C 71.57810974121094 11.53517150878906 67.03730773925781 8.473472595214844 61.98194122314453 6.335227966308594 C 56.74959564208984 4.12213134765625 51.18972396850586 3 45.45676803588867 3 M 45.45676803588867 0 C 70.56185150146484 0 90.91353607177734 20.35169219970703 90.91353607177734 45.4567756652832 L 90.91353607177734 45.4572868347168 C 90.91353607177734 70.5623779296875 70.56185150146484 90.9140625 45.45676803588867 90.9140625 C 20.3516845703125 90.9140625 0 70.5623779296875 0 45.4572868347168 L 0 45.4567756652832 C 0 20.35169219970703 20.3516845703125 0 45.45676803588867 0 Z" stroke="none" fill="#fff"/>
              </g>
            </g>
            <g id="Path_874923" data-name="Path 874923" transform="translate(0 0)" fill="none">
              <path d="M45.457,0A45.457,45.457,0,0,1,90.914,45.457h0A45.457,45.457,0,0,1,0,45.457H0A45.457,45.457,0,0,1,45.457,0Z" stroke="none"/>
              <path d="M 45.45676803588867 3 C 39.72381210327148 3 34.1639404296875 4.12213134765625 28.93159484863281 6.335227966308594 C 23.87622833251953 8.473472595214844 19.33542633056641 11.53517150878906 15.43529510498047 15.435302734375 C 11.53517150878906 19.33543395996094 8.473464965820312 23.87622833251953 6.335227966308594 28.93160247802734 C 4.122123718261719 34.16394424438477 3 39.72381591796875 3 45.4572868347168 C 3 51.19024658203125 4.122123718261719 56.75011825561523 6.335227966308594 61.98246002197266 C 8.473464965820312 67.03782653808594 11.53517150878906 71.57862854003906 15.43529510498047 75.478759765625 C 19.33542633056641 79.37889099121094 23.87622833251953 82.44058990478516 28.93159484863281 84.57883453369141 C 34.1639404296875 86.79193115234375 39.72381210327148 87.9140625 45.45676803588867 87.9140625 C 51.18972396850586 87.9140625 56.74959564208984 86.79193115234375 61.98194122314453 84.57883453369141 C 67.03730773925781 82.44058990478516 71.57810974121094 79.37889099121094 75.47824096679688 75.478759765625 C 79.37837219238281 71.57862854003906 82.44007110595703 67.03782653808594 84.57830810546875 61.98246002197266 C 86.79141235351562 56.75011825561523 87.91353607177734 51.19024658203125 87.91353607177734 45.4567756652832 C 87.91353607177734 39.72381591796875 86.79141235351562 34.16394424438477 84.57830810546875 28.93160247802734 C 82.44007110595703 23.87622833251953 79.37837219238281 19.33543395996094 75.47824096679688 15.435302734375 C 71.57810974121094 11.53517150878906 67.03730773925781 8.473472595214844 61.98194122314453 6.335227966308594 C 56.74959564208984 4.12213134765625 51.18972396850586 3 45.45676803588867 3 M 45.45676803588867 0 C 70.56185150146484 0 90.91353607177734 20.35169219970703 90.91353607177734 45.4567756652832 L 90.91353607177734 45.4572868347168 C 90.91353607177734 70.5623779296875 70.56185150146484 90.9140625 45.45676803588867 90.9140625 C 20.3516845703125 90.9140625 0 70.5623779296875 0 45.4572868347168 L 0 45.4567756652832 C 0 20.35169219970703 20.3516845703125 0 45.45676803588867 0 Z" stroke="none" fill="#fff"/>
            </g>
          </g>
        </g>
      </g>
    </g>
    <g id="zapatero" transform="translate(2529 -10783)">
      <g id="Group_1177835" data-name="Group 1177835" transform="translate(0.766 0.762)">
        <rect id="Rectangle_405456" data-name="Rectangle 405456" width="7.732" height="19.247" transform="translate(27.554 31.315)" fill="#e3edf6"/>
        <path id="Path_1034217" data-name="Path 1034217" d="M286.257,332.427v2.288h-7.732V315.468h2.288v16.959Z" transform="translate(-250.97 -284.153)" fill="#c5d9ec"/>
        <path id="Path_1034218" data-name="Path 1034218" d="M309.037,257.646h-4.061l-1.577,5.348h10.4v-5.348H310.32" transform="translate(-273.315 -232.21)" fill="#c5d9ec"/>
        <path id="Path_1034219" data-name="Path 1034219" d="M307.267,257.644h-2.288l-1.577,5.349h2.288Z" transform="translate(-273.318 -232.208)" fill="#8bb2d8"/>
        <path id="Path_1034220" data-name="Path 1034220" d="M198.574,304.221l-1.17,2.416-.008.013a.977.977,0,0,1-1.53.19,9.656,9.656,0,0,0-1.215-1.04q-.166-.12-.345-.237c-.988-.646-3.281-2.148-6.006-1.468q-.073.018-.145.038a7.1,7.1,0,0,0-4.21,3.658h-.008l-.022,0h-.367a.509.509,0,0,1-.3-.122l-1.4-1.47-4.7-4.935a5.544,5.544,0,0,0-1.639-1.186.1.1,0,0,1-.042-.148,11.25,11.25,0,0,1,1.209-1.531,14.1,14.1,0,0,1,9.189-4,21.708,21.708,0,0,1,2.857-.051,20.058,20.058,0,0,0,3.373.319l1.268.012.531.005,1.741.017h.034l.6.006,2.6.024A11.628,11.628,0,0,1,198.574,304.221Z" transform="translate(-158.375 -265.158)" fill="#e07f66"/>
        <path id="Path_1034221" data-name="Path 1034221" d="M186.026,341.429l-3.953-3.953a5.018,5.018,0,0,0-7.1,0h0a5.55,5.55,0,0,1,1.746,1.236l6.1,6.4.873.873a.788.788,0,0,0,1.115,0l1.214-1.214A2.366,2.366,0,0,0,186.026,341.429Z" transform="translate(-157.951 -302.603)" fill="#e07f66"/>
        <path id="Path_1034222" data-name="Path 1034222" d="M177.879,337.884a5,5,0,0,1,2.768-1.409,5.019,5.019,0,0,0-5.666,1,5.56,5.56,0,0,1,1.746,1.235l6.1,6.4.873.873a.79.79,0,0,0,1.115,0l.693-.693-5.884-6.177a5.56,5.56,0,0,0-1.746-1.235Z" transform="translate(-157.955 -302.604)" fill="#d9694b"/>
        <path id="Path_1034223" data-name="Path 1034223" d="M118.947,261.389c-2.183-.1-8.155-.08-12.046,4.054a11.26,11.26,0,0,0-1.273,1.63l-.092-.041a5.564,5.564,0,0,0-1.867-.439l-.062,0c-.087,0-.175-.007-.263-.007a5.531,5.531,0,0,1-3.656-1.372c-.1-.083-.189-.169-.279-.259s-.17-.178-.251-.27a5.541,5.541,0,0,1-1.379-3.666v-3.382h10.584v.007a19.6,19.6,0,0,1,3.39.334C115,258.581,115.63,260.782,118.947,261.389Z" transform="translate(-88.603 -232.199)" fill="#c5d9ec"/>
        <path id="Path_1034224" data-name="Path 1034224" d="M103.283,266.581c-.481-.467-1.009-1.112-1.3-1.371-.1-.083-.189-.169-.279-.258s-.17-.178-.251-.27a5.545,5.545,0,0,1-1.379-3.666v-3.382H97.782v3.382a5.545,5.545,0,0,0,1.379,3.666c.081.093.164.184.251.27s.183.175.279.258a5.526,5.526,0,0,0,3.592,1.371Z" transform="translate(-88.606 -232.199)" fill="#8bb2d8"/>
        <path id="Path_1034225" data-name="Path 1034225" d="M71.058,74.979l3.96-3.96,6.55,6.55a6.073,6.073,0,0,1,.6.7,9.326,9.326,0,0,1,1.8,5.675l-.028,1.594-.062-.023q-.707-.26-1.388-.58a17.525,17.525,0,0,1-4.957-3.478Z" transform="translate(-64.599 -64.56)" fill="#c5d9ec"/>
        <path id="Path_1034226" data-name="Path 1034226" d="M83.961,104.917a17.522,17.522,0,0,1-4.906-3.454l-6.476-6.476-1.523,1.523,6.476,6.476a17.53,17.53,0,0,0,4.958,3.478q.679.32,1.388.58l.061.023.029-1.594C83.971,105.287,83.968,105.1,83.961,104.917Z" transform="translate(-64.597 -86.092)" fill="#8bb2d8"/>
        <path id="Path_1034227" data-name="Path 1034227" d="M8.36,8.32h0a2.8,2.8,0,0,1,3.96,0l5.639,5.638L14,17.919,8.36,12.28A2.8,2.8,0,0,1,8.36,8.32Z" transform="translate(-7.54 -7.5)" fill="#f8e868"/>
        <path id="Path_1034228" data-name="Path 1034228" d="M9.271,9.567a2.8,2.8,0,0,0-.913,4.57L14,19.776l1.523-1.523L9.881,12.615A2.8,2.8,0,0,1,9.271,9.567Z" transform="translate(-7.538 -9.357)" fill="#fdb456"/>
        <path id="Path_1034229" data-name="Path 1034229" d="M395.759,7.777h0a3.879,3.879,0,0,1,3.383,3.383h0a3.879,3.879,0,0,1-2.884,4.224l-1.414.364L390.9,19.695l-3.672-3.672,3.948-3.948.363-1.414A3.878,3.878,0,0,1,395.759,7.777Z" transform="translate(-348.616 -7.723)" fill="#94b7f7"/>
        <path id="Path_1034230" data-name="Path 1034230" d="M393.149,12.277l-.364,1.414-3.948,3.948-1.618-1.618,3.948-3.948.364-1.414a3.877,3.877,0,0,1,7.185-.845,3.836,3.836,0,0,0-1.344-.422A3.879,3.879,0,0,0,393.149,12.277Z" transform="translate(-348.612 -7.721)" fill="#5b92f2"/>
        <path id="Path_1034231" data-name="Path 1034231" d="M310.656,98.279l-8.709,8.709-3.266.994.994-3.266,8.709-8.709Z" transform="translate(-269.076 -87.007)" fill="#e3edf6"/>
      </g>
      <g id="Group_1177836" data-name="Group 1177836" transform="translate(0 0)">
        <path id="Trazado_1034232" data-name="Trazado 1034232" d="M280.282,412.161h-9.257v-8.632h1.525v7.107h6.207v-9.8h1.525Z" transform="translate(-243.466 -360.073)"/>
        <path id="Trazado_1034233" data-name="Trazado 1034233" d="M386.717,255.05h-1.525v-3.374h-1.475v-1.525h3Z" transform="translate(-344.699 -224.715)"/>
        <path id="Trazado_1034234" data-name="Trazado 1034234" d="M302.184,254.918l-1.463-.432L302,250.151h5.877v1.525h-4.737Z" transform="translate(-270.143 -224.715)"/>
        <path id="Trazado_1034235" data-name="Trazado 1034235" d="M179.6,352.527c-2.155-2.194-3.539-3.685-4.549-4.774-1.707-1.84-2.113-2.277-3.057-2.7l.625-1.391c1.227.551,1.766,1.132,3.55,3.055,1,1.082,2.379,2.564,4.519,4.742Z" transform="translate(-154.502 -308.716)"/>
        <path id="Trazado_1034236" data-name="Trazado 1034236" d="M190.292,301.063a1.71,1.71,0,0,1-1.226-.514,8.917,8.917,0,0,0-1.119-.958c-2.571-1.84-4.9-2.214-6.928-1.111l-.73-1.339c2.582-1.407,5.458-1,8.548,1.212a10.454,10.454,0,0,1,1.314,1.124.2.2,0,0,0,.184.057.2.2,0,0,0,.129-.064l1.166-2.407a10.883,10.883,0,0,0,.451-8.4c-7.428-.041-7.665-.077-9.039-.286l-.685-.1c-5.209-.3-9.657,1.422-12.14,4.718q-.146.195-.29.407l-.125.185-1.319-.765c.024-.042.132-.2.173-.263.118-.174.229-.331.343-.482,2.8-3.71,7.718-5.649,13.506-5.317l.767.11c1.281.2,1.512.23,9.339.272l.508,0,.193.47A12.409,12.409,0,0,1,193,297.727l-1.17,2.416a1.687,1.687,0,0,1-1.256.9A1.811,1.811,0,0,1,190.292,301.063Z" transform="translate(-151.351 -257.57)"/>
        <path id="Trazado_1034237" data-name="Trazado 1034237" transform="translate(0 0)"/>
        <path id="Trazado_1034238" data-name="Trazado 1034238" transform="translate(0 0)"/>
        <path id="Trazado_1034239" data-name="Trazado 1034239" d="M176.3,340.246a1.541,1.541,0,0,1-1.1-.454l-.873-.872c-2.091-2.135-3.463-3.61-4.465-4.687-.4-.434-.741-.8-1.035-1.106a6.22,6.22,0,0,0-2.087-1.676l-.236-.108-.385-.73.383-.434a5.781,5.781,0,0,1,8.153.022l3.953,3.952a3.135,3.135,0,0,1,0,4.425l-1.214,1.214A1.541,1.541,0,0,1,176.3,340.246Zm-7.921-9.608a11.4,11.4,0,0,1,1.555,1.436c.3.312.64.68,1.048,1.119,1,1.071,2.36,2.538,4.431,4.653l.868.866.019.008a.024.024,0,0,0,.018-.008l1.214-1.214a1.607,1.607,0,0,0,0-2.268l-3.953-3.952a4.26,4.26,0,0,0-5.2-.641Z" transform="translate(-149.234 -295.103)"/>
        <path id="Trazado_1034240" data-name="Trazado 1034240" d="M90.178,250.134h12.109v.032a19.786,19.786,0,0,1,2.767.322,8.892,8.892,0,0,1,3.855,1.823,7.624,7.624,0,0,0,3.337,1.592l-.173,1.512c-.344-.016-.688-.024-1.031-.024-5.227,0-9.334,1.879-11.566,5.29l-.226.345-.5.046a.86.86,0,0,1-.358-.078,4.469,4.469,0,0,0-1.892-.388,6.313,6.313,0,0,1-5.839-3.893c-.514-1.232-.508-2.054-.493-4.251,0-.452.007-.968.007-1.566Zm10.976,1.525H91.7c0,.293,0,.563,0,.814-.015,2.134-.019,2.708.375,3.653a4.8,4.8,0,0,0,4.5,2.956,6.293,6.293,0,0,1,1.939.315c2.194-3.041,5.728-4.914,10.143-5.4-.219-.149-.427-.3-.63-.444a7.526,7.526,0,0,0-3.245-1.562,18.72,18.72,0,0,0-3.265-.321Z" transform="translate(-80.998 -224.7)"/>
        <path id="Trazado_1034241" data-name="Trazado 1034241" d="M75.155,77.1l-1.012-.381c-.547-.2-1.034-.405-1.506-.627a18.233,18.233,0,0,1-5.172-3.629l-2.12-2.121,1.079-1.079,2.12,2.12a16.714,16.714,0,0,0,4.741,3.327q.191.09.383.174l.009-.488a8.564,8.564,0,0,0-1.655-5.211,5.319,5.319,0,0,0-.523-.609L65.49,62.569l-2.881,2.882,2.71,2.71-1.029,1.128-3.838-3.838,5.038-5.039,7.09,7.089a6.854,6.854,0,0,1,.674.785,10.089,10.089,0,0,1,1.95,6.141Z" transform="translate(-54.304 -54.269)"/>
        <path id="Trazado_1034242" data-name="Trazado 1034242" d="M3.6,0A3.54,3.54,0,0,1,6.122,1.043L12.3,7.221,7.261,12.26,1.084,6.082A3.563,3.563,0,0,1,3.6,0Zm6.54,7.221-5.1-5.1A2.038,2.038,0,1,0,2.162,5l5.1,5.1Z" transform="translate(-0.036 0)"/>
        <path id="Línea_142" data-name="Línea 142" d="M-4.225,2.683-5.3,1.6,1.6-5.3,2.683-4.225Z" transform="translate(10.516 10.511)"/>
        <path id="Trazado_1034243" data-name="Trazado 1034243" d="M298.26,85.4l3.351,3.351-9.383,9.384L287.411,99.6l1.466-4.817Zm1.194,3.351-1.194-1.194-8.035,8.035-.522,1.716,1.716-.522Z" transform="translate(-258.186 -76.716)"/>
        <path id="Línea_143" data-name="Línea 143" d="M1.653,2.731-5.3-4.225-4.225-5.3,2.732,1.653Z" transform="translate(42.496 12.185)"/>
        <path id="Trazado_1034244" data-name="Trazado 1034244" d="M385.76.248a4.641,4.641,0,0,1,1.159,9.137l-1.212.312-4.34,4.34-4.751-4.75,4.34-4.34.311-1.212A4.638,4.638,0,0,1,385.76.248Zm-4.392,11.631,3.556-3.556,1.616-.415a3.116,3.116,0,1,0-3.794-3.794l-.415,1.616-3.556,3.556Z" transform="translate(-338.322 -0.223)"/>
        <path id="Línea_144" data-name="Línea 144" d="M-5.975,1.523H-7.5V0h1.525Z" transform="translate(41.553 33.294)"/>
        <path id="Línea_145" data-name="Línea 145" d="M-5.975,1.523H-7.5V0h1.525Z" transform="translate(44.61 33.294)"/>
      </g>
    </g>
  </g>
</svg>
