<svg xmlns="http://www.w3.org/2000/svg" xmlns:xlink="http://www.w3.org/1999/xlink" width="108.914" height="108.914" viewBox="0 0 108.914 108.914">
  <defs>
    <filter id="Path_874925" x="0" y="0" width="108.914" height="108.914" filterUnits="userSpaceOnUse">
      <feOffset dy="3" input="SourceAlpha"/>
      <feGaussianBlur stdDeviation="3" result="blur"/>
      <feFlood flood-opacity="0.161"/>
      <feComposite operator="in" in2="blur"/>
      <feComposite in="SourceGraphic"/>
    </filter>
  </defs>
  <g id="Group_1177846" data-name="Group 1177846" transform="translate(-3194 10828)">
    <g id="Group_1177839" data-name="Group 1177839" transform="translate(693 -20)">
      <g id="Group_1177834" data-name="Group 1177834" transform="translate(1701.5 -13342.157)">
        <g id="Group_1111316" data-name="Group 1111316" transform="translate(0 587.946)">
          <g id="Group_1109835" data-name="Group 1109835">
            <g id="Group_1107913" data-name="Group 1107913" transform="translate(808.5 1952.211)">
              <g transform="matrix(1, 0, 0, 1, -9, -6)" filter="url(#Path_874925)">
                <g id="Path_874925-2" data-name="Path 874925" transform="translate(9 6)" fill="#d8cabd" opacity="0.859">
                  <path d="M 45.45676803588867 89.41407012939453 C 39.52198028564453 89.41407012939453 33.76551818847656 88.25206756591797 28.34726715087891 85.96034240722656 C 23.11311721801758 83.74648284912109 18.41204261779785 80.57682800292969 14.37464332580566 76.5394287109375 C 10.33724308013916 72.50202941894531 7.167593002319336 67.80095672607422 4.953730583190918 62.56679534912109 C 2.662005424499512 57.14855575561523 1.500005483627319 51.39208221435547 1.500005483627319 45.45729446411133 C 1.500005483627319 39.52198028564453 2.662005424499512 33.76551818847656 4.953730583190918 28.34726905822754 C 7.167593002319336 23.11310577392578 10.33724308013916 18.41203117370605 14.37464332580566 14.37464332580566 C 18.41204261779785 10.33724403381348 23.11311721801758 7.167593955993652 28.34726715087891 4.953731060028076 C 33.76551818847656 2.662006139755249 39.52198028564453 1.500006198883057 45.45676803588867 1.500006198883057 C 51.39155578613281 1.500006198883057 57.14802932739258 2.662006139755249 62.56626892089844 4.953731060028076 C 67.80043029785156 7.167593955993652 72.50150299072266 10.33724403381348 76.53890228271484 14.37464332580566 C 80.57630920410156 18.41203117370605 83.74595642089844 23.11310577392578 85.95981597900391 28.34726905822754 C 88.25154113769531 33.76551818847656 89.41354370117188 39.52198028564453 89.41354370117188 45.45676803588867 C 89.41354370117188 51.39208221435547 88.25154113769531 57.14855575561523 85.95981597900391 62.56679534912109 C 83.74595642089844 67.80095672607422 80.57630920410156 72.50202941894531 76.53890228271484 76.5394287109375 C 72.50150299072266 80.57682800292969 67.80043029785156 83.74648284912109 62.56626892089844 85.96034240722656 C 57.14802932739258 88.25206756591797 51.39155578613281 89.41407012939453 45.45676803588867 89.41407012939453 Z" stroke="none"/>
                  <path d="M 45.45676803588867 3 C 39.72381210327148 3 34.1639404296875 4.12213134765625 28.93159484863281 6.335227966308594 C 23.87622833251953 8.473472595214844 19.33542633056641 11.53517150878906 15.43529510498047 15.435302734375 C 11.53517150878906 19.33543395996094 8.473464965820312 23.87622833251953 6.335227966308594 28.93160247802734 C 4.122123718261719 34.16394424438477 3 39.72381591796875 3 45.4572868347168 C 3 51.19024658203125 4.122123718261719 56.75011825561523 6.335227966308594 61.98246002197266 C 8.473464965820312 67.03782653808594 11.53517150878906 71.57862854003906 15.43529510498047 75.478759765625 C 19.33542633056641 79.37889099121094 23.87622833251953 82.44058990478516 28.93159484863281 84.57883453369141 C 34.1639404296875 86.79193115234375 39.72381210327148 87.9140625 45.45676803588867 87.9140625 C 51.18972396850586 87.9140625 56.74959564208984 86.79193115234375 61.98194122314453 84.57883453369141 C 67.03730773925781 82.44058990478516 71.57810974121094 79.37889099121094 75.47824096679688 75.478759765625 C 79.37837219238281 71.57862854003906 82.44007110595703 67.03782653808594 84.57830810546875 61.98246002197266 C 86.79141235351562 56.75011825561523 87.91353607177734 51.19024658203125 87.91353607177734 45.4567756652832 C 87.91353607177734 39.72381591796875 86.79141235351562 34.16394424438477 84.57830810546875 28.93160247802734 C 82.44007110595703 23.87622833251953 79.37837219238281 19.33543395996094 75.47824096679688 15.435302734375 C 71.57810974121094 11.53517150878906 67.03730773925781 8.473472595214844 61.98194122314453 6.335227966308594 C 56.74959564208984 4.12213134765625 51.18972396850586 3 45.45676803588867 3 M 45.45676803588867 0 C 70.56185150146484 0 90.91353607177734 20.35169219970703 90.91353607177734 45.4567756652832 L 90.91353607177734 45.4572868347168 C 90.91353607177734 70.5623779296875 70.56185150146484 90.9140625 45.45676803588867 90.9140625 C 20.3516845703125 90.9140625 0 70.5623779296875 0 45.4572868347168 L 0 45.4567756652832 C 0 20.35169219970703 20.3516845703125 0 45.45676803588867 0 Z" stroke="none" fill="#fff"/>
                </g>
              </g>
              <g id="Path_874923" data-name="Path 874923" transform="translate(0 0)" fill="none">
                <path d="M45.457,0A45.457,45.457,0,0,1,90.914,45.457h0A45.457,45.457,0,0,1,0,45.457H0A45.457,45.457,0,0,1,45.457,0Z" stroke="none"/>
                <path d="M 45.45676803588867 3 C 39.72381210327148 3 34.1639404296875 4.12213134765625 28.93159484863281 6.335227966308594 C 23.87622833251953 8.473472595214844 19.33542633056641 11.53517150878906 15.43529510498047 15.435302734375 C 11.53517150878906 19.33543395996094 8.473464965820312 23.87622833251953 6.335227966308594 28.93160247802734 C 4.122123718261719 34.16394424438477 3 39.72381591796875 3 45.4572868347168 C 3 51.19024658203125 4.122123718261719 56.75011825561523 6.335227966308594 61.98246002197266 C 8.473464965820312 67.03782653808594 11.53517150878906 71.57862854003906 15.43529510498047 75.478759765625 C 19.33542633056641 79.37889099121094 23.87622833251953 82.44058990478516 28.93159484863281 84.57883453369141 C 34.1639404296875 86.79193115234375 39.72381210327148 87.9140625 45.45676803588867 87.9140625 C 51.18972396850586 87.9140625 56.74959564208984 86.79193115234375 61.98194122314453 84.57883453369141 C 67.03730773925781 82.44058990478516 71.57810974121094 79.37889099121094 75.47824096679688 75.478759765625 C 79.37837219238281 71.57862854003906 82.44007110595703 67.03782653808594 84.57830810546875 61.98246002197266 C 86.79141235351562 56.75011825561523 87.91353607177734 51.19024658203125 87.91353607177734 45.4567756652832 C 87.91353607177734 39.72381591796875 86.79141235351562 34.16394424438477 84.57830810546875 28.93160247802734 C 82.44007110595703 23.87622833251953 79.37837219238281 19.33543395996094 75.47824096679688 15.435302734375 C 71.57810974121094 11.53517150878906 67.03730773925781 8.473472595214844 61.98194122314453 6.335227966308594 C 56.74959564208984 4.12213134765625 51.18972396850586 3 45.45676803588867 3 M 45.45676803588867 0 C 70.56185150146484 0 90.91353607177734 20.35169219970703 90.91353607177734 45.4567756652832 L 90.91353607177734 45.4572868347168 C 90.91353607177734 70.5623779296875 70.56185150146484 90.9140625 45.45676803588867 90.9140625 C 20.3516845703125 90.9140625 0 70.5623779296875 0 45.4572868347168 L 0 45.4567756652832 C 0 20.35169219970703 20.3516845703125 0 45.45676803588867 0 Z" stroke="none" fill="#fff"/>
              </g>
            </g>
          </g>
        </g>
      </g>
    </g>
    <g id="zapatero_2_" data-name="zapatero (2)" transform="translate(3221.998 -10803)">
      <g id="Group_1177844" data-name="Group 1177844" transform="translate(1.12 0.882)">
        <path id="Path_1034255" data-name="Path 1034255" d="M389.375,260.292h-4.205l-1.633-5.539h10.776v5.539H390.7" transform="translate(-344.265 -228.808)" fill="#c5d9ec"/>
        <path id="Path_1034256" data-name="Path 1034256" d="M387.542,260.29h-2.369l-1.633-5.539h2.369Z" transform="translate(-344.268 -228.806)" fill="#8bb2d8"/>
        <path id="Path_1034257" data-name="Path 1034257" d="M279.113,141.87l-1.212-2.5-.008-.013a1.012,1.012,0,0,0-1.585-.2,10,10,0,0,1-1.258,1.077c-2.024,1.46-4.356,2.4-6.727,1.726a7.357,7.357,0,0,1-4.36-3.789c-.235,0-.56-.047-.722.123l-6.319,6.633a5.741,5.741,0,0,1-1.808,1.279,11.672,11.672,0,0,0,1.318,1.688c3.5,3.715,9.389,4.622,13.245,4.074,1.709-.243,2.009-.2,9.736-.272A12.042,12.042,0,0,0,279.113,141.87Z" transform="translate(-229.367 -124.499)" fill="#e07f66"/>
        <path id="Path_1034258" data-name="Path 1034258" d="M266.557,133.5l-4.094,4.094a5.2,5.2,0,0,1-7.349,0h0a5.747,5.747,0,0,0,1.808-1.28c7.449-7.82,7.233-7.547,7.222-7.536a.817.817,0,0,1,1.155,0l1.257,1.257A2.45,2.45,0,0,1,266.557,133.5Z" transform="translate(-229.367 -115.888)" fill="#e07f66"/>
        <path id="Path_1034259" data-name="Path 1034259" d="M258.12,137.176a5.174,5.174,0,0,0,2.866,1.46,5.2,5.2,0,0,1-5.868-1.038,5.758,5.758,0,0,0,1.808-1.279c7.181-7.539,5.943-6.258,7.222-7.537a.818.818,0,0,1,1.155,0l.718.718-6.094,6.4a5.758,5.758,0,0,1-1.808,1.279Z" transform="translate(-229.371 -115.888)" fill="#d9694b"/>
        <path id="Path_1034260" data-name="Path 1034260" d="M199.841,220.414c-2.261.105-8.445.083-12.475-4.2a11.664,11.664,0,0,1-1.318-1.688l-.1.043a5.764,5.764,0,0,1-1.933.455l-.065,0c-.09,0-.181.007-.272.007a5.765,5.765,0,0,0-5.764,5.765v3.5h10.961V224.3a20.3,20.3,0,0,0,3.511-.346C195.753,223.322,196.4,221.042,199.841,220.414Z" transform="translate(-160.3 -192.819)" fill="#c5d9ec"/>
        <path id="Path_1034261" data-name="Path 1034261" d="M183.616,219.371c-.5.483-1.045,1.152-1.351,1.42a5.748,5.748,0,0,0-1.977,4.344v3.5h-2.369v-3.5A5.765,5.765,0,0,1,183.616,219.371Z" transform="translate(-160.301 -197.152)" fill="#8bb2d8"/>
        <rect id="Rectangle_405459" data-name="Rectangle 405459" width="4.163" height="16.593" transform="translate(31.65 35.647)" fill="#e3edf6"/>
        <rect id="Rectangle_405460" data-name="Rectangle 405460" width="4.163" height="36.544" transform="translate(52.004 31.484) rotate(90)" fill="#e3edf6"/>
        <rect id="Rectangle_405461" data-name="Rectangle 405461" width="4.011" height="27.671" transform="translate(19.566 3.414) rotate(45)" fill="#e07f66"/>
        <path id="Path_1034262" data-name="Path 1034262" d="M128.165,23.187,115.1,10.125l1.751-1.751,8.99,2.432,7.351,7.351Z" transform="translate(-104.099 -8.374)" fill="#c5d9ec"/>
        <path id="Path_1034263" data-name="Path 1034263" d="M129.04,14.006l-10.216-2.763-1.3,1.3-2.42-2.42,1.751-1.751,8.991,2.432Z" transform="translate(-104.098 -8.376)" fill="#8bb2d8"/>
      </g>
      <g id="Group_1177845" data-name="Group 1177845" transform="translate(0.002 0)">
        <path id="Trazado_1034264" data-name="Trazado 1034264" d="M456,271.736h-4.4v-1.58h2.818v-3.5H456Z" transform="translate(-404.043 -238.58)"/>
        <path id="Trazado_1034265" data-name="Trazado 1034265" d="M386.985,272.906h-4.8l-1.324-4.49,1.515-.447.99,3.357h3.614Z" transform="translate(-340.758 -239.75)"/>
        <path id="Trazado_1034266" data-name="Trazado 1034266" d="M258.033,148.351c-.16,0-.276,0-.353,0l-.01,0-.115,0c-7.53-.239-11.187-3.543-12.928-6.272l-.491-.769.832-.375c.924-.417.942-.425,4.716-4.408.85-.9,1.887-1.991,3.162-3.329l.061-.064.082-.058.438.657.549.567c-1.261,1.324-2.3,2.416-3.146,3.313-2.861,3.018-3.67,3.873-4.377,4.33,2.29,3.034,6.019,4.657,11.1,4.828l.138,0c.17,0,.6.012,1.352-.021,1.786-.336,2.926-.344,7.164-.372l2.839-.022a11.263,11.263,0,0,0-.467-8.7l-.379-.784c-.343-.71-.75-1.552-.836-1.722a.242.242,0,0,0-.138-.056.21.21,0,0,0-.18.062c-2.365,2.393-6.459,4.464-10.212,2.42l.756-1.387c2.791,1.521,6.2.019,8.334-2.144a1.8,1.8,0,0,1,2.825.347c.115.224.526,1.075.873,1.793l.379.783a12.843,12.843,0,0,1,.32,10.473l-.2.484-.524,0-3.38.026c-4.233.028-5.239.035-6.99.358l-.071.013h-.072C258.626,148.346,258.279,148.351,258.033,148.351Z" transform="translate(-218.427 -119.058)"/>
        <path id="Trazado_1034267" data-name="Trazado 1034267" d="M253.1,121.042a1.6,1.6,0,0,1,1.136.471l1.257,1.257a3.24,3.24,0,0,1,0,4.582l-4.094,4.094a5.986,5.986,0,0,1-8.466,0l-.81-.81,1.045-.469c.954-.429,1.387-.873,3.272-2.9,1.037-1.115,2.457-2.642,4.614-4.845l.91-.91A1.6,1.6,0,0,1,253.1,121.042Zm-5.933,10.578a4.378,4.378,0,0,0,3.116-1.291l4.094-4.094a1.66,1.66,0,0,0,0-2.348l-1.257-1.257-.019-.008a.024.024,0,0,0-.019.008l-.9.9c-2.137,2.182-3.549,3.7-4.58,4.809a20.893,20.893,0,0,1-2.7,2.651A4.379,4.379,0,0,0,247.164,131.62Z" transform="translate(-216.625 -108.296)"/>
        <path id="Trazado_1034268" data-name="Trazado 1034268" d="M182.167,216.5H170.416v-4.293a6.544,6.544,0,0,1,4-6.039,6.8,6.8,0,0,1,2.575-.522,4.64,4.64,0,0,0,2-.426l.627-.3.376.584c3.107,4.829,8.867,5.55,12.024,5.55.355,0,.712-.008,1.068-.025l.179,1.566a7.9,7.9,0,0,0-3.456,1.649,9.209,9.209,0,0,1-3.992,1.887,20.492,20.492,0,0,1-2.866.334v.026ZM172,214.924h9.787l.369-.007a19.389,19.389,0,0,0,3.381-.333,7.794,7.794,0,0,0,3.36-1.618c.21-.151.426-.306.653-.46-4.574-.507-8.232-2.446-10.5-5.6a6.672,6.672,0,0,1-1.972.319,5.25,5.25,0,0,0-2.036.4A4.968,4.968,0,0,0,172,212.211Z" transform="translate(-152.47 -183.346)"/>
        <path id="Trazado_1034269" data-name="Trazado 1034269" d="M309.411,357.557h-5.743V339.385h5.743v12.431h-1.58V340.965h-2.584v15.013h2.584v-2.586h1.58Z" transform="translate(-271.69 -303.646)"/>
        <path id="Rectángulo_405462" data-name="Rectángulo 405462" d="M0,0H5.743V38.124H0ZM4.163,1.58H1.58V36.544H4.163Z" transform="translate(53.911 31.576) rotate(90)"/>
        <path id="Línea_142" data-name="Línea 142" d="M-4.186,6.087-5.3,4.97,4.971-5.3,6.088-4.186Z" transform="translate(11.705 12.491)"/>
        <path id="Trazado_1034270" data-name="Trazado 1034270" d="M3.955,112.97,0,109.017l5.2-5.2,1.117,1.117-4.083,4.083,1.719,1.719L19.514,95.178l1.117,1.117Z" transform="translate(-0.002 -85.155)"/>
        <path id="Trazado_1034271" data-name="Trazado 1034271" d="M118.675,16.812,104.5,2.633,107.128,0l9.635,2.607,8.058,8.058ZM106.729,2.633l11.946,11.946,3.913-3.913-6.644-6.644L107.6,1.764Z" transform="translate(-93.491 0)"/>
        <path id="Línea_143" data-name="Línea 143" d="M-5.92,1.577H-7.5V0h1.58Z" transform="translate(54.52 23.913)"/>
        <path id="Línea_144" data-name="Línea 144" d="M-5.92,1.577H-7.5V0h1.58Z" transform="translate(51.355 23.913)"/>
      </g>
    </g>
  </g>
</svg>
