<svg xmlns="http://www.w3.org/2000/svg" xmlns:xlink="http://www.w3.org/1999/xlink" width="108.914" height="108.914" viewBox="0 0 108.914 108.914">
  <defs>
    <filter id="Path_874925" x="0" y="0" width="108.914" height="108.914" filterUnits="userSpaceOnUse">
      <feOffset dy="3" input="SourceAlpha"/>
      <feGaussianBlur stdDeviation="3" result="blur"/>
      <feFlood flood-opacity="0.161"/>
      <feComposite operator="in" in2="blur"/>
      <feComposite in="SourceGraphic"/>
    </filter>
  </defs>
  <g id="Group_1177843" data-name="Group 1177843" transform="translate(-2845 10808)">
    <g id="Group_1177838" data-name="Group 1177838" transform="translate(344)">
      <g id="Group_1177834" data-name="Group 1177834" transform="translate(1701.5 -13342.157)">
        <g id="Group_1111316" data-name="Group 1111316" transform="translate(0 587.946)">
          <g id="Group_1109835" data-name="Group 1109835">
            <g id="Group_1107913" data-name="Group 1107913" transform="translate(808.5 1952.211)">
              <g transform="matrix(1, 0, 0, 1, -9, -6)" filter="url(#Path_874925)">
                <g id="Path_874925-2" data-name="Path 874925" transform="translate(9 6)" fill="#d8cabd" opacity="0.859">
                  <path d="M 45.45676803588867 89.41407012939453 C 39.52198028564453 89.41407012939453 33.76551818847656 88.25206756591797 28.34726715087891 85.96034240722656 C 23.11311721801758 83.74648284912109 18.41204261779785 80.57682800292969 14.37464332580566 76.5394287109375 C 10.33724308013916 72.50202941894531 7.167593002319336 67.80095672607422 4.953730583190918 62.56679534912109 C 2.662005424499512 57.14855575561523 1.500005483627319 51.39208221435547 1.500005483627319 45.45729446411133 C 1.500005483627319 39.52198028564453 2.662005424499512 33.76551818847656 4.953730583190918 28.34726905822754 C 7.167593002319336 23.11310577392578 10.33724308013916 18.41203117370605 14.37464332580566 14.37464332580566 C 18.41204261779785 10.33724403381348 23.11311721801758 7.167593955993652 28.34726715087891 4.953731060028076 C 33.76551818847656 2.662006139755249 39.52198028564453 1.500006198883057 45.45676803588867 1.500006198883057 C 51.39155578613281 1.500006198883057 57.14802932739258 2.662006139755249 62.56626892089844 4.953731060028076 C 67.80043029785156 7.167593955993652 72.50150299072266 10.33724403381348 76.53890228271484 14.37464332580566 C 80.57630920410156 18.41203117370605 83.74595642089844 23.11310577392578 85.95981597900391 28.34726905822754 C 88.25154113769531 33.76551818847656 89.41354370117188 39.52198028564453 89.41354370117188 45.45676803588867 C 89.41354370117188 51.39208221435547 88.25154113769531 57.14855575561523 85.95981597900391 62.56679534912109 C 83.74595642089844 67.80095672607422 80.57630920410156 72.50202941894531 76.53890228271484 76.5394287109375 C 72.50150299072266 80.57682800292969 67.80043029785156 83.74648284912109 62.56626892089844 85.96034240722656 C 57.14802932739258 88.25206756591797 51.39155578613281 89.41407012939453 45.45676803588867 89.41407012939453 Z" stroke="none"/>
                  <path d="M 45.45676803588867 3 C 39.72381210327148 3 34.1639404296875 4.12213134765625 28.93159484863281 6.335227966308594 C 23.87622833251953 8.473472595214844 19.33542633056641 11.53517150878906 15.43529510498047 15.435302734375 C 11.53517150878906 19.33543395996094 8.473464965820312 23.87622833251953 6.335227966308594 28.93160247802734 C 4.122123718261719 34.16394424438477 3 39.72381591796875 3 45.4572868347168 C 3 51.19024658203125 4.122123718261719 56.75011825561523 6.335227966308594 61.98246002197266 C 8.473464965820312 67.03782653808594 11.53517150878906 71.57862854003906 15.43529510498047 75.478759765625 C 19.33542633056641 79.37889099121094 23.87622833251953 82.44058990478516 28.93159484863281 84.57883453369141 C 34.1639404296875 86.79193115234375 39.72381210327148 87.9140625 45.45676803588867 87.9140625 C 51.18972396850586 87.9140625 56.74959564208984 86.79193115234375 61.98194122314453 84.57883453369141 C 67.03730773925781 82.44058990478516 71.57810974121094 79.37889099121094 75.47824096679688 75.478759765625 C 79.37837219238281 71.57862854003906 82.44007110595703 67.03782653808594 84.57830810546875 61.98246002197266 C 86.79141235351562 56.75011825561523 87.91353607177734 51.19024658203125 87.91353607177734 45.4567756652832 C 87.91353607177734 39.72381591796875 86.79141235351562 34.16394424438477 84.57830810546875 28.93160247802734 C 82.44007110595703 23.87622833251953 79.37837219238281 19.33543395996094 75.47824096679688 15.435302734375 C 71.57810974121094 11.53517150878906 67.03730773925781 8.473472595214844 61.98194122314453 6.335227966308594 C 56.74959564208984 4.12213134765625 51.18972396850586 3 45.45676803588867 3 M 45.45676803588867 0 C 70.56185150146484 0 90.91353607177734 20.35169219970703 90.91353607177734 45.4567756652832 L 90.91353607177734 45.4572868347168 C 90.91353607177734 70.5623779296875 70.56185150146484 90.9140625 45.45676803588867 90.9140625 C 20.3516845703125 90.9140625 0 70.5623779296875 0 45.4572868347168 L 0 45.4567756652832 C 0 20.35169219970703 20.3516845703125 0 45.45676803588867 0 Z" stroke="none" fill="#fff"/>
                </g>
              </g>
              <g id="Path_874923" data-name="Path 874923" transform="translate(0 0)" fill="none">
                <path d="M45.457,0A45.457,45.457,0,0,1,90.914,45.457h0A45.457,45.457,0,0,1,0,45.457H0A45.457,45.457,0,0,1,45.457,0Z" stroke="none"/>
                <path d="M 45.45676803588867 3 C 39.72381210327148 3 34.1639404296875 4.12213134765625 28.93159484863281 6.335227966308594 C 23.87622833251953 8.473472595214844 19.33542633056641 11.53517150878906 15.43529510498047 15.435302734375 C 11.53517150878906 19.33543395996094 8.473464965820312 23.87622833251953 6.335227966308594 28.93160247802734 C 4.122123718261719 34.16394424438477 3 39.72381591796875 3 45.4572868347168 C 3 51.19024658203125 4.122123718261719 56.75011825561523 6.335227966308594 61.98246002197266 C 8.473464965820312 67.03782653808594 11.53517150878906 71.57862854003906 15.43529510498047 75.478759765625 C 19.33542633056641 79.37889099121094 23.87622833251953 82.44058990478516 28.93159484863281 84.57883453369141 C 34.1639404296875 86.79193115234375 39.72381210327148 87.9140625 45.45676803588867 87.9140625 C 51.18972396850586 87.9140625 56.74959564208984 86.79193115234375 61.98194122314453 84.57883453369141 C 67.03730773925781 82.44058990478516 71.57810974121094 79.37889099121094 75.47824096679688 75.478759765625 C 79.37837219238281 71.57862854003906 82.44007110595703 67.03782653808594 84.57830810546875 61.98246002197266 C 86.79141235351562 56.75011825561523 87.91353607177734 51.19024658203125 87.91353607177734 45.4567756652832 C 87.91353607177734 39.72381591796875 86.79141235351562 34.16394424438477 84.57830810546875 28.93160247802734 C 82.44007110595703 23.87622833251953 79.37837219238281 19.33543395996094 75.47824096679688 15.435302734375 C 71.57810974121094 11.53517150878906 67.03730773925781 8.473472595214844 61.98194122314453 6.335227966308594 C 56.74959564208984 4.12213134765625 51.18972396850586 3 45.45676803588867 3 M 45.45676803588867 0 C 70.56185150146484 0 90.91353607177734 20.35169219970703 90.91353607177734 45.4567756652832 L 90.91353607177734 45.4572868347168 C 90.91353607177734 70.5623779296875 70.56185150146484 90.9140625 45.45676803588867 90.9140625 C 20.3516845703125 90.9140625 0 70.5623779296875 0 45.4572868347168 L 0 45.4567756652832 C 0 20.35169219970703 20.3516845703125 0 45.45676803588867 0 Z" stroke="none" fill="#fff"/>
              </g>
            </g>
          </g>
        </g>
      </g>
    </g>
    <g id="zapatero_1_" data-name="zapatero (1)" transform="translate(2874 -10782.043)">
      <g id="Group_1177840" data-name="Group 1177840" transform="translate(0.75 0.793)">
        <path id="Path_1034232" data-name="Path 1034232" d="M39.584,286.195v15.7H7.5v-15.7a6.833,6.833,0,0,1,5.894-6.769,6.727,6.727,0,0,1,.94-.065H32.75a6.829,6.829,0,0,1,6.833,6.834Z" transform="translate(-7.5 -252.165)" fill="#94b7f7"/>
        <path id="Path_1034233" data-name="Path 1034233" d="M39.587,308.713v2.251H7.5v-15.7a6.827,6.827,0,0,1,3.259-5.825,6.8,6.8,0,0,0-1.008,3.574v15.7Z" transform="translate(-7.504 -261.238)" fill="#5b92f2"/>
        <path id="Path_1034234" data-name="Path 1034234" d="M105.073,286.807l3.611-4.026-3.44-3.417h-3.136Z" transform="translate(-92.642 -252.168)" fill="#94b7f7"/>
        <path id="Path_1034235" data-name="Path 1034235" d="M171.44,286.807l-3.611-4.026,3.44-3.417H174.4Z" transform="translate(-151.787 -252.168)" fill="#94b7f7"/>
        <rect id="Rectangle_405457" data-name="Rectangle 405457" width="20.379" height="11.265" transform="translate(5.894 38.462)" fill="#f05475"/>
        <rect id="Rectangle_405458" data-name="Rectangle 405458" width="20.379" height="2.251" transform="translate(5.894 47.476)" fill="#e21743"/>
        <path id="Path_1034236" data-name="Path 1034236" d="M140.328,225.672h-6.88v5.372l3.44,3.417,3.44-3.417Z" transform="translate(-120.846 -203.847)" fill="#ffdaaa"/>
        <path id="Path_1034237" data-name="Path 1034237" d="M138.409,232.948l-1.525,1.514-3.441-3.417v-5.372H135.7v4.615Z" transform="translate(-120.843 -203.848)" fill="#ffb680"/>
        <path id="Path_1034238" data-name="Path 1034238" d="M88.866,102.951h0a8.779,8.779,0,0,1-8.779-8.779V87.159H97.645v7.013A8.779,8.779,0,0,1,88.866,102.951Z" transform="translate(-72.824 -79.193)" fill="#ffdaaa"/>
        <path id="Path_1034239" data-name="Path 1034239" d="M89.989,102.884a8.9,8.9,0,0,1-1.126.071h0a8.779,8.779,0,0,1-8.779-8.779V87.163h2.251v7.013A8.781,8.781,0,0,0,89.989,102.884Z" transform="translate(-72.822 -79.197)" fill="#ffb680"/>
        <path id="Path_1034240" data-name="Path 1034240" d="M97.648,15.509H80.09a7.962,7.962,0,0,1,7.966-7.966h1.626a7.966,7.966,0,0,1,7.966,7.966Z" transform="translate(-72.827 -7.543)" fill="#94b7f7"/>
        <path id="Path_1034241" data-name="Path 1034241" d="M89.99,7.549a7.962,7.962,0,0,0-7.645,7.959H80.094a7.961,7.961,0,0,1,7.965-7.965h1.627C89.788,7.543,89.889,7.545,89.99,7.549Z" transform="translate(-72.831 -7.543)" fill="#5b92f2"/>
        <path id="Path_1034242" data-name="Path 1034242" d="M15.583,51.949a7.926,7.926,0,0,0-.82,3.523h-5.5A1.761,1.761,0,0,1,7.5,53.71h0a1.761,1.761,0,0,1,1.761-1.761Z" transform="translate(-7.5 -47.506)" fill="#f8e868"/>
        <path id="Path_1034243" data-name="Path 1034243" d="M11.516,55.475H9.265a1.761,1.761,0,0,1,0-3.522h2.251a1.761,1.761,0,1,0,0,3.522Z" transform="translate(-7.504 -47.51)" fill="#fdb456"/>
        <path id="Path_1034244" data-name="Path 1034244" d="M69.981,279.361V291.54a1.786,1.786,0,0,1-1.872,1.785,1.819,1.819,0,0,1-1.7-1.834V279.527a.115.115,0,0,1,.1-.114,6.767,6.767,0,0,1,.84-.052h2.632Z" transform="translate(-60.515 -252.164)" fill="#f8e868"/>
        <path id="Path_1034245" data-name="Path 1034245" d="M237.951,279.537v11.952a1.82,1.82,0,0,1-1.7,1.835,1.786,1.786,0,0,1-1.873-1.785V279.361h2.55a6.9,6.9,0,0,1,.924.062A.115.115,0,0,1,237.951,279.537Z" transform="translate(-211.678 -252.164)" fill="#f8e868"/>
        <path id="Path_1034246" data-name="Path 1034246" d="M140.112,90.346h5.551V87.163H133.444A8.577,8.577,0,0,0,140.112,90.346Z" transform="translate(-120.843 -79.197)" fill="#e07f66"/>
        <path id="Path_1034247" data-name="Path 1034247" d="M80.094,90.346h2.155a3.183,3.183,0,0,0,3.183-3.183H80.094Z" transform="translate(-72.831 -79.197)" fill="#e07f66"/>
        <path id="Path_1034248" data-name="Path 1034248" d="M399.219,457.2h-4l-1.552-5.262h10.238V457.2h-3.428" transform="translate(-355.033 -407.472)" fill="#c5d9ec"/>
        <path id="Path_1034249" data-name="Path 1034249" d="M397.477,457.2h-2.251l-1.552-5.263h2.251Z" transform="translate(-355.036 -407.47)" fill="#8bb2d8"/>
        <path id="Path_1034250" data-name="Path 1034250" d="M288.053,338.885l-1.151-2.377-.007-.013a.961.961,0,0,0-1.506-.187,9.5,9.5,0,0,1-1.2,1.024q-.163.118-.339.234c-.972.636-3.228,2.113-5.91,1.444-.048-.012-.1-.025-.142-.038a6.99,6.99,0,0,1-4.143-3.6h-.007l-.022,0h-.361a.5.5,0,0,0-.3.12l-1.378,1.446-4.625,4.856a5.454,5.454,0,0,1-1.718,1.216,11.087,11.087,0,0,0,1.253,1.6,13.878,13.878,0,0,0,9.042,3.938,21.345,21.345,0,0,0,2.811.05,19.735,19.735,0,0,1,3.319-.314l1.248-.012.523-.005,1.713-.016h.033l.586-.006,2.56-.024A11.442,11.442,0,0,0,288.053,338.885Z" transform="translate(-239.462 -302.568)" fill="#e07f66"/>
        <path id="Path_1034251" data-name="Path 1034251" d="M276.122,330.438l-3.89,3.89a4.937,4.937,0,0,1-6.983,0h0a5.46,5.46,0,0,0,1.718-1.216l6-6.3.859-.859a.776.776,0,0,1,1.1,0l1.195,1.195A2.328,2.328,0,0,1,276.122,330.438Z" transform="translate(-239.461 -293.889)" fill="#e07f66"/>
        <path id="Path_1034252" data-name="Path 1034252" d="M268.106,333.928a4.916,4.916,0,0,0,2.724,1.387,4.939,4.939,0,0,1-5.575-.987,5.471,5.471,0,0,0,1.718-1.216l6-6.3.859-.859a.777.777,0,0,1,1.1,0l.682.682-5.79,6.078a5.47,5.47,0,0,1-1.718,1.216Z" transform="translate(-239.465 -293.889)" fill="#d9694b"/>
        <path id="Path_1034253" data-name="Path 1034253" d="M208.881,417.3c-2.148.1-8.024.079-11.853-3.989a11.079,11.079,0,0,1-1.253-1.6l-.09.041a5.476,5.476,0,0,1-1.837.432l-.061,0c-.086,0-.172.007-.259.007a5.443,5.443,0,0,0-3.6,1.35c-.094.082-.186.166-.275.254s-.167.175-.247.266a5.452,5.452,0,0,0-1.357,3.607V421h10.415v-.007a19.285,19.285,0,0,0,3.336-.329C205,420.066,205.617,417.9,208.881,417.3Z" transform="translate(-169.987 -371.271)" fill="#c5d9ec"/>
        <path id="Path_1034254" data-name="Path 1034254" d="M193.467,416.553c-.473.459-.993,1.095-1.284,1.349-.094.082-.186.166-.274.254s-.167.175-.247.266a5.456,5.456,0,0,0-1.357,3.607v3.328h-2.251v-3.328a5.456,5.456,0,0,1,1.357-3.607c.08-.091.161-.181.247-.266s.18-.172.274-.254a5.438,5.438,0,0,1,3.535-1.349Z" transform="translate(-169.989 -375.63)" fill="#8bb2d8"/>
      </g>
      <g id="Group_1177842" data-name="Group 1177842" transform="translate(0 0.043)">
        <path id="Trazado_1034255" data-name="Trazado 1034255" d="M29.234,470.581H0v-4.61H1.5v3.109H29.234Z" transform="translate(-0.004 -419.353)"/>
        <path id="Línea_142" data-name="Línea 142" transform="translate(32.834 45.928)"/>
        <path id="Trazado_1034256" data-name="Trazado 1034256" d="M1.5,289.714H0V279.447a7.606,7.606,0,0,1,6.542-7.512l.369-.051.01.007c.058-.005.126-.01.2-.014l.214-.01.253,0h5.768v1.5l-5.924,0-.221.009-.3.026-.263.038A6.117,6.117,0,0,0,1.5,279.447Z" transform="translate(-0.004 -244.666)"/>
        <path id="Trazado_1034257" data-name="Trazado 1034257" d="M214.065,279.834v-.387a6.118,6.118,0,0,0-5.172-6.016l-.336-.042-.338-.021-.237,0h-5.768v-1.5h5.768l.2,0c.165,0,.245.009.325.014l.194.016.41.049a7.631,7.631,0,0,1,6.46,7.5v.36Z" transform="translate(-181.982 -244.666)"/>
        <path id="Trazado_1034258" data-name="Trazado 1034258" d="M94.869,281.46l-3.822-9.595H95.6L99.764,276Zm-1.609-8.094,2.108,5.29,2.327-2.594-2.715-2.7Z" transform="translate(-81.937 -244.668)"/>
        <path id="Trazado_1034259" data-name="Trazado 1034259" d="M162.382,281.46l-4.9-5.457,4.166-4.137H166.2Zm-2.826-5.4,2.327,2.594,2.108-5.29h-1.72Z" transform="translate(-141.729 -244.668)"/>
        <path id="Línea_143" data-name="Línea 143" d="M13.234-6H0V-7.5H13.234Z" transform="translate(10.216 45.962)"/>
        <path id="Trazado_1034260" data-name="Trazado 1034260" d="M80.033,403.968H58.9V391.953h1.5v10.515H80.033Z" transform="translate(-53.01 -352.741)"/>
        <path id="Línea_144" data-name="Línea 144" d="M-6,.862H-7.5V0H-6Z" transform="translate(33.773 39.212)"/>
        <path id="Trazado_1034261" data-name="Trazado 1034261" d="M130.135,246.616l-4.191-4.162V238h1.5v3.826l2.69,2.672,2.69-2.672V238h1.5v4.451Z" transform="translate(-113.343 -214.194)"/>
        <path id="Trazado_1034262" data-name="Trazado 1034262" d="M82.116,96.952a9.54,9.54,0,0,1-9.529-9.529V79.659H91.646v7.764a9.529,9.529,0,0,1-9.529,9.529ZM74.088,81.16v6.263a8.029,8.029,0,0,0,16.057,0V81.16Z" transform="translate(-65.324 -71.693)"/>
        <path id="Trazado_1034263" data-name="Trazado 1034263" d="M91.649,9.51H72.59v-.75A8.713,8.713,0,0,1,81.306.043h1.626a8.716,8.716,0,0,1,8.716,8.716Zm-17.52-1.5H90.109a7.217,7.217,0,0,0-7.177-6.465H81.306a7.215,7.215,0,0,0-7.177,6.465Z" transform="translate(-65.327 -0.043)"/>
        <path id="Trazado_1034264" data-name="Trazado 1034264" d="M2.512,44.449h7.53l-.536,1.083a7.132,7.132,0,0,0-.742,3.19v.75H2.512a2.512,2.512,0,0,1,0-5.024Zm5.2,1.5h-5.2a1.011,1.011,0,1,0,0,2.022H7.294A8.582,8.582,0,0,1,7.712,45.95Z" transform="translate(0 -40.006)"/>
        <path id="Trazado_1034265" data-name="Trazado 1034265" d="M60.6,271.862h3.382v12.929a2.54,2.54,0,0,1-2.536,2.537l-.121,0a2.559,2.559,0,0,1-2.415-2.584V272.778a.867.867,0,0,1,.756-.859A7.521,7.521,0,0,1,60.6,271.862Zm.8,13.964a1.047,1.047,0,0,0,1.084-1.035V273.363H60.6l-.189,0v11.376a1.073,1.073,0,0,0,.984,1.085Z" transform="translate(-53.015 -244.665)"/>
        <path id="Trazado_1034266" data-name="Trazado 1034266" d="M228.138,286.987a2.546,2.546,0,0,1-1.264-2.195V271.863l3.5,0c.166,0,.246.009.326.014l.194.016.307.034a.872.872,0,0,1,.751.858c-.044,4.858-.018,7.809,0,9.572.025,2.957.027,3.134-.433,3.827l-1.252-.829c.2-.306.207-.312.184-2.992-.015-1.7-.038-4.487,0-9l-.03,0-.237,0h-1.8v11.428a1.041,1.041,0,0,0,.517.9Z" transform="translate(-204.174 -244.666)"/>
        <path id="Línea_145" data-name="Línea 145" transform="translate(26.592 41.269)"/>
        <path id="Línea_146" data-name="Línea 146" d="M1.739-6H0V-7.5H1.739Z" transform="translate(11.613 21.722)"/>
        <path id="Línea_147" data-name="Línea 147" d="M1.739-6H0V-7.5H1.739Z" transform="translate(20.232 21.722)"/>
        <path id="Trazado_1034267" data-name="Trazado 1034267" d="M142.881,184.4a2.777,2.777,0,0,1-2.774-2.774v-.767h1.5v.767a1.273,1.273,0,1,0,2.546,0v-.767h1.5v.767A2.777,2.777,0,0,1,142.881,184.4Z" transform="translate(-126.089 -162.769)"/>
        <path id="Trazado_1034268" data-name="Trazado 1034268" d="M132.273,84.347h-6.3a9.287,9.287,0,0,1-7.252-3.461l-.989-1.222h14.542ZM121.12,81.164a7.791,7.791,0,0,0,4.851,1.682h4.8V81.164Z" transform="translate(-105.951 -71.697)"/>
        <path id="Trazado_1034269" data-name="Trazado 1034269" d="M75.5,84.347H72.594V79.663h6.839v.75A3.938,3.938,0,0,1,75.5,84.347Zm-1.4-1.5h1.4a2.437,2.437,0,0,0,2.314-1.682H74.095Z" transform="translate(-65.331 -71.697)"/>
        <path id="Trazado_1034270" data-name="Trazado 1034270" d="M472.426,468.665h-3.454v-1.5h1.953v-3.321h1.5Z" transform="translate(-422.05 -417.438)"/>
        <path id="Trazado_1034271" data-name="Trazado 1034271" d="M392.259,469.842,391,465.576l1.44-.425.941,3.19h4.158v1.5Z" transform="translate(-351.879 -418.615)"/>
        <path id="Trazado_1034272" data-name="Trazado 1034272" d="M267.413,344.772c-5.6,0-10.046-2.064-12.558-5.876l-.06-.094-.457-.726.942-.432a8.573,8.573,0,0,0,2.556-2.27c.758-.818,1.8-1.937,3.354-3.519l1.475-1.548.079-.055.416.624.522.538-1.413,1.484c-1.55,1.575-2.58,2.685-3.331,3.5a12.937,12.937,0,0,1-2.4,2.266c3.322,4.311,8.859,4.731,11.959,4.585l.113-.024a20.59,20.59,0,0,1,3.242-.291l6.152-.058a10.7,10.7,0,0,0-.443-8.265l-1.155-2.381a.232.232,0,0,0-.131-.053.2.2,0,0,0-.171.059,10.221,10.221,0,0,1-1.29,1.1c-.114.083-.238.167-.365.251-1.049.687-3.5,2.295-6.5,1.546l-.16-.043a6.609,6.609,0,0,1-1.381-.558l.715-1.319a5.1,5.1,0,0,0,1.067.431l.123.033c2.364.59,4.358-.717,5.317-1.345.105-.069.209-.139.307-.211a8.731,8.731,0,0,0,1.1-.945,1.711,1.711,0,0,1,2.684.329l1.19,2.447a12.2,12.2,0,0,1,.3,9.95l-.189.46-7.159.068a19.085,19.085,0,0,0-3.005.27l-.21.036-.119.008Q267.963,344.773,267.413,344.772Z" transform="translate(-228.889 -297.213)"/>
        <path id="Trazado_1034273" data-name="Trazado 1034273" d="M262.686,318.224a1.516,1.516,0,0,1,1.079.447l1.195,1.195a3.082,3.082,0,0,1,0,4.353l-3.89,3.89a5.688,5.688,0,0,1-8.044,0l-.769-.769.993-.446c.907-.407,1.317-.829,3.108-2.755.985-1.059,2.334-2.51,4.384-4.6l.865-.865A1.516,1.516,0,0,1,262.686,318.224Zm-5.637,10.05a4.159,4.159,0,0,0,2.96-1.226l3.89-3.89a1.579,1.579,0,0,0,0-2.231l-1.195-1.195-.018-.008a.023.023,0,0,0-.018.008l-.859.859c-2.03,2.073-3.372,3.516-4.351,4.569a19.85,19.85,0,0,1-2.564,2.519A4.161,4.161,0,0,0,257.049,328.274Z" transform="translate(-227.018 -286.389)"/>
        <path id="Trazado_1034274" data-name="Trazado 1034274" d="M191.715,413.108H180.55v-4.078a6.2,6.2,0,0,1,1.543-4.1c.091-.1.184-.2.281-.3s.205-.2.312-.289a6.193,6.193,0,0,1,4.091-1.535,4.786,4.786,0,0,0,1.926-.411l.6-.283.357.555c2.952,4.588,8.425,5.273,11.425,5.273.338,0,.677-.008,1.015-.024l.17,1.488a7.5,7.5,0,0,0-3.283,1.566,8.75,8.75,0,0,1-3.793,1.793,19.478,19.478,0,0,1-2.723.317v.024Zm-9.664-1.5h9.3l.351-.007a18.423,18.423,0,0,0,3.213-.316,7.406,7.406,0,0,0,3.193-1.537c.2-.143.4-.29.62-.437-4.349-.482-7.826-2.326-9.985-5.324a6.489,6.489,0,0,1-1.965.316,4.692,4.692,0,0,0-3.1,1.165c-.081.071-.161.144-.237.22s-.144.151-.213.23a4.7,4.7,0,0,0-1.171,3.112Z" transform="translate(-162.485 -361.88)"/>
        <g id="Group_1177841" data-name="Group 1177841" transform="translate(14.538 3.984)">
          <path id="Línea_148" data-name="Línea 148" d="M-6,1.5H-7.5V0H-6Z" transform="translate(7.5 0)"/>
          <path id="Línea_149" data-name="Línea 149" d="M-6,1.5H-7.5V0H-6Z" transform="translate(10.507 0)"/>
        </g>
      </g>
    </g>
  </g>
</svg>
