<svg xmlns="http://www.w3.org/2000/svg" xmlns:xlink="http://www.w3.org/1999/xlink" width="108.914" height="108.914" viewBox="0 0 108.914 108.914">
  <defs>
    <filter id="Path_874925" x="0" y="0" width="108.914" height="108.914" filterUnits="userSpaceOnUse">
      <feOffset dy="3" input="SourceAlpha"/>
      <feGaussianBlur stdDeviation="3" result="blur"/>
      <feFlood flood-opacity="0.161"/>
      <feComposite operator="in" in2="blur"/>
      <feComposite in="SourceGraphic"/>
    </filter>
  </defs>
  <g id="Group_1177854" data-name="Group 1177854" transform="translate(-799.5 -2534.157)">
    <g id="Group_1111316" data-name="Group 1111316" transform="translate(0 587.946)">
      <g id="Group_1109835" data-name="Group 1109835">
        <g id="Group_1107913" data-name="Group 1107913" transform="translate(808.5 1952.211)">
          <g transform="matrix(1, 0, 0, 1, -9, -6)" filter="url(#Path_874925)">
            <g id="Path_874925-2" data-name="Path 874925" transform="translate(9 6)" fill="#d8cabd" opacity="0.859">
              <path d="M 45.45676803588867 89.41407012939453 C 39.52198028564453 89.41407012939453 33.76551818847656 88.25206756591797 28.34726715087891 85.96034240722656 C 23.11311721801758 83.74648284912109 18.41204261779785 80.57682800292969 14.37464332580566 76.5394287109375 C 10.33724308013916 72.50202941894531 7.167593002319336 67.80095672607422 4.953730583190918 62.56679534912109 C 2.662005424499512 57.14855575561523 1.500005483627319 51.39208221435547 1.500005483627319 45.45729446411133 C 1.500005483627319 39.52198028564453 2.662005424499512 33.76551818847656 4.953730583190918 28.34726905822754 C 7.167593002319336 23.11310577392578 10.33724308013916 18.41203117370605 14.37464332580566 14.37464332580566 C 18.41204261779785 10.33724403381348 23.11311721801758 7.167593955993652 28.34726715087891 4.953731060028076 C 33.76551818847656 2.662006139755249 39.52198028564453 1.500006198883057 45.45676803588867 1.500006198883057 C 51.39155578613281 1.500006198883057 57.14802932739258 2.662006139755249 62.56626892089844 4.953731060028076 C 67.80043029785156 7.167593955993652 72.50150299072266 10.33724403381348 76.53890228271484 14.37464332580566 C 80.57630920410156 18.41203117370605 83.74595642089844 23.11310577392578 85.95981597900391 28.34726905822754 C 88.25154113769531 33.76551818847656 89.41354370117188 39.52198028564453 89.41354370117188 45.45676803588867 C 89.41354370117188 51.39208221435547 88.25154113769531 57.14855575561523 85.95981597900391 62.56679534912109 C 83.74595642089844 67.80095672607422 80.57630920410156 72.50202941894531 76.53890228271484 76.5394287109375 C 72.50150299072266 80.57682800292969 67.80043029785156 83.74648284912109 62.56626892089844 85.96034240722656 C 57.14802932739258 88.25206756591797 51.39155578613281 89.41407012939453 45.45676803588867 89.41407012939453 Z" stroke="none"/>
              <path d="M 45.45676803588867 3 C 39.72381210327148 3 34.1639404296875 4.12213134765625 28.93159484863281 6.335227966308594 C 23.87622833251953 8.473472595214844 19.33542633056641 11.53517150878906 15.43529510498047 15.435302734375 C 11.53517150878906 19.33543395996094 8.473464965820312 23.87622833251953 6.335227966308594 28.93160247802734 C 4.122123718261719 34.16394424438477 3 39.72381591796875 3 45.4572868347168 C 3 51.19024658203125 4.122123718261719 56.75011825561523 6.335227966308594 61.98246002197266 C 8.473464965820312 67.03782653808594 11.53517150878906 71.57862854003906 15.43529510498047 75.478759765625 C 19.33542633056641 79.37889099121094 23.87622833251953 82.44058990478516 28.93159484863281 84.57883453369141 C 34.1639404296875 86.79193115234375 39.72381210327148 87.9140625 45.45676803588867 87.9140625 C 51.18972396850586 87.9140625 56.74959564208984 86.79193115234375 61.98194122314453 84.57883453369141 C 67.03730773925781 82.44058990478516 71.57810974121094 79.37889099121094 75.47824096679688 75.478759765625 C 79.37837219238281 71.57862854003906 82.44007110595703 67.03782653808594 84.57830810546875 61.98246002197266 C 86.79141235351562 56.75011825561523 87.91353607177734 51.19024658203125 87.91353607177734 45.4567756652832 C 87.91353607177734 39.72381591796875 86.79141235351562 34.16394424438477 84.57830810546875 28.93160247802734 C 82.44007110595703 23.87622833251953 79.37837219238281 19.33543395996094 75.47824096679688 15.435302734375 C 71.57810974121094 11.53517150878906 67.03730773925781 8.473472595214844 61.98194122314453 6.335227966308594 C 56.74959564208984 4.12213134765625 51.18972396850586 3 45.45676803588867 3 M 45.45676803588867 0 C 70.56185150146484 0 90.91353607177734 20.35169219970703 90.91353607177734 45.4567756652832 L 90.91353607177734 45.4572868347168 C 90.91353607177734 70.5623779296875 70.56185150146484 90.9140625 45.45676803588867 90.9140625 C 20.3516845703125 90.9140625 0 70.5623779296875 0 45.4572868347168 L 0 45.4567756652832 C 0 20.35169219970703 20.3516845703125 0 45.45676803588867 0 Z" stroke="none" fill="#fff"/>
            </g>
          </g>
          <g id="Path_874923" data-name="Path 874923" transform="translate(0 0)" fill="none">
            <path d="M45.457,0A45.457,45.457,0,0,1,90.914,45.457h0A45.457,45.457,0,0,1,0,45.457H0A45.457,45.457,0,0,1,45.457,0Z" stroke="none"/>
            <path d="M 45.45676803588867 3 C 39.72381210327148 3 34.1639404296875 4.12213134765625 28.93159484863281 6.335227966308594 C 23.87622833251953 8.473472595214844 19.33542633056641 11.53517150878906 15.43529510498047 15.435302734375 C 11.53517150878906 19.33543395996094 8.473464965820312 23.87622833251953 6.335227966308594 28.93160247802734 C 4.122123718261719 34.16394424438477 3 39.72381591796875 3 45.4572868347168 C 3 51.19024658203125 4.122123718261719 56.75011825561523 6.335227966308594 61.98246002197266 C 8.473464965820312 67.03782653808594 11.53517150878906 71.57862854003906 15.43529510498047 75.478759765625 C 19.33542633056641 79.37889099121094 23.87622833251953 82.44058990478516 28.93159484863281 84.57883453369141 C 34.1639404296875 86.79193115234375 39.72381210327148 87.9140625 45.45676803588867 87.9140625 C 51.18972396850586 87.9140625 56.74959564208984 86.79193115234375 61.98194122314453 84.57883453369141 C 67.03730773925781 82.44058990478516 71.57810974121094 79.37889099121094 75.47824096679688 75.478759765625 C 79.37837219238281 71.57862854003906 82.44007110595703 67.03782653808594 84.57830810546875 61.98246002197266 C 86.79141235351562 56.75011825561523 87.91353607177734 51.19024658203125 87.91353607177734 45.4567756652832 C 87.91353607177734 39.72381591796875 86.79141235351562 34.16394424438477 84.57830810546875 28.93160247802734 C 82.44007110595703 23.87622833251953 79.37837219238281 19.33543395996094 75.47824096679688 15.435302734375 C 71.57810974121094 11.53517150878906 67.03730773925781 8.473472595214844 61.98194122314453 6.335227966308594 C 56.74959564208984 4.12213134765625 51.18972396850586 3 45.45676803588867 3 M 45.45676803588867 0 C 70.56185150146484 0 90.91353607177734 20.35169219970703 90.91353607177734 45.4567756652832 L 90.91353607177734 45.4572868347168 C 90.91353607177734 70.5623779296875 70.56185150146484 90.9140625 45.45676803588867 90.9140625 C 20.3516845703125 90.9140625 0 70.5623779296875 0 45.4572868347168 L 0 45.4567756652832 C 0 20.35169219970703 20.3516845703125 0 45.45676803588867 0 Z" stroke="none" fill="#fff"/>
          </g>
        </g>
      </g>
    </g>
    <g id="zapatos12" transform="translate(815.396 2561.247)">
      <g id="Group_1177852" data-name="Group 1177852" transform="translate(13.815 0.714)">
        <path id="Path_1034283" data-name="Path 1034283" d="M56.323,18.631l2.623-2.623a9.15,9.15,0,0,0-2.239-5.8A16.585,16.585,0,0,0,48.413,7.5a1.419,1.419,0,0,0-1.427,1.4c0,11.861-9.521,14.382-9.521,14.382-.8-1.08-2.107-2.44-3.616-2.36a1.415,1.415,0,0,0-1.314,1.257L31.244,33.149a11.422,11.422,0,0,1-3.014,6.48l-7.28,7.758a1.428,1.428,0,0,0-.017,1.935l1.635,1.762c3.213,0,11.537-4.308,17.935-10.64,6.316-6.252,10.518-16.511,15.821-21.814Z" transform="translate(-20.562 -7.5)" fill="#e3a76f"/>
        <path id="Path_1034284" data-name="Path 1034284" d="M79.5,41.007a9.212,9.212,0,0,0-3.743-5.058A8.561,8.561,0,0,1,77.047,40.8l-2.623,2.623c-5.3,5.3-9.505,15.563-15.821,21.814-6.4,6.332-14.791,10.372-16.983,11.592L43.8,79.172c2.009-1.141,10.583-5.211,17.092-11.653C67.2,61.268,71.405,51.008,76.709,45.7l3.746-3.746Z" transform="translate(-39.616 -33.241)" fill="#c48958"/>
        <path id="Path_1034285" data-name="Path 1034285" d="M88.713,87.1a.714.714,0,0,0-1.01,0l-3.746,3.746c-5.3,5.3-9.505,15.563-15.821,21.814-6.508,6.442-15.083,10.512-17.092,11.653a.713.713,0,0,0-.28.951l.318.608c1.4.517,12.454-5.425,18.647-11.618,6.039-6.039,9.8-14.535,12.377-16.287l.857.857,4.834-3.9,3.9-4.834Z" transform="translate(-47.816 -79.335)" fill="#f3d69e"/>
        <g id="Group_1177851" data-name="Group 1177851" transform="translate(3.266 10.754)">
          <path id="Path_1034286" data-name="Path 1034286" d="M72.957,211.452c-6.193,6.193-14.314,10.1-18.076,12.19a1.428,1.428,0,0,0,1.988.57c2.662-1.559,10.891-5.57,17.084-11.763,6.039-6.039,8.961-13.071,11.952-16.712l-.695-.695a.333.333,0,0,0-.5.029C81.8,198.785,78.838,205.571,72.957,211.452Z" transform="translate(-54.881 -187.857)" fill="#edc472"/>
          <path id="Path_1034287" data-name="Path 1034287" d="M399.087,120.994l-.513-.513-8.737,8.737.513.513a1.428,1.428,0,0,0,2.019,0l6.718-6.718A1.428,1.428,0,0,0,399.087,120.994Z" transform="translate(-357.956 -120.481)" fill="#edc472"/>
        </g>
      </g>
      <g id="Group_1177853" data-name="Group 1177853" transform="translate(13.105 0)">
        <path id="Path_1034288" data-name="Path 1034288" d="M18.351,48.734a2.156,2.156,0,0,1-.6-.085,2.122,2.122,0,0,1-1.306-1.066l-.318-.608a1.423,1.423,0,0,1-.033-1.262l-2.443-2.7a2.153,2.153,0,0,1,.026-2.9l7.28-7.758a10.781,10.781,0,0,0,2.826-6.075l1.291-10.967a2.12,2.12,0,0,1,1.985-1.887c1.316-.071,2.658.7,3.909,2.236A13.063,13.063,0,0,0,37.563,10.1a.714.714,0,1,1,1.234.719,14.316,14.316,0,0,1-7.424,6.222l-.942,8.005a12.217,12.217,0,0,1-3.2,6.885L22.04,37.456A.714.714,0,1,1,21,36.479l5.187-5.528a10.781,10.781,0,0,0,2.826-6.075l.962-8.175c-.632-.8-1.712-1.91-2.836-1.85a.7.7,0,0,0-.643.628L25.2,26.446A12.217,12.217,0,0,1,22,33.332l-7.28,7.758a.718.718,0,0,0-.008.968l.516.57,3.9-4.157a.714.714,0,0,1,1.041.977l-3.98,4.241,1,1.107.693-.369c3.054-1.62,10.207-5.412,15.745-10.894a.714.714,0,1,1,1,1.015c-5.688,5.63-12.971,9.492-16.081,11.141-.5.265-.893.474-1.16.625l.318.608a.714.714,0,0,0,.995.284c.424-.248.987-.558,1.64-.917,3.545-1.95,10.145-5.579,15.3-10.735A58.507,58.507,0,0,0,44.1,24.092a47.029,47.029,0,0,1,3.453-5.2.714.714,0,0,1,1.056-.052l1.37,1.37a.714.714,0,0,0,1.01,0L57.708,13.5a.715.715,0,0,0,0-1.009l-3.5-3.5L50.46,12.731c-2.467,2.467-4.7,6.053-7.072,9.85a84.454,84.454,0,0,1-6.808,9.855.714.714,0,1,1-1.09-.922,83.392,83.392,0,0,0,6.686-9.688c2.412-3.868,4.691-7.522,7.274-10.1L52.892,8.28a9.41,9.41,0,0,0-5.485-5.472,16.181,16.181,0,0,0-5.741-1.381.7.7,0,0,0-.714.688,18.528,18.528,0,0,1-.974,6.128.714.714,0,1,1-1.348-.472,17.109,17.109,0,0,0,.894-5.656A2.131,2.131,0,0,1,41.666,0C43.76,0,51.81,1.3,54.15,7.557a1.426,1.426,0,0,1,1.067.417l3.5,3.5a2.144,2.144,0,0,1,0,3.029L52,21.222a2.141,2.141,0,0,1-3.029,0l-.8-.8c-.9,1.2-1.815,2.709-2.85,4.412a59.689,59.689,0,0,1-8.663,11.73c-5.3,5.3-12.014,8.992-15.622,10.976-.644.354-1.2.66-1.606.9A2.13,2.13,0,0,1,18.351,48.734Z" transform="translate(-13.105 0)"/>
      </g>
    </g>
  </g>
</svg>
