<svg xmlns="http://www.w3.org/2000/svg" xmlns:xlink="http://www.w3.org/1999/xlink" width="108.914" height="108.914" viewBox="0 0 108.914 108.914">
  <defs>
    <filter id="Path_874925" x="0" y="0" width="108.914" height="108.914" filterUnits="userSpaceOnUse">
      <feOffset dy="3" input="SourceAlpha"/>
      <feGaussianBlur stdDeviation="3" result="blur"/>
      <feFlood flood-opacity="0.161"/>
      <feComposite operator="in" in2="blur"/>
      <feComposite in="SourceGraphic"/>
    </filter>
  </defs>
  <g id="Group_1177848" data-name="Group 1177848" transform="translate(-799.5 -2534.157)">
    <g id="Group_1111316" data-name="Group 1111316" transform="translate(0 587.946)">
      <g id="Group_1109835" data-name="Group 1109835">
        <g id="Group_1107913" data-name="Group 1107913" transform="translate(808.5 1952.211)">
          <g transform="matrix(1, 0, 0, 1, -9, -6)" filter="url(#Path_874925)">
            <g id="Path_874925-2" data-name="Path 874925" transform="translate(9 6)" fill="#d8cabd" opacity="0.859">
              <path d="M 45.45676803588867 89.41407012939453 C 39.52198028564453 89.41407012939453 33.76551818847656 88.25206756591797 28.34726715087891 85.96034240722656 C 23.11311721801758 83.74648284912109 18.41204261779785 80.57682800292969 14.37464332580566 76.5394287109375 C 10.33724308013916 72.50202941894531 7.167593002319336 67.80095672607422 4.953730583190918 62.56679534912109 C 2.662005424499512 57.14855575561523 1.500005483627319 51.39208221435547 1.500005483627319 45.45729446411133 C 1.500005483627319 39.52198028564453 2.662005424499512 33.76551818847656 4.953730583190918 28.34726905822754 C 7.167593002319336 23.11310577392578 10.33724308013916 18.41203117370605 14.37464332580566 14.37464332580566 C 18.41204261779785 10.33724403381348 23.11311721801758 7.167593955993652 28.34726715087891 4.953731060028076 C 33.76551818847656 2.662006139755249 39.52198028564453 1.500006198883057 45.45676803588867 1.500006198883057 C 51.39155578613281 1.500006198883057 57.14802932739258 2.662006139755249 62.56626892089844 4.953731060028076 C 67.80043029785156 7.167593955993652 72.50150299072266 10.33724403381348 76.53890228271484 14.37464332580566 C 80.57630920410156 18.41203117370605 83.74595642089844 23.11310577392578 85.95981597900391 28.34726905822754 C 88.25154113769531 33.76551818847656 89.41354370117188 39.52198028564453 89.41354370117188 45.45676803588867 C 89.41354370117188 51.39208221435547 88.25154113769531 57.14855575561523 85.95981597900391 62.56679534912109 C 83.74595642089844 67.80095672607422 80.57630920410156 72.50202941894531 76.53890228271484 76.5394287109375 C 72.50150299072266 80.57682800292969 67.80043029785156 83.74648284912109 62.56626892089844 85.96034240722656 C 57.14802932739258 88.25206756591797 51.39155578613281 89.41407012939453 45.45676803588867 89.41407012939453 Z" stroke="none"/>
              <path d="M 45.45676803588867 3 C 39.72381210327148 3 34.1639404296875 4.12213134765625 28.93159484863281 6.335227966308594 C 23.87622833251953 8.473472595214844 19.33542633056641 11.53517150878906 15.43529510498047 15.435302734375 C 11.53517150878906 19.33543395996094 8.473464965820312 23.87622833251953 6.335227966308594 28.93160247802734 C 4.122123718261719 34.16394424438477 3 39.72381591796875 3 45.4572868347168 C 3 51.19024658203125 4.122123718261719 56.75011825561523 6.335227966308594 61.98246002197266 C 8.473464965820312 67.03782653808594 11.53517150878906 71.57862854003906 15.43529510498047 75.478759765625 C 19.33542633056641 79.37889099121094 23.87622833251953 82.44058990478516 28.93159484863281 84.57883453369141 C 34.1639404296875 86.79193115234375 39.72381210327148 87.9140625 45.45676803588867 87.9140625 C 51.18972396850586 87.9140625 56.74959564208984 86.79193115234375 61.98194122314453 84.57883453369141 C 67.03730773925781 82.44058990478516 71.57810974121094 79.37889099121094 75.47824096679688 75.478759765625 C 79.37837219238281 71.57862854003906 82.44007110595703 67.03782653808594 84.57830810546875 61.98246002197266 C 86.79141235351562 56.75011825561523 87.91353607177734 51.19024658203125 87.91353607177734 45.4567756652832 C 87.91353607177734 39.72381591796875 86.79141235351562 34.16394424438477 84.57830810546875 28.93160247802734 C 82.44007110595703 23.87622833251953 79.37837219238281 19.33543395996094 75.47824096679688 15.435302734375 C 71.57810974121094 11.53517150878906 67.03730773925781 8.473472595214844 61.98194122314453 6.335227966308594 C 56.74959564208984 4.12213134765625 51.18972396850586 3 45.45676803588867 3 M 45.45676803588867 0 C 70.56185150146484 0 90.91353607177734 20.35169219970703 90.91353607177734 45.4567756652832 L 90.91353607177734 45.4572868347168 C 90.91353607177734 70.5623779296875 70.56185150146484 90.9140625 45.45676803588867 90.9140625 C 20.3516845703125 90.9140625 0 70.5623779296875 0 45.4572868347168 L 0 45.4567756652832 C 0 20.35169219970703 20.3516845703125 0 45.45676803588867 0 Z" stroke="none" fill="#fff"/>
            </g>
          </g>
          <g id="Path_874923" data-name="Path 874923" transform="translate(0 0)" fill="none">
            <path d="M45.457,0A45.457,45.457,0,0,1,90.914,45.457h0A45.457,45.457,0,0,1,0,45.457H0A45.457,45.457,0,0,1,45.457,0Z" stroke="none"/>
            <path d="M 45.45676803588867 3 C 39.72381210327148 3 34.1639404296875 4.12213134765625 28.93159484863281 6.335227966308594 C 23.87622833251953 8.473472595214844 19.33542633056641 11.53517150878906 15.43529510498047 15.435302734375 C 11.53517150878906 19.33543395996094 8.473464965820312 23.87622833251953 6.335227966308594 28.93160247802734 C 4.122123718261719 34.16394424438477 3 39.72381591796875 3 45.4572868347168 C 3 51.19024658203125 4.122123718261719 56.75011825561523 6.335227966308594 61.98246002197266 C 8.473464965820312 67.03782653808594 11.53517150878906 71.57862854003906 15.43529510498047 75.478759765625 C 19.33542633056641 79.37889099121094 23.87622833251953 82.44058990478516 28.93159484863281 84.57883453369141 C 34.1639404296875 86.79193115234375 39.72381210327148 87.9140625 45.45676803588867 87.9140625 C 51.18972396850586 87.9140625 56.74959564208984 86.79193115234375 61.98194122314453 84.57883453369141 C 67.03730773925781 82.44058990478516 71.57810974121094 79.37889099121094 75.47824096679688 75.478759765625 C 79.37837219238281 71.57862854003906 82.44007110595703 67.03782653808594 84.57830810546875 61.98246002197266 C 86.79141235351562 56.75011825561523 87.91353607177734 51.19024658203125 87.91353607177734 45.4567756652832 C 87.91353607177734 39.72381591796875 86.79141235351562 34.16394424438477 84.57830810546875 28.93160247802734 C 82.44007110595703 23.87622833251953 79.37837219238281 19.33543395996094 75.47824096679688 15.435302734375 C 71.57810974121094 11.53517150878906 67.03730773925781 8.473472595214844 61.98194122314453 6.335227966308594 C 56.74959564208984 4.12213134765625 51.18972396850586 3 45.45676803588867 3 M 45.45676803588867 0 C 70.56185150146484 0 90.91353607177734 20.35169219970703 90.91353607177734 45.4567756652832 L 90.91353607177734 45.4572868347168 C 90.91353607177734 70.5623779296875 70.56185150146484 90.9140625 45.45676803588867 90.9140625 C 20.3516845703125 90.9140625 0 70.5623779296875 0 45.4572868347168 L 0 45.4567756652832 C 0 20.35169219970703 20.3516845703125 0 45.45676803588867 0 Z" stroke="none" fill="#fff"/>
          </g>
        </g>
      </g>
    </g>
    <g id="zapatos" transform="translate(827.5 2559.111)">
      <g id="Group_1177849" data-name="Group 1177849" transform="translate(0.778 0.811)">
        <path id="Path_1034265" data-name="Path 1034265" d="M353.5,12.86s-.244.453-.256.457a24.692,24.692,0,0,1-12.545,0c-.013,0-.281-.484-.281-.484.127-.209,1.462-2.321,1.628-2.589a5.782,5.782,0,0,1,7.477-2.087,5.692,5.692,0,0,1,2.036,1.709A29.97,29.97,0,0,1,353.5,12.86Z" transform="translate(-306.492 -7.547)" fill="#ccf49f"/>
        <path id="Path_1034266" data-name="Path 1034266" d="M336.394,71.9v3.145a18.2,18.2,0,0,1-.786,5.2,18.257,18.257,0,0,0-.763,5.222v11.11a8.432,8.432,0,0,1-7.508,8.4s-.522,0-.788,0a8.143,8.143,0,0,1-8.22-8.3V88.836a36.572,36.572,0,0,1,.513-6.1,17.372,17.372,0,0,0-.637-8.36,17.329,17.329,0,0,1-.908-5.453v-.087a17.433,17.433,0,0,1,2.46-9.119,1.2,1.2,0,0,0,.367.07,23.648,23.648,0,0,0,12.273-.017l.339-.1A26.033,26.033,0,0,1,336.394,71.9Z" transform="translate(-285.728 -54.354)" fill="#f8f7f7"/>
        <path id="Path_1034267" data-name="Path 1034267" d="M366.325,132.722a31.919,31.919,0,0,0-.734-6.6l-.366-1.042-.1-.916a11.67,11.67,0,0,1-.184-2.716l-.1-.89.294-.715q.108-.57.274-1.131l.247-.836q.043-.145.082-.291l-.162-.9.476-.691a11.565,11.565,0,0,0,.042-2.54l-.54-1.058.174-.91q-.094-.336-.211-.667c-.625-1.781-1.734-3.456-3.7-3.8,0,0-.491-.017-.756-.017-2.444,0-3.452,1.937-4.153,3.935a11.011,11.011,0,0,0,0,6.907l.247.836a11.675,11.675,0,0,1,.071,6.372,31.8,31.8,0,0,0-1.429,7.638Z" transform="translate(-320.305 -96.86)" fill="#ccf49f"/>
        <path id="Path_1034268" data-name="Path 1034268" d="M366.326,132.311v.005L355.8,132.28a30.678,30.678,0,0,1,.258-3.834c.121-.937.282-1.869.479-2.748l.5-1.041-.039-.9a11.671,11.671,0,0,0,.183-2.727l.116-.857-.307-.737q-.108-.571-.274-1.131l-.247-.837q-.046-.156-.088-.314v-.8l-.309-.762a11.585,11.585,0,0,1-.046-2.506l.492-1.112-.124-.892q.094-.337.211-.668c.7-2,2.01-3.862,4.455-3.862a4.475,4.475,0,0,1,.764.065c-1.96.347-3.065,2.019-3.69,3.8a11.257,11.257,0,0,0-.6,4.47,11.856,11.856,0,0,0,.463,2.587l.247.837a11.675,11.675,0,0,1,.071,6.371,28.651,28.651,0,0,0-.732,3.772,30.685,30.685,0,0,0-.258,3.834Z" transform="translate(-320.305 -96.455)" fill="#b3e59f"/>
        <path id="Path_1034269" data-name="Path 1034269" d="M355.994,322.563c3.27-4.549,6.642-4.688,10.127.024a1.037,1.037,0,0,1,.2.616v6.374a5.264,5.264,0,1,1-10.528.088v-6.5A1.036,1.036,0,0,1,355.994,322.563Z" transform="translate(-320.305 -287.342)" fill="#d8d8d8"/>
        <path id="Path_1034270" data-name="Path 1034270" d="M379.023,350.839a3.223,3.223,0,0,1-3.225-3.213v-6.064a.305.305,0,0,1,.062-.186c.844-1.107,2-2.275,3.11-2.275.919,0,2.025.8,3.213,2.316a.309.309,0,0,1,.065.19v5.931a3.28,3.28,0,0,1-3.162,3.3Z" transform="translate(-338.266 -305.301)" fill="#e8e8e8"/>
        <path id="Path_1034271" data-name="Path 1034271" d="M347.8,7.612a5.761,5.761,0,0,0-4.023,2.632c-.524.851-1.318,2.056-1.86,2.986l-.942.087-.558-.484c.127-.209,1.462-2.321,1.628-2.589a5.769,5.769,0,0,1,4.885-2.7,5.886,5.886,0,0,1,.871.065Z" transform="translate(-306.492 -7.547)" fill="#b3e59f"/>
        <path id="Path_1034272" data-name="Path 1034272" d="M325.553,104.741q-.395.041-.8.045a8.352,8.352,0,0,1-8.424-8.341V88.6a36.572,36.572,0,0,1,.513-6.1,17.371,17.371,0,0,0-.637-8.36,17.329,17.329,0,0,1-.908-5.453V68.6a17.781,17.781,0,0,1,2.561-9.191l.47.142q.509.141,1.031.255a17.774,17.774,0,0,0-2.328,8.795v.087a17.328,17.328,0,0,0,.908,5.453,17.372,17.372,0,0,1,.637,8.36,36.572,36.572,0,0,0-.513,6.1v7.842A8.349,8.349,0,0,0,325.553,104.741Z" transform="translate(-283.933 -54.12)" fill="#e8e8e8"/>
        <path id="Path_1034273" data-name="Path 1034273" d="M57.329,13.371s-.487.351-.55.368a24.27,24.27,0,0,1-12.293-.177c-.007,0-.156-.145-.156-.145,1.035-1.673,2.039-3.676,3.957-4.624a5.562,5.562,0,0,1,2.531-.628c.283,0,.836-.019.836-.019A5.768,5.768,0,0,1,55.7,10.782c.6.958,1.041,1.652,1.628,2.589Z" transform="translate(-40.588 -8.085)" fill="#ccf49f"/>
        <path id="Path_1034274" data-name="Path 1034274" d="M31.526,68.59v.087a17.329,17.329,0,0,1-.908,5.453,17.371,17.371,0,0,0-.637,8.36,36.573,36.573,0,0,1,.513,6.1v7.842a8.35,8.35,0,0,1-7.535,8.3s-.6-.057-.9-.059c-4.609-.035-7.923-3.94-7.923-8.539L14.3,85.224A18.257,18.257,0,0,0,13.533,80a18.2,18.2,0,0,1-.786-5.2V71.659a24.961,24.961,0,0,1,3.084-11.706,1.349,1.349,0,0,0,.056-.534l.275.088a23.657,23.657,0,0,0,12.135.089c.062-.016.387-.113.668-.2a17.785,17.785,0,0,1,2.561,9.192Z" transform="translate(-12.225 -54.112)" fill="#f8f7f7"/>
        <path id="Path_1034275" data-name="Path 1034275" d="M50.975,7.611a5.8,5.8,0,0,0-1.722.546,5.692,5.692,0,0,0-2.036,1.709,30.05,30.05,0,0,0-1.938,2.987q-.112.2-.222.4l-1.089.138s-.271-.486-.421-.534a30.051,30.051,0,0,1,1.938-2.987,5.692,5.692,0,0,1,2.036-1.709,5.8,5.8,0,0,1,3.455-.546Z" transform="translate(-39.885 -7.546)" fill="#b3e59f"/>
        <path id="Path_1034276" data-name="Path 1034276" d="M18.406,104.912a8.573,8.573,0,0,1-.934.045,8.418,8.418,0,0,1-8.3-8.446V85.4a18.257,18.257,0,0,0-.763-5.222,18.2,18.2,0,0,1-.786-5.2V71.835A26.044,26.044,0,0,1,11.29,59.6l.275.088q.609.171,1.236.308a25.782,25.782,0,0,0-3.44,11.843V74.98a18.2,18.2,0,0,0,.786,5.2A18.257,18.257,0,0,1,10.91,85.4V96.51A8.431,8.431,0,0,0,18.406,104.912Z" transform="translate(-7.628 -54.291)" fill="#e8e8e8"/>
        <path id="Path_1034277" data-name="Path 1034277" d="M63.717,132.722a31.93,31.93,0,0,0-.734-6.6l-.366-1.042-.1-.916a11.671,11.671,0,0,1-.184-2.716l-.1-.89.294-.715q.108-.57.274-1.131l.247-.836q.043-.145.082-.291l-.162-.9.476-.691a11.563,11.563,0,0,0,.042-2.54l-.54-1.058.174-.91q-.094-.336-.211-.667c-.625-1.781-1.734-3.456-3.7-3.8,0,0-.491-.017-.756-.017-2.444,0-3.452,1.937-4.153,3.935a11.011,11.011,0,0,0,0,6.907l.247.836a11.674,11.674,0,0,1,.071,6.372,31.8,31.8,0,0,0-1.429,7.638Z" transform="translate(-48.544 -96.86)" fill="#ccf49f"/>
        <path id="Path_1034278" data-name="Path 1034278" d="M63.716,132.311v.005l-10.528-.036a30.68,30.68,0,0,1,.258-3.834c.121-.937.282-1.869.479-2.748l.5-1.041-.039-.9a11.672,11.672,0,0,0,.183-2.727l.116-.857-.307-.737q-.108-.571-.274-1.131l-.247-.837q-.046-.156-.088-.314v-.8l-.309-.762a11.585,11.585,0,0,1-.046-2.506l.492-1.112-.124-.892q.094-.337.211-.668c.7-2,2.01-3.862,4.455-3.862a4.475,4.475,0,0,1,.764.065c-1.96.347-3.065,2.019-3.69,3.8a11.257,11.257,0,0,0-.6,4.47,11.856,11.856,0,0,0,.463,2.587l.247.837a11.675,11.675,0,0,1,.071,6.371,28.652,28.652,0,0,0-.732,3.772,30.68,30.68,0,0,0-.258,3.834Z" transform="translate(-48.543 -96.455)" fill="#b3e59f"/>
        <path id="Path_1034279" data-name="Path 1034279" d="M53.384,322.563c3.27-4.549,6.642-4.688,10.127.024a1.037,1.037,0,0,1,.2.616v6.374a5.264,5.264,0,1,1-10.528.088v-6.5A1.037,1.037,0,0,1,53.384,322.563Z" transform="translate(-48.543 -287.342)" fill="#d8d8d8"/>
        <path id="Path_1034280" data-name="Path 1034280" d="M76.413,350.839a3.223,3.223,0,0,1-3.225-3.213v-6.064a.305.305,0,0,1,.062-.186c.844-1.107,2-2.275,3.11-2.275.919,0,2.025.8,3.213,2.316a.309.309,0,0,1,.065.19v5.931a3.28,3.28,0,0,1-3.162,3.3Z" transform="translate(-66.505 -305.301)" fill="#e8e8e8"/>
      </g>
      <g id="Group_1177850" data-name="Group 1177850" transform="translate(0 0.047)">
        <path id="Path_1034281" data-name="Path 1034281" d="M322.879,2.677A6.539,6.539,0,0,0,312.1,3.1l-1.268,2.017A18.546,18.546,0,0,0,307.9,17.244a.765.765,0,0,0,1.52-.167,17.372,17.372,0,0,1-.094-1.788A16.966,16.966,0,0,1,311.483,7a23.918,23.918,0,0,0,6.215.806,23.947,23.947,0,0,0,6.14-.786A24.788,24.788,0,0,1,327.1,18.356V21.5a17.448,17.448,0,0,1-.754,4.98,19.032,19.032,0,0,0-.794,5.441v11.11a7.724,7.724,0,0,1-1.039,3.87.765.765,0,1,0,1.323.767,9.257,9.257,0,0,0,1.246-4.637V31.921a17.5,17.5,0,0,1,.73-5,18.975,18.975,0,0,0,.818-5.417V18.356c0-4.873-2.2-10.881-5.749-15.679ZM312.316,5.638,313.4,3.915a5.01,5.01,0,0,1,8.25-.33c.492.666.956,1.356,1.391,2.063a22.9,22.9,0,0,1-10.724-.01Z" transform="translate(-276.421 -0.047)"/>
        <path id="Path_1034282" data-name="Path 1034282" d="M46.613,22.876l.247-.836a12.171,12.171,0,0,0-.15-7.528c-1.269-3.615-3.515-4.374-5.176-4.374s-3.907.759-5.176,4.374a12.171,12.171,0,0,0-.15,7.528l.247.836a10.9,10.9,0,0,1,.1,5.811A10.247,10.247,0,0,1,34.278,30.4c.05-.362.1-.723.164-1.083a18.4,18.4,0,0,0-.722-8.9.765.765,0,1,0-1.456.467,16.9,16.9,0,0,1,.671,8.179q-.179,1.057-.3,2.128a16.3,16.3,0,0,1-4.3,1.06l1.379-1.171a5.153,5.153,0,0,0,1.82-3.934,3.092,3.092,0,0,0-5.423-2.033,3.092,3.092,0,0,0-5.423,2.033,5.152,5.152,0,0,0,1.82,3.934l1.377,1.17a16.61,16.61,0,0,1-4.3-1.056q-.118-1.07-.3-2.13a16.655,16.655,0,0,1,.61-7.992,18.443,18.443,0,0,0,.947-5.781,18.5,18.5,0,0,0-3.038-10.17L16.538,3.1A6.539,6.539,0,0,0,5.763,2.677C2.216,7.475.013,13.483.013,18.356a26.736,26.736,0,0,0,.818,8.562,17.5,17.5,0,0,1,.73,5v11.11a9.192,9.192,0,0,0,9.056,9.21,9.178,9.178,0,0,0,9.194-9.106V35.294q0-1.2-.078-2.4a18.577,18.577,0,0,0,4.217.9,8.1,8.1,0,0,0-1.912,3.124.765.765,0,1,0,1.448.491A6.322,6.322,0,0,1,26.111,34a6.322,6.322,0,0,1,2.624,3.4.765.765,0,0,0,1.448-.491,8.1,8.1,0,0,0-1.91-3.123,18.266,18.266,0,0,0,4.216-.91q-.078,1.2-.079,2.409v7.842a9.115,9.115,0,0,0,9.124,9.106,9.156,9.156,0,0,0,5.213-1.655.765.765,0,1,0-.882-1.249,7.472,7.472,0,0,1-4.273,1.374,7.586,7.586,0,0,1-7.653-7.576V35.294c0-1.018.044-2.039.132-3.057a14.1,14.1,0,0,0,1.946-1.118,32.851,32.851,0,0,0-.511,5.554v6.374A6.029,6.029,0,0,0,45.76,47.425a5.966,5.966,0,0,0,1.8-4.289v-6.5a31.558,31.558,0,0,0-1.016-7.807,10.9,10.9,0,0,1,.066-5.954ZM18.282,35.294v7.842a7.643,7.643,0,0,1-7.653,7.576,7.659,7.659,0,0,1-7.538-7.681V31.921A19.028,19.028,0,0,0,2.3,26.481c-.852-2.556-.776-5.551-.754-8.125A24.79,24.79,0,0,1,4.805,7.02,19.9,19.9,0,0,0,7.144,7.5.727.727,0,0,0,7.9,6.862a.765.765,0,0,0-.633-.877C6.7,5.894,6.145,5.779,5.6,5.647c.435-.706.9-1.4,1.39-2.061a5.01,5.01,0,0,1,8.25.33l1.082,1.723a22.859,22.859,0,0,1-5.594.638h-.007a.765.765,0,0,0-.764.758.756.756,0,0,0,.758.771A24.617,24.617,0,0,0,17.159,7a16.966,16.966,0,0,1,2.155,8.287,16.938,16.938,0,0,1-.869,5.3,18.19,18.19,0,0,0-.666,8.728c.062.366.116.733.167,1.1a11.269,11.269,0,0,1-2.254-1.611,10.9,10.9,0,0,1,.072-5.931l.247-.836a12.171,12.171,0,0,0-.15-7.528c-1.269-3.615-3.515-4.374-5.176-4.374S6.779,10.9,5.51,14.513a12.171,12.171,0,0,0-.15,7.528l.247.836a10.9,10.9,0,0,1,.066,5.954,31.552,31.552,0,0,0-1.016,7.807V38.4a.765.765,0,0,0,1.529,0V36.638a.273.273,0,0,1,.052-.158c1.422-1.994,3-3.164,4.393-3.143,1.427,0,2.94,1.068,4.5,3.175a.274.274,0,0,1,.055.161v6.374a4.561,4.561,0,0,1-4.412,4.575,4.5,4.5,0,0,1-4.587-4.487V41.969a.765.765,0,1,0-1.529,0v1.167a6.028,6.028,0,0,0,6.027,6.017,6.118,6.118,0,0,0,6.03-6.1V36.673a32.837,32.837,0,0,0-.5-5.5,14.575,14.575,0,0,0,1.939,1.087c.086,1.012.13,2.027.13,3.038ZM6.482,16.929a8.3,8.3,0,0,1,8.408,0,10.581,10.581,0,0,1,.06,2.626,9.809,9.809,0,0,0-8.529,0A10.582,10.582,0,0,1,6.482,16.929Zm8.192,4.2c-.174.69-.472,1.531-.636,2.366a9.807,9.807,0,0,0-6.7,0c-.129-.691-.425-1.553-.636-2.366A8.292,8.292,0,0,1,14.674,21.132ZM7.55,25.052a8.291,8.291,0,0,1,6.272,0,12.427,12.427,0,0,0,.1,2.731,9.909,9.909,0,0,0-6.471,0A12.418,12.418,0,0,0,7.55,25.052ZM6.964,14.989c.781-2.2,2.033-3.321,3.722-3.321s2.941,1.117,3.722,3.321a9.8,9.8,0,0,0-7.444,0ZM7.054,29.6a8.361,8.361,0,0,1,7.263,0,30.067,30.067,0,0,1,.739,4.457,6.292,6.292,0,0,0-4.425-2.247A6.184,6.184,0,0,0,6.32,33.987,29.974,29.974,0,0,1,7.054,29.6ZM28.44,25.58A1.566,1.566,0,0,1,30,27.145a3.626,3.626,0,0,1-1.281,2.768l-1.848,1.57V27.145A1.566,1.566,0,0,1,28.44,25.58Zm-6.222,1.564a1.564,1.564,0,0,1,3.129,0v4.338L23.5,29.913a3.626,3.626,0,0,1-1.281-2.768ZM37.331,16.929a8.3,8.3,0,0,1,8.408,0,10.591,10.591,0,0,1,.06,2.626,9.809,9.809,0,0,0-8.529,0A10.582,10.582,0,0,1,37.331,16.929Zm8.064,4.678c-.181.616-.358,1.159-.508,1.891a9.806,9.806,0,0,0-6.7,0c-.129-.691-.425-1.553-.636-2.366a8.292,8.292,0,0,1,7.976,0C45.483,21.29,45.441,21.449,45.394,21.607Zm-7,3.445a8.291,8.291,0,0,1,6.272,0,12.424,12.424,0,0,0,.1,2.731,9.911,9.911,0,0,0-6.471,0,12.42,12.42,0,0,0,.1-2.731ZM37.9,29.6a8.36,8.36,0,0,1,7.263,0,29.986,29.986,0,0,1,.734,4.389,6.1,6.1,0,0,0-4.283-2.179h-.03a6.292,6.292,0,0,0-4.425,2.247A30.092,30.092,0,0,1,37.9,29.6Zm3.632-17.93c1.689,0,2.941,1.117,3.722,3.321a9.8,9.8,0,0,0-7.444,0C38.594,12.786,39.846,11.668,41.535,11.668Zm4.5,31.468a4.5,4.5,0,0,1-4.587,4.486,4.561,4.561,0,0,1-4.412-4.575V36.673a.274.274,0,0,1,.055-.161c1.558-2.107,3.071-3.175,4.5-3.175h.019c1.41.009,2.882,1.067,4.374,3.143a.273.273,0,0,1,.052.158v6.5Z" transform="translate(0 -0.047)"/>
      </g>
    </g>
  </g>
</svg>
